0
SECTION
2
TABLES
0
TABLE
2
LAYER
0
LAYER
70
0
2
shiti
62
10
6
CONTINUOUS
0
LAYER
70
0
2
zhuji
62
50
6
CONTINUOUS
0
LAYER
70
0
2
qita
62
90
6
CONTINUOUS
0
ENDTAB
0
ENDSEC
0
SECTION
2
ENTITIES
0
POINT
8
shiti
10
0
20
16.6987038662613
0
POINT
8
shiti
10
5
20
16.7035868692548
0
POINT
8
shiti
10
10
20
16.7180116121303
0
POINT
8
shiti
10
15
20
16.7632507590092
0
POINT
8
shiti
10
20
20
16.8209559303008
0
POINT
8
shiti
10
25
20
16.8195421498205
0
POINT
8
shiti
10
30
20
15.696409927189
0
POINT
8
shiti
10
35
20
14.2643342279453
0
POINT
8
shiti
10
40
20
13.1306358942071
0
POINT
8
shiti
10
45
20
12.7874681187758
0
POINT
8
shiti
10
50
20
11.9053696969239
0
POINT
8
shiti
10
100
20
15.0112641043048
0
POINT
8
shiti
10
105
20
15.0315032363357
0
POINT
8
shiti
10
110
20
15.9138590746054
0
POINT
8
shiti
10
115
20
15.0362018484107
0
POINT
8
shiti
10
120
20
17.0048210784471
0
POINT
8
shiti
10
125
20
17.8262144100096
0
POINT
8
shiti
10
130
20
17.8096066002753
0
POINT
8
shiti
10
135
20
15.7392689535238
0
POINT
8
shiti
10
140
20
15.021731349897
0
POINT
8
shiti
10
145
20
14.6126623098664
0
POINT
8
shiti
10
150
20
14.4700374598032
0
TEXT
8
zhuji
10
0
20
16.6987038662613
40
1
1
K0
0
TEXT
8
zhuji
10
5
20
16.7035868692548
40
1
1
V-1
0
TEXT
8
zhuji
10
10
20
16.7180116121303
40
1
1
V-2
0
TEXT
8
zhuji
10
15
20
16.7632507590092
40
1
1
V-3
0
TEXT
8
zhuji
10
20
20
16.8209559303008
40
1
1
V-4
0
TEXT
8
zhuji
10
25
20
16.8195421498205
40
1
1
K1
0
TEXT
8
zhuji
10
30
20
15.696409927189
40
1
1
V-5
0
TEXT
8
zhuji
10
35
20
14.2643342279453
40
1
1
V-6
0
TEXT
8
zhuji
10
40
20
13.1306358942071
40
1
1
V-7
0
TEXT
8
zhuji
10
45
20
12.7874681187758
40
1
1
V-8
0
TEXT
8
zhuji
10
50
20
11.9053696969239
40
1
1
K2
0
TEXT
8
zhuji
10
100
20
15.0112641043048
40
1
1
K0
0
TEXT
8
zhuji
10
105
20
15.0315032363357
40
1
1
V-1
0
TEXT
8
zhuji
10
110
20
15.9138590746054
40
1
1
V-2
0
TEXT
8
zhuji
10
115
20
15.0362018484107
40
1
1
V-3
0
TEXT
8
zhuji
10
120
20
17.0048210784471
40
1
1
V-4
0
TEXT
8
zhuji
10
125
20
17.8262144100096
40
1
1
K1
0
TEXT
8
zhuji
10
130
20
17.8096066002753
40
1
1
V-5
0
TEXT
8
zhuji
10
135
20
15.7392689535238
40
1
1
V-6
0
TEXT
8
zhuji
10
140
20
15.021731349897
40
1
1
V-7
0
TEXT
8
zhuji
10
145
20
14.6126623098664
40
1
1
V-8
0
TEXT
8
zhuji
10
150
20
14.4700374598032
40
1
1
K2
0
POLYLINE
8
shiti
66
1
0
VERTEX
8
shiti
10
0
20
16.6987038662613
0
VERTEX
8
shiti
10
5
20
16.7035868692548
0
VERTEX
8
shiti
10
10
20
16.7180116121303
0
VERTEX
8
shiti
10
15
20
16.7632507590092
0
VERTEX
8
shiti
10
20
20
16.8209559303008
0
VERTEX
8
shiti
10
25
20
16.8195421498205
0
VERTEX
8
shiti
10
30
20
15.696409927189
0
VERTEX
8
shiti
10
35
20
14.2643342279453
0
VERTEX
8
shiti
10
40
20
13.1306358942071
0
VERTEX
8
shiti
10
45
20
12.7874681187758
0
VERTEX
8
shiti
10
50
20
11.9053696969239
0
SEQEND
0
POLYLINE
8
shiti
66
1
0
VERTEX
8
shiti
10
100
20
15.0112641043048
0
VERTEX
8
shiti
10
105
20
15.0315032363357
0
VERTEX
8
shiti
10
110
20
15.9138590746054
0
VERTEX
8
shiti
10
115
20
15.0362018484107
0
VERTEX
8
shiti
10
120
20
17.0048210784471
0
VERTEX
8
shiti
10
125
20
17.8262144100096
0
VERTEX
8
shiti
10
130
20
17.8096066002753
0
VERTEX
8
shiti
10
135
20
15.7392689535238
0
VERTEX
8
shiti
10
140
20
15.021731349897
0
VERTEX
8
shiti
10
145
20
14.6126623098664
0
VERTEX
8
shiti
10
150
20
14.4700374598032
0
SEQEND
0
LINE
8
qita
10
0
20
10
11
50
21
10
0
LINE
8
qita
10
100
20
10
11
150
21
10
0
ENDSEC
0
EOF
