0
SECTION
2
TABLES
0
TABLE
2
LAYER
0
LAYER
70
0
2
shiti
62
10
6
CONTINUOUS
0
LAYER
70
0
2
zhuji
62
50
6
CONTINUOUS
0
LAYER
70
0
2
qita
62
90
6
CONTINUOUS
0
ENDTAB
0
ENDSEC
0
SECTION
2
ENTITIES
0
POINT
8
shiti
10
0
20
12.922
0
POINT
8
shiti
10
10
20
14.0293771596697
0
POINT
8
shiti
10
20
20
16.7899324027712
0
POINT
8
shiti
10
30
20
17.9498121098536
0
POINT
8
shiti
10
40
20
19.1022355540764
0
POINT
8
shiti
10
45.4118624370328
20
19.925
0
POINT
8
shiti
10
50
20
18.3802918961672
0
POINT
8
shiti
10
60
20
18.0538178533788
0
POINT
8
shiti
10
70
20
17.6654429306049
0
POINT
8
shiti
10
80
20
13.1100276519629
0
POINT
8
shiti
10
88.5768507724879
20
10.836
0
TEXT
8
zhuji
10
0
20
12.922
40
1
1
K0
0
TEXT
8
zhuji
10
10
20
14.0293771596697
40
1
1
V-1
0
TEXT
8
zhuji
10
20
20
16.7899324027712
40
1
1
V-2
0
TEXT
8
zhuji
10
30
20
17.9498121098536
40
1
1
V-3
0
TEXT
8
zhuji
10
40
20
19.1022355540764
40
1
1
V-4
0
TEXT
8
zhuji
10
45.4118624370328
20
19.925
40
1
1
K1
0
TEXT
8
zhuji
10
50
20
18.3802918961672
40
1
1
V-5
0
TEXT
8
zhuji
10
60
20
18.0538178533788
40
1
1
V-6
0
TEXT
8
zhuji
10
70
20
17.6654429306049
40
1
1
V-7
0
TEXT
8
zhuji
10
80
20
13.1100276519629
40
1
1
V-8
0
TEXT
8
zhuji
10
88.5768507724879
20
10.836
40
1
1
K2
0
POLYLINE
8
shiti
66
1
0
VERTEX
8
shiti
10
0
20
12.922
0
VERTEX
8
shiti
10
10
20
14.0293771596697
0
VERTEX
8
shiti
10
20
20
16.7899324027712
0
VERTEX
8
shiti
10
30
20
17.9498121098536
0
VERTEX
8
shiti
10
40
20
19.1022355540764
0
VERTEX
8
shiti
10
45.4118624370328
20
19.925
0
VERTEX
8
shiti
10
50
20
18.3802918961672
0
VERTEX
8
shiti
10
60
20
18.0538178533788
0
VERTEX
8
shiti
10
70
20
17.6654429306049
0
VERTEX
8
shiti
10
80
20
13.1100276519629
0
VERTEX
8
shiti
10
88.5768507724879
20
10.836
0
SEQEND
0
LINE
8
qita
10
0
20
10
11
88.5768507724879
21
10
0
ENDSEC
0
EOF
