0
SECTION
2
TABLES
0
TABLE
2
LAYER
0
LAYER
70
0
2
shiti
62
10
6
CONTINUOUS
0
LAYER
70
0
2
zhuji
62
50
6
CONTINUOUS
0
LAYER
70
0
2
qita
62
90
6
CONTINUOUS
0
ENDTAB
0
ENDSEC
0
SECTION
2
ENTITIES
0
POINT
8
shiti
10
3358.3
20
4574.012
30
12.922
0
POINT
8
shiti
10
3372.09
20
4571.827
30
10.619
0
POINT
8
shiti
10
3362.574
20
4570.907
30
10.771
0
POINT
8
shiti
10
3355.66
20
4569.494
30
14.233
0
POINT
8
shiti
10
3361.789
20
4556.682
30
16.66
0
POINT
8
shiti
10
3364.421
20
4547.554
30
17.352
0
POINT
8
shiti
10
3370.041
20
4534.086
30
17.158
0
POINT
8
shiti
10
3376.08
20
4517.549
30
17.345
0
POINT
8
shiti
10
3383.182
20
4505.572
30
15.637
0
POINT
8
shiti
10
3390.196
20
4498.562
30
13.033
0
POINT
8
shiti
10
3390.748
20
4494.457
30
10.963
0
POINT
8
shiti
10
3391.959
20
4500.501
30
13.085
0
POINT
8
shiti
10
3382.485
20
4510.753
30
14.083
0
POINT
8
shiti
10
3378.296
20
4522.092
30
14.356
0
POINT
8
shiti
10
3373.371
20
4531.567
30
15.047
0
POINT
8
shiti
10
3367.159
20
4546.386
30
15.794
0
POINT
8
shiti
10
3362.776
20
4556.219
30
16.082
0
POINT
8
shiti
10
3362.461
20
4559.558
30
15.678
0
POINT
8
shiti
10
3366.571
20
4554.746
30
17.609
0
POINT
8
shiti
10
3372.596
20
4545.254
30
19.024
0
POINT
8
shiti
10
3376.395
20
4540.86
30
19.223
0
POINT
8
shiti
10
3378.766
20
4536.141
30
19.502
0
POINT
8
shiti
10
3380.195
20
4534.227
30
19.925
0
POINT
8
shiti
10
3383.019
20
4525.945
30
18.152
0
POINT
8
shiti
10
3385.587
20
4519.592
30
18.06
0
POINT
8
shiti
10
3391.514
20
4513.249
30
18.302
0
POINT
8
shiti
10
3389.414
20
4523.724
30
18.811
0
POINT
8
shiti
10
3387.734
20
4537.846
30
18.239
0
POINT
8
shiti
10
3379.044
20
4540.773
30
18.344
0
POINT
8
shiti
10
3382.932
20
4549.894
30
16.482
0
POINT
8
shiti
10
3387.292
20
4543.39
30
16.594
0
POINT
8
shiti
10
3381.416
20
4546.992
30
16.637
0
POINT
8
shiti
10
3370.594
20
4558.964
30
16.666
0
POINT
8
shiti
10
3367.802
20
4565.741
30
13.835
0
POINT
8
shiti
10
3375.941
20
4561.203
30
13.732
0
POINT
8
shiti
10
3385.33
20
4561.762
30
13.068
0
POINT
8
shiti
10
3376.133
20
4569.25
30
12.032
0
POINT
8
shiti
10
3372.975
20
4572.318
30
10.908
0
POINT
8
shiti
10
3386.945
20
4568.279
30
11.014
0
POINT
8
shiti
10
3394.728
20
4550.913
30
10.462
0
POINT
8
shiti
10
3400.079
20
4537.754
30
10.427
0
POINT
8
shiti
10
3411.29
20
4509.525
30
10.478
0
POINT
8
shiti
10
3403.422
20
4497.844
30
10.836
0
POINT
8
shiti
10
3358.3
20
4574.012
30
12.922
0
POINT
8
shiti
10
3363.12142744754
20
4565.25107325861
30
14.0293771596697
0
POINT
8
shiti
10
3367.94285489508
20
4556.49014651721
30
16.7899324027712
0
POINT
8
shiti
10
3372.76428234263
20
4547.72921977582
30
17.9498121098536
0
POINT
8
shiti
10
3377.58570979017
20
4538.96829303442
30
19.1022355540764
0
POINT
8
shiti
10
3380.195
20
4534.227
30
19.925
0
POINT
8
shiti
10
3382.66386829544
20
4530.35974055221
30
18.3802918961672
0
POINT
8
shiti
10
3388.04484971012
20
4521.93091862891
30
18.0538178533788
0
POINT
8
shiti
10
3393.42583112481
20
4513.5020967056
30
17.6654429306049
0
POINT
8
shiti
10
3398.8068125395
20
4505.07327478229
30
13.1100276519629
0
POINT
8
shiti
10
3403.422
20
4497.844
30
10.836
0
POINT
8
shiti
10
3347.34518314651
20
4542.06593138114
30
16.6987038662613
0
POINT
8
shiti
10
3351.72564651721
20
4544.47664510492
30
16.7035868692548
0
POINT
8
shiti
10
3356.10610988791
20
4546.88735882869
30
16.7180116121303
0
POINT
8
shiti
10
3360.48657325861
20
4549.29807255246
30
16.7632507590092
0
POINT
8
shiti
10
3364.8670366293
20
4551.70878627623
30
16.8209559303008
0
POINT
8
shiti
10
3369.2475
20
4554.1195
30
16.8195421498205
0
POINT
8
shiti
10
3373.6279633707
20
4556.53021372377
30
15.696409927189
0
POINT
8
shiti
10
3378.0084267414
20
4558.94092744754
30
14.2643342279453
0
POINT
8
shiti
10
3382.38889011209
20
4561.35164117131
30
13.1306358942071
0
POINT
8
shiti
10
3386.76935348279
20
4563.76235489508
30
12.7874681187758
0
POINT
8
shiti
10
3391.14981685349
20
4566.17306861885
30
11.9053696969239
0
POINT
8
shiti
10
3370.73644519174
20
4502.58304646328
30
15.0112641043048
0
POINT
8
shiti
10
3374.95085615339
20
4505.27353717063
30
15.0315032363357
0
POINT
8
shiti
10
3379.16526711504
20
4507.96402787797
30
15.9138590746054
0
POINT
8
shiti
10
3383.37967807669
20
4510.65451858531
30
15.0362018484107
0
POINT
8
shiti
10
3387.59408903835
20
4513.34500929266
30
17.0048210784471
0
POINT
8
shiti
10
3391.8085
20
4516.0355
30
17.8262144100096
0
POINT
8
shiti
10
3396.02291096165
20
4518.72599070734
30
17.8096066002753
0
POINT
8
shiti
10
3400.23732192331
20
4521.41648141469
30
15.7392689535238
0
POINT
8
shiti
10
3404.45173288496
20
4524.10697212203
30
15.021731349897
0
POINT
8
shiti
10
3408.66614384661
20
4526.79746282937
30
14.6126623098664
0
POINT
8
shiti
10
3412.88055480826
20
4529.48795353672
30
14.4700374598032
0
TEXT
8
zhuji
10
3355.3
20
4571.012
40
1
1
K0
0
TEXT
8
zhuji
10
3369.09
20
4568.827
40
1
1
P02
0
TEXT
8
zhuji
10
3359.574
20
4567.907
40
1
1
P03
0
TEXT
8
zhuji
10
3352.66
20
4566.494
40
1
1
P04
0
TEXT
8
zhuji
10
3358.789
20
4553.682
40
1
1
P05
0
TEXT
8
zhuji
10
3361.421
20
4544.554
40
1
1
P06
0
TEXT
8
zhuji
10
3367.041
20
4531.086
40
1
1
P07
0
TEXT
8
zhuji
10
3373.08
20
4514.549
40
1
1
P08
0
TEXT
8
zhuji
10
3380.182
20
4502.572
40
1
1
P09
0
TEXT
8
zhuji
10
3387.196
20
4495.562
40
1
1
P10
0
TEXT
8
zhuji
10
3387.748
20
4491.457
40
1
1
P11
0
TEXT
8
zhuji
10
3388.959
20
4497.501
40
1
1
P12
0
TEXT
8
zhuji
10
3379.485
20
4507.753
40
1
1
P13
0
TEXT
8
zhuji
10
3375.296
20
4519.092
40
1
1
P14
0
TEXT
8
zhuji
10
3370.371
20
4528.567
40
1
1
P15
0
TEXT
8
zhuji
10
3364.159
20
4543.386
40
1
1
P16
0
TEXT
8
zhuji
10
3359.776
20
4553.219
40
1
1
P17
0
TEXT
8
zhuji
10
3359.461
20
4556.558
40
1
1
P18
0
TEXT
8
zhuji
10
3363.571
20
4551.746
40
1
1
P19
0
TEXT
8
zhuji
10
3369.596
20
4542.254
40
1
1
P20
0
TEXT
8
zhuji
10
3373.395
20
4537.86
40
1
1
P21
0
TEXT
8
zhuji
10
3375.766
20
4533.141
40
1
1
P22
0
TEXT
8
zhuji
10
3377.195
20
4531.227
40
1
1
K1
0
TEXT
8
zhuji
10
3380.019
20
4522.945
40
1
1
P23
0
TEXT
8
zhuji
10
3382.587
20
4516.592
40
1
1
P24
0
TEXT
8
zhuji
10
3388.514
20
4510.249
40
1
1
P25
0
TEXT
8
zhuji
10
3386.414
20
4520.724
40
1
1
P26
0
TEXT
8
zhuji
10
3384.734
20
4534.846
40
1
1
P27
0
TEXT
8
zhuji
10
3376.044
20
4537.773
40
1
1
P28
0
TEXT
8
zhuji
10
3379.932
20
4546.894
40
1
1
P29
0
TEXT
8
zhuji
10
3384.292
20
4540.39
40
1
1
P30
0
TEXT
8
zhuji
10
3378.416
20
4543.992
40
1
1
P31
0
TEXT
8
zhuji
10
3367.594
20
4555.964
40
1
1
P32
0
TEXT
8
zhuji
10
3364.802
20
4562.741
40
1
1
P33
0
TEXT
8
zhuji
10
3372.941
20
4558.203
40
1
1
P34
0
TEXT
8
zhuji
10
3382.33
20
4558.762
40
1
1
P35
0
TEXT
8
zhuji
10
3373.133
20
4566.25
40
1
1
P36
0
TEXT
8
zhuji
10
3369.975
20
4569.318
40
1
1
P37
0
TEXT
8
zhuji
10
3383.945
20
4565.279
40
1
1
P38
0
TEXT
8
zhuji
10
3391.728
20
4547.913
40
1
1
P39
0
TEXT
8
zhuji
10
3397.079
20
4534.754
40
1
1
P40
0
TEXT
8
zhuji
10
3408.29
20
4506.525
40
1
1
P41
0
TEXT
8
zhuji
10
3400.422
20
4494.844
40
1
1
K2
0
TEXT
8
zhuji
10
3358.3
20
4574.012
40
1
1
K0
0
TEXT
8
zhuji
10
3363.12142744754
20
4565.25107325861
40
1
1
V-1
0
TEXT
8
zhuji
10
3367.94285489508
20
4556.49014651721
40
1
1
V-2
0
TEXT
8
zhuji
10
3372.76428234263
20
4547.72921977582
40
1
1
V-3
0
TEXT
8
zhuji
10
3377.58570979017
20
4538.96829303442
40
1
1
V-4
0
TEXT
8
zhuji
10
3380.195
20
4534.227
40
1
1
K1
0
TEXT
8
zhuji
10
3382.66386829544
20
4530.35974055221
40
1
1
V-5
0
TEXT
8
zhuji
10
3388.04484971012
20
4521.93091862891
40
1
1
V-6
0
TEXT
8
zhuji
10
3393.42583112481
20
4513.5020967056
40
1
1
V-7
0
TEXT
8
zhuji
10
3398.8068125395
20
4505.07327478229
40
1
1
V-8
0
TEXT
8
zhuji
10
3403.422
20
4497.844
40
1
1
K2
0
TEXT
8
zhuji
10
3344.34518314651
20
4539.06593138114
40
1
1
C-5
0
TEXT
8
zhuji
10
3348.72564651721
20
4541.47664510492
40
1
1
C-4
0
TEXT
8
zhuji
10
3353.10610988791
20
4543.88735882869
40
1
1
C-3
0
TEXT
8
zhuji
10
3357.48657325861
20
4546.29807255246
40
1
1
C-2
0
TEXT
8
zhuji
10
3361.8670366293
20
4548.70878627623
40
1
1
C-1
0
TEXT
8
zhuji
10
3366.2475
20
4551.1195
40
1
1
M 1
0
TEXT
8
zhuji
10
3370.6279633707
20
4553.53021372377
40
1
1
C1
0
TEXT
8
zhuji
10
3375.0084267414
20
4555.94092744754
40
1
1
C2
0
TEXT
8
zhuji
10
3379.38889011209
20
4558.35164117131
40
1
1
C3
0
TEXT
8
zhuji
10
3383.76935348279
20
4560.76235489508
40
1
1
C4
0
TEXT
8
zhuji
10
3388.14981685349
20
4563.17306861885
40
1
1
C5
0
TEXT
8
zhuji
10
3367.73644519174
20
4499.58304646328
40
1
1
C-5
0
TEXT
8
zhuji
10
3371.95085615339
20
4502.27353717063
40
1
1
C-4
0
TEXT
8
zhuji
10
3376.16526711504
20
4504.96402787797
40
1
1
C-3
0
TEXT
8
zhuji
10
3380.37967807669
20
4507.65451858531
40
1
1
C-2
0
TEXT
8
zhuji
10
3384.59408903835
20
4510.34500929266
40
1
1
C-1
0
TEXT
8
zhuji
10
3388.8085
20
4513.0355
40
1
1
M 2
0
TEXT
8
zhuji
10
3393.02291096165
20
4515.72599070734
40
1
1
C1
0
TEXT
8
zhuji
10
3397.23732192331
20
4518.41648141469
40
1
1
C2
0
TEXT
8
zhuji
10
3401.45173288496
20
4521.10697212203
40
1
1
C3
0
TEXT
8
zhuji
10
3405.66614384661
20
4523.79746282937
40
1
1
C4
0
TEXT
8
zhuji
10
3409.88055480826
20
4526.48795353672
40
1
1
C5
0
LINE
8
qita
10
3358.3
20
4574.012
11
3380.195
21
4534.227
0
LINE
8
qita
10
3347.34518314651
20
4542.06593138114
11
3391.14981685349
21
4566.17306861885
0
LINE
8
qita
10
3380.195
20
4534.227
11
3403.422
21
4497.844
0
LINE
8
qita
10
3370.73644519174
20
4502.58304646328
11
3412.88055480826
21
4529.48795353672
0
ENDSEC
0
EOF
