0
SECTION
2
TABLES
0
TABLE
2
LAYER
0
LAYER
70
0
2
shiti
62
10
6
CONTINUOUS
0
LAYER
70
0
2
zhuji
62
50
6
CONTINUOUS
0
LAYER
70
0
2
qita
62
90
6
CONTINUOUS
0
ENDTAB
0
ENDSEC
0
SECTION
2
ENTITIES
0
POINT
8
shiti
10
481650.0714
20
3418028.6802
0
POINT
8
shiti
10
482131.808
20
3418841.163
0
POINT
8
shiti
10
482094.975107181
20
3418909.31540359
0
POINT
8
shiti
10
481965.894340576
20
3418776.8446702
0
POINT
8
shiti
10
481858.928203077
20
3418664.75677831
0
POINT
8
shiti
10
481753.139566723
20
3418548.86774095
0
POINT
8
shiti
10
481639.338962309
20
3418415.35564656
0
POINT
8
shiti
10
481534.052884444
20
3418281.82729839
0
POINT
8
shiti
10
481429.291321697
20
3418137.72624778
0
POINT
8
shiti
10
481334.260116272
20
3417995.7891624
0
POINT
8
shiti
10
481227.67576532
20
3417821.33000509
0
POINT
8
shiti
10
481133.491681536
20
3417650.5636011
0
POINT
8
shiti
10
481044.660497038
20
3417459.19780718
0
POINT
8
shiti
10
480961.631088159
20
3417281.20082665
0
POINT
8
shiti
10
480894.83308633
20
3417096.63375726
0
POINT
8
shiti
10
480827.609405087
20
3416912.1078064
0
POINT
8
shiti
10
480777.215352507
20
3416722.38898572
0
POINT
8
shiti
10
480726.281136555
20
3416532.59894564
0
POINT
8
shiti
10
480679.500653765
20
3416260.62700769
0
POINT
8
shiti
10
480652.2823
20
3416096.7317
0
POINT
8
shiti
10
480623.4802
20
3415377.6572
0
POLYLINE
8
shiti
66
1
0
VERTEX
8
shiti
10
481650.0714
20
3418028.6802
0
VERTEX
8
shiti
10
482131.808
20
3418841.163
0
VERTEX
8
shiti
10
482094.975107181
20
3418909.31540359
0
VERTEX
8
shiti
10
481965.894340576
20
3418776.8446702
0
VERTEX
8
shiti
10
481858.928203077
20
3418664.75677831
0
VERTEX
8
shiti
10
481753.139566723
20
3418548.86774095
0
VERTEX
8
shiti
10
481639.338962309
20
3418415.35564656
0
VERTEX
8
shiti
10
481534.052884444
20
3418281.82729839
0
VERTEX
8
shiti
10
481429.291321697
20
3418137.72624778
0
VERTEX
8
shiti
10
481334.260116272
20
3417995.7891624
0
VERTEX
8
shiti
10
481227.67576532
20
3417821.33000509
0
VERTEX
8
shiti
10
481133.491681536
20
3417650.5636011
0
VERTEX
8
shiti
10
481044.660497038
20
3417459.19780718
0
VERTEX
8
shiti
10
480961.631088159
20
3417281.20082665
0
VERTEX
8
shiti
10
480894.83308633
20
3417096.63375726
0
VERTEX
8
shiti
10
480827.609405087
20
3416912.1078064
0
VERTEX
8
shiti
10
480777.215352507
20
3416722.38898572
0
VERTEX
8
shiti
10
480726.281136555
20
3416532.59894564
0
VERTEX
8
shiti
10
480679.500653765
20
3416260.62700769
0
VERTEX
8
shiti
10
480652.2823
20
3416096.7317
0
VERTEX
8
shiti
10
480623.4802
20
3415377.6572
0
SEQEND
0
LINE
8
qita
10
481650.0714
20
3418028.6802
11
482131.808
21
3418841.163
0
LINE
8
qita
10
480652.2823
20
3416096.7317
11
480623.4802
21
3415377.6572
0
TEXT
8
zhuji
10
481647.0714
20
3418025.6802
40
5
1
A410
0
TEXT
8
zhuji
10
482128.808
20
3418838.163
40
5
1
B095
0
TEXT
8
zhuji
10
482091.975107181
20
3418906.31540359
40
5
1
AI329305
0
TEXT
8
zhuji
10
481962.894340576
20
3418773.8446702
40
5
1
D0301
0
TEXT
8
zhuji
10
481855.928203077
20
3418661.75677831
40
5
1
D0302
0
TEXT
8
zhuji
10
481750.139566723
20
3418545.86774095
40
5
1
D0303
0
TEXT
8
zhuji
10
481636.338962309
20
3418412.35564656
40
5
1
D0304
0
TEXT
8
zhuji
10
481531.052884444
20
3418278.82729839
40
5
1
D0305
0
TEXT
8
zhuji
10
481426.291321697
20
3418134.72624778
40
5
1
D0306
0
TEXT
8
zhuji
10
481331.260116272
20
3417992.7891624
40
5
1
D1301
0
TEXT
8
zhuji
10
481224.67576532
20
3417818.33000509
40
5
1
D1302
0
TEXT
8
zhuji
10
481130.491681536
20
3417647.5636011
40
5
1
D1303
0
TEXT
8
zhuji
10
481041.660497038
20
3417456.19780718
40
5
1
D1304
0
TEXT
8
zhuji
10
480958.631088159
20
3417278.20082665
40
5
1
D1305
0
TEXT
8
zhuji
10
480891.83308633
20
3417093.63375726
40
5
1
D2301
0
TEXT
8
zhuji
10
480824.609405087
20
3416909.1078064
40
5
1
D2302
0
TEXT
8
zhuji
10
480774.215352507
20
3416719.38898572
40
5
1
D2303
0
TEXT
8
zhuji
10
480723.281136555
20
3416529.59894564
40
5
1
D23042
0
TEXT
8
zhuji
10
480676.500653765
20
3416257.62700769
40
5
1
D2305
0
TEXT
8
zhuji
10
480649.2823
20
3416093.7317
40
5
1
D2306
0
TEXT
8
zhuji
10
480620.4802
20
3415374.6572
40
5
1
A424-1
0
ENDSEC
0
EOF
