0
SECTION
2
TABLES
0
TABLE
2
LAYER
0
LAYER
70
0
2
shiti
62
10
6
CONTINUOUS
0
LAYER
70
0
2
zhuji
62
50
6
CONTINUOUS
0
LAYER
70
0
2
sqita
62
90
6
CONTINUOUS
0
ENDTAB
0
ENDSEC
0
SECTION
2
ENTITIES
0
POINT
8
0
10
421.88
20
414.28
30
39.555
0
POINT
8
0
10
425.02
20
387.8
30
36.8774
0
POINT
8
0
10
426.62
20
359.06
30
31.225
0
POINT
8
0
10
425.53
20
348.04
30
27.416
0
POINT
8
0
10
440.31
20
344.57
30
27.7945
0
POINT
8
0
10
454.84
20
352.89
30
28.4999
0
POINT
8
0
10
442.45
20
402.88
30
37.951
0
POINT
8
0
10
393.86
20
393.47
30
32.5395
0
POINT
8
0
10
387.57
20
358.85
30
29.426
0
POINT
8
0
10
376.62
20
358.59
30
29.223
0
POINT
8
0
10
364.21
20
348.66
30
28.2538
0
POINT
8
0
10
340.89
20
362.8
30
26.8212
0
POINT
8
0
10
347.62
20
335.73
30
26.2299
0
POINT
8
0
10
362.69
20
331.84
30
26.6612
0
POINT
8
0
10
402.35
20
351.82
30
28.4848
0
POINT
8
0
10
399.61
20
335.09
30
26.6922
0
POINT
8
0
10
333.34
20
331.15
30
24.6894
0
POINT
8
0
10
322.26
20
344.1
30
24.3684
0
POINT
8
0
10
381.66
20
326.8
30
26.7581
0
POINT
8
0
10
331.42
20
396.59
30
28.7137
0
POINT
8
0
10
317.25
20
372.7
30
25.8215
0
POINT
8
0
10
313.74
20
404.54
30
26.9055
0
POINT
8
0
10
349.16
20
416.04
30
31.7509
0
POINT
8
0
10
367.77
20
424.7
30
34.8919
0
POINT
8
0
10
383.5
20
414.85
30
37.4818
0
POINT
8
0
10
370.21
20
399.59
30
32.5866
0
POINT
8
0
10
353.32
20
386.89
30
30.5459
0
POINT
8
0
10
336.82
20
383.23
30
29.2504
0
POINT
8
0
10
322.59
20
421.13
30
27.7593
0
POINT
8
0
10
316.53
20
468.29
30
27.0276
0
POINT
8
0
10
313.32
20
434.93
30
26.5662
0
POINT
8
0
10
324.05
20
456.71
30
28.8742
0
POINT
8
0
10
372.23
20
491.54
30
33.0459
0
POINT
8
0
10
363.75
20
470.83
30
32.6194
0
POINT
8
0
10
397.87
20
414.07
30
39.5041
0
POINT
8
0
10
368.77
20
446.84
30
34.5865
0
POINT
8
0
10
313.25
20
438
30
30.1398
0
POINT
8
0
10
344.36
20
456.08
30
30.1871
0
POINT
8
0
10
401.02
20
472.76
30
38.5963
0
POINT
8
0
10
432.82
20
479.13
30
42.3405
0
POINT
8
0
10
422.7
20
499.63
30
40.7577
0
POINT
8
0
10
402.93
20
492.35
30
37.9286
0
POINT
8
0
10
390.16
20
489.32
30
36.34
0
POINT
8
0
10
383.25
20
449.7
30
36.9367
0
POINT
8
0
10
406.78
20
444.56
30
41.6945
0
POINT
8
0
10
427.23
20
464.5
30
43.5075
0
POINT
8
0
10
439.93
20
503.6
30
41.0365
0
POINT
8
0
10
437.89
20
515.85
30
39.9929
0
POINT
8
0
10
493.01
20
505.89
30
33.8673
0
POINT
8
0
10
490.18
20
485.63
30
36.4479
0
POINT
8
0
10
472.49
20
493.83
30
39.8801
0
POINT
8
0
10
450.67
20
482.52
30
42.3327
0
POINT
8
0
10
461.98
20
508.1
30
40.2172
0
POINT
8
0
10
382.32
20
513.7
30
36.919
0
POINT
8
0
10
466.79
20
532.14
30
37.7726
0
POINT
8
0
10
446.42
20
547.81
30
38.3385
0
POINT
8
0
10
429.29
20
555.09
30
37.5484
0
POINT
8
0
10
466.8
20
550.59
30
37.233
0
POINT
8
0
10
490.08
20
542.39
30
33.8351
0
POINT
8
0
10
481.02
20
562.32
30
34.4659
0
POINT
8
0
10
461.23
20
582.49
30
34.1418
0
POINT
8
0
10
474.09
20
585.43
30
32.5303
0
POINT
8
0
10
464.84
20
596.28
30
31.7542
0
POINT
8
0
10
494.1
20
573.76
30
31.3335
0
POINT
8
0
10
505.61
20
567.67
30
29.5076
0
POINT
8
0
10
465.51
20
435.85
30
40.6101
0
POINT
8
0
10
438.86
20
446.92
30
43.5085
0
POINT
8
0
10
462.16
20
451.21
30
42.1787
0
POINT
8
0
10
442.84
20
425.14
30
42.2289
0
POINT
8
0
10
471.64
20
465.83
30
41.4353
0
POINT
8
0
10
478.39
20
444.54
30
39.4434
0
POINT
8
0
10
489.73
20
436.92
30
35.15
0
POINT
8
0
10
502.75
20
446.87
30
32.0204
0
POINT
8
0
10
499.59
20
424.8
30
31.1902
0
POINT
8
0
10
477.23
20
415.55
30
36.1728
0
POINT
8
0
10
459.37
20
405.41
30
36.2749
0
POINT
8
0
10
487.67
20
407.98
30
31.2808
0
POINT
8
0
10
511.39
20
410.21
30
29.09
0
POINT
8
0
10
495.92
20
392.51
30
29.1024
0
POINT
8
0
10
524.73
20
434.96
30
28.8913
0
POINT
8
0
10
523.57
20
415.92
30
28.6408
0
POINT
8
0
10
504.81
20
381.47
30
28.3432
0
POINT
8
0
10
495.85
20
365.02
30
27.6838
0
POINT
8
0
10
500.58
20
352.99
30
26.1047
0
POINT
8
0
10
486.82
20
348.82
30
26.2623
0
POINT
8
0
10
471.08
20
350.47
30
27.5493
0
POINT
8
0
10
521.57
20
357.64
30
25.8516
0
POINT
8
0
10
526.14
20
387.14
30
25.9322
0
POINT
8
0
10
538.09
20
418.4
30
25.2847
0
POINT
8
0
10
533.77
20
448.49
30
25.8802
0
POINT
8
0
10
494.46
20
465.16
30
34.603
0
POINT
8
0
10
508.1
20
458.79
30
31.0874
0
POINT
8
0
10
519.64
20
503.63
30
28.9581
0
POINT
8
0
10
505.74
20
504.38
30
29.4945
0
POINT
8
0
10
513.9
20
487.85
30
29.3574
0
POINT
8
0
10
522.38
20
473.73
30
28.2401
0
POINT
8
0
10
534.46
20
474.65
30
28.1753
0
POINT
8
0
10
537.72
20
501.33
30
27.601
0
POINT
8
0
10
530.08
20
526.89
30
29.1993
0
POINT
8
0
10
519.63
20
538.63
30
29.2767
0
POINT
8
0
10
431.95
20
327.38
30
26.6129
0
POINT
8
0
10
419.39
20
326.22
30
26.2965
0
POINT
8
0
10
400.14
20
591.41
30
31.3133
0
POINT
8
0
10
375.51
20
580.18
30
30.2236
0
POINT
8
0
10
381.36
20
603.18
30
28.8233
0
POINT
8
0
10
341.71
20
529.15
30
27.0601
0
POINT
8
0
10
408.9
20
583.86
30
33.6867
0
POINT
8
0
10
419.84
20
565.07
30
36.2957
0
POINT
8
0
10
402.71
20
544.34
30
36.3476
0
POINT
8
0
10
403.82
20
568.31
30
34.7975
0
POINT
8
0
10
388.7
20
517.51
30
35.1603
0
POINT
8
0
10
366.48
20
521.11
30
31.672
0
POINT
8
0
10
349.28
20
539.64
30
29.138
0
POINT
8
0
10
335.71
20
506.62
30
26.9185
0
POINT
8
0
10
350.97
20
505.15
30
29.6483
0
POINT
8
0
10
379.74
20
494.79
30
33.5259
0
POINT
8
0
10
374.64
20
511.44
30
33.1928
0
POINT
8
0
10
354.75
20
493.14
30
30.8649
0
POINT
8
0
10
508.67
20
549.66
30
30.3146
0
POINT
8
0
10
500.28
20
369.18
30
27.7
0
POINT
8
0
10
431.06
20
442.8
30
43.9
0
POINT
8
0
10
444.08
20
455.78
30
43.46
0
POINT
8
0
10
374.57
20
461.02
30
35.5
0
POINT
8
0
10
388.9
20
437.3
30
38.2
0
POINT
8
0
10
407.54
20
399.61
30
37
0
POINT
8
0
10
450.64
20
514.12
30
40.1
0
TEXT
8
zhuji
10
418.88
20
411.28
40
1
1
p1
0
TEXT
8
zhuji
10
422.02
20
384.8
40
1
1
p2
0
TEXT
8
zhuji
10
423.62
20
356.06
40
1
1
p3
0
TEXT
8
zhuji
10
422.53
20
345.04
40
1
1
p4
0
TEXT
8
zhuji
10
437.31
20
341.57
40
1
1
p5
0
TEXT
8
zhuji
10
451.84
20
349.89
40
1
1
p6
0
TEXT
8
zhuji
10
439.45
20
399.88
40
1
1
p7
0
TEXT
8
zhuji
10
390.86
20
390.47
40
1
1
p8
0
TEXT
8
zhuji
10
384.57
20
355.85
40
1
1
p9
0
TEXT
8
zhuji
10
373.62
20
355.59
40
1
1
p10
0
TEXT
8
zhuji
10
361.21
20
345.66
40
1
1
p11
0
TEXT
8
zhuji
10
337.89
20
359.8
40
1
1
p12
0
TEXT
8
zhuji
10
344.62
20
332.73
40
1
1
p13
0
TEXT
8
zhuji
10
359.69
20
328.84
40
1
1
p14
0
TEXT
8
zhuji
10
399.35
20
348.82
40
1
1
p15
0
TEXT
8
zhuji
10
396.61
20
332.09
40
1
1
p16
0
TEXT
8
zhuji
10
330.34
20
328.15
40
1
1
p17
0
TEXT
8
zhuji
10
319.26
20
341.1
40
1
1
p18
0
TEXT
8
zhuji
10
378.66
20
323.8
40
1
1
p19
0
TEXT
8
zhuji
10
328.42
20
393.59
40
1
1
p20
0
TEXT
8
zhuji
10
314.25
20
369.7
40
1
1
p21
0
TEXT
8
zhuji
10
310.74
20
401.54
40
1
1
p22
0
TEXT
8
zhuji
10
346.16
20
413.04
40
1
1
p23
0
TEXT
8
zhuji
10
364.77
20
421.7
40
1
1
p24
0
TEXT
8
zhuji
10
380.5
20
411.85
40
1
1
p25
0
TEXT
8
zhuji
10
367.21
20
396.59
40
1
1
p26
0
TEXT
8
zhuji
10
350.32
20
383.89
40
1
1
p27
0
TEXT
8
zhuji
10
333.82
20
380.23
40
1
1
p28
0
TEXT
8
zhuji
10
319.59
20
418.13
40
1
1
p29
0
TEXT
8
zhuji
10
313.53
20
465.29
40
1
1
p30
0
TEXT
8
zhuji
10
310.32
20
431.93
40
1
1
p31
0
TEXT
8
zhuji
10
321.05
20
453.71
40
1
1
p32
0
TEXT
8
zhuji
10
369.23
20
488.54
40
1
1
p33
0
TEXT
8
zhuji
10
360.75
20
467.83
40
1
1
p34
0
TEXT
8
zhuji
10
394.87
20
411.07
40
1
1
p35
0
TEXT
8
zhuji
10
365.77
20
443.84
40
1
1
p36
0
TEXT
8
zhuji
10
310.25
20
435
40
1
1
p37
0
TEXT
8
zhuji
10
341.36
20
453.08
40
1
1
p38
0
TEXT
8
zhuji
10
398.02
20
469.76
40
1
1
p39
0
TEXT
8
zhuji
10
429.82
20
476.13
40
1
1
p40
0
TEXT
8
zhuji
10
419.7
20
496.63
40
1
1
p41
0
TEXT
8
zhuji
10
399.93
20
489.35
40
1
1
p42
0
TEXT
8
zhuji
10
387.16
20
486.32
40
1
1
p43
0
TEXT
8
zhuji
10
380.25
20
446.7
40
1
1
p44
0
TEXT
8
zhuji
10
403.78
20
441.56
40
1
1
p45
0
TEXT
8
zhuji
10
424.23
20
461.5
40
1
1
p46
0
TEXT
8
zhuji
10
436.93
20
500.6
40
1
1
p47
0
TEXT
8
zhuji
10
434.89
20
512.85
40
1
1
p48
0
TEXT
8
zhuji
10
490.01
20
502.89
40
1
1
p49
0
TEXT
8
zhuji
10
487.18
20
482.63
40
1
1
p50
0
TEXT
8
zhuji
10
469.49
20
490.83
40
1
1
p51
0
TEXT
8
zhuji
10
447.67
20
479.52
40
1
1
p52
0
TEXT
8
zhuji
10
458.98
20
505.1
40
1
1
p53
0
TEXT
8
zhuji
10
379.32
20
510.7
40
1
1
p54
0
TEXT
8
zhuji
10
463.79
20
529.14
40
1
1
p55
0
TEXT
8
zhuji
10
443.42
20
544.81
40
1
1
p56
0
TEXT
8
zhuji
10
426.29
20
552.09
40
1
1
p57
0
TEXT
8
zhuji
10
463.8
20
547.59
40
1
1
p58
0
TEXT
8
zhuji
10
487.08
20
539.39
40
1
1
p59
0
TEXT
8
zhuji
10
478.02
20
559.32
40
1
1
p60
0
TEXT
8
zhuji
10
458.23
20
579.49
40
1
1
p61
0
TEXT
8
zhuji
10
471.09
20
582.43
40
1
1
p62
0
TEXT
8
zhuji
10
461.84
20
593.28
40
1
1
p63
0
TEXT
8
zhuji
10
491.1
20
570.76
40
1
1
p64
0
TEXT
8
zhuji
10
502.61
20
564.67
40
1
1
p65
0
TEXT
8
zhuji
10
462.51
20
432.85
40
1
1
p66
0
TEXT
8
zhuji
10
435.86
20
443.92
40
1
1
p67
0
TEXT
8
zhuji
10
459.16
20
448.21
40
1
1
p68
0
TEXT
8
zhuji
10
439.84
20
422.14
40
1
1
p69
0
TEXT
8
zhuji
10
468.64
20
462.83
40
1
1
p70
0
TEXT
8
zhuji
10
475.39
20
441.54
40
1
1
p71
0
TEXT
8
zhuji
10
486.73
20
433.92
40
1
1
p72
0
TEXT
8
zhuji
10
499.75
20
443.87
40
1
1
p73
0
TEXT
8
zhuji
10
496.59
20
421.8
40
1
1
p74
0
TEXT
8
zhuji
10
474.23
20
412.55
40
1
1
p75
0
TEXT
8
zhuji
10
456.37
20
402.41
40
1
1
p76
0
TEXT
8
zhuji
10
484.67
20
404.98
40
1
1
p77
0
TEXT
8
zhuji
10
508.39
20
407.21
40
1
1
p78
0
TEXT
8
zhuji
10
492.92
20
389.51
40
1
1
p79
0
TEXT
8
zhuji
10
521.73
20
431.96
40
1
1
p80
0
TEXT
8
zhuji
10
520.57
20
412.92
40
1
1
p81
0
TEXT
8
zhuji
10
501.81
20
378.47
40
1
1
p82
0
TEXT
8
zhuji
10
492.85
20
362.02
40
1
1
p83
0
TEXT
8
zhuji
10
497.58
20
349.99
40
1
1
p84
0
TEXT
8
zhuji
10
483.82
20
345.82
40
1
1
p85
0
TEXT
8
zhuji
10
468.08
20
347.47
40
1
1
p86
0
TEXT
8
zhuji
10
518.57
20
354.64
40
1
1
p87
0
TEXT
8
zhuji
10
523.14
20
384.14
40
1
1
p88
0
TEXT
8
zhuji
10
535.09
20
415.4
40
1
1
p89
0
TEXT
8
zhuji
10
530.77
20
445.49
40
1
1
p90
0
TEXT
8
zhuji
10
491.46
20
462.16
40
1
1
p91
0
TEXT
8
zhuji
10
505.1
20
455.79
40
1
1
p92
0
TEXT
8
zhuji
10
516.64
20
500.63
40
1
1
p93
0
TEXT
8
zhuji
10
502.74
20
501.38
40
1
1
p94
0
TEXT
8
zhuji
10
510.9
20
484.85
40
1
1
p95
0
TEXT
8
zhuji
10
519.38
20
470.73
40
1
1
p96
0
TEXT
8
zhuji
10
531.46
20
471.65
40
1
1
p97
0
TEXT
8
zhuji
10
534.72
20
498.33
40
1
1
p98
0
TEXT
8
zhuji
10
527.08
20
523.89
40
1
1
p99
0
TEXT
8
zhuji
10
516.63
20
535.63
40
1
1
p100
0
TEXT
8
zhuji
10
428.95
20
324.38
40
1
1
p101
0
TEXT
8
zhuji
10
416.39
20
323.22
40
1
1
p102
0
TEXT
8
zhuji
10
397.14
20
588.41
40
1
1
p103
0
TEXT
8
zhuji
10
372.51
20
577.18
40
1
1
p104
0
TEXT
8
zhuji
10
378.36
20
600.18
40
1
1
p105
0
TEXT
8
zhuji
10
338.71
20
526.15
40
1
1
p106
0
TEXT
8
zhuji
10
405.9
20
580.86
40
1
1
p107
0
TEXT
8
zhuji
10
416.84
20
562.07
40
1
1
p108
0
TEXT
8
zhuji
10
399.71
20
541.34
40
1
1
p109
0
TEXT
8
zhuji
10
400.82
20
565.31
40
1
1
p110
0
TEXT
8
zhuji
10
385.7
20
514.51
40
1
1
p111
0
TEXT
8
zhuji
10
363.48
20
518.11
40
1
1
p112
0
TEXT
8
zhuji
10
346.28
20
536.64
40
1
1
p113
0
TEXT
8
zhuji
10
332.71
20
503.62
40
1
1
p114
0
TEXT
8
zhuji
10
347.97
20
502.15
40
1
1
p115
0
TEXT
8
zhuji
10
376.74
20
491.79
40
1
1
p116
0
TEXT
8
zhuji
10
371.64
20
508.44
40
1
1
p117
0
TEXT
8
zhuji
10
351.75
20
490.14
40
1
1
p118
0
TEXT
8
zhuji
10
505.67
20
546.66
40
1
1
p119
0
TEXT
8
zhuji
10
497.28
20
366.18
40
1
1
p120
0
TEXT
8
zhuji
10
428.06
20
439.8
40
1
1
p121
0
TEXT
8
zhuji
10
441.08
20
452.78
40
1
1
p122
0
TEXT
8
zhuji
10
371.57
20
458.02
40
1
1
p123
0
TEXT
8
zhuji
10
385.9
20
434.3
40
1
1
p124
0
TEXT
8
zhuji
10
404.54
20
396.61
40
1
1
p125
0
TEXT
8
zhuji
10
447.64
20
511.12
40
1
1
p126
0
POLYLINE
8
shiti
66
1
0
VERTEX
8
shiti
10
440.31
20
344.57
30
27.7945
0
VERTEX
8
shiti
10
426.62
20
359.06
30
31.225
0
VERTEX
8
shiti
10
425.53
20
348.04
30
27.416
0
VERTEX
8
shiti
10
440.31
20
344.57
30
27.7945
0
SEQEND
0
POLYLINE
8
shiti
66
1
0
VERTEX
8
shiti
10
454.84
20
352.89
30
28.4999
0
VERTEX
8
shiti
10
425.02
20
387.8
30
36.8774
0
VERTEX
8
shiti
10
426.62
20
359.06
30
31.225
0
VERTEX
8
shiti
10
454.84
20
352.89
30
28.4999
0
SEQEND
0
POLYLINE
8
shiti
66
1
0
VERTEX
8
shiti
10
454.84
20
352.89
30
28.4999
0
VERTEX
8
shiti
10
426.62
20
359.06
30
31.225
0
VERTEX
8
shiti
10
440.31
20
344.57
30
27.7945
0
VERTEX
8
shiti
10
454.84
20
352.89
30
28.4999
0
SEQEND
0
POLYLINE
8
shiti
66
1
0
VERTEX
8
shiti
10
442.45
20
402.88
30
37.951
0
VERTEX
8
shiti
10
421.88
20
414.28
30
39.555
0
VERTEX
8
shiti
10
425.02
20
387.8
30
36.8774
0
VERTEX
8
shiti
10
442.45
20
402.88
30
37.951
0
SEQEND
0
POLYLINE
8
shiti
66
1
0
VERTEX
8
shiti
10
442.45
20
402.88
30
37.951
0
VERTEX
8
shiti
10
425.02
20
387.8
30
36.8774
0
VERTEX
8
shiti
10
454.84
20
352.89
30
28.4999
0
VERTEX
8
shiti
10
442.45
20
402.88
30
37.951
0
SEQEND
0
POLYLINE
8
shiti
66
1
0
VERTEX
8
shiti
10
376.62
20
358.59
30
29.223
0
VERTEX
8
shiti
10
387.57
20
358.85
30
29.426
0
VERTEX
8
shiti
10
393.86
20
393.47
30
32.5395
0
VERTEX
8
shiti
10
376.62
20
358.59
30
29.223
0
SEQEND
0
POLYLINE
8
shiti
66
1
0
VERTEX
8
shiti
10
340.89
20
362.8
30
26.8212
0
VERTEX
8
shiti
10
364.21
20
348.66
30
28.2538
0
VERTEX
8
shiti
10
376.62
20
358.59
30
29.223
0
VERTEX
8
shiti
10
340.89
20
362.8
30
26.8212
0
SEQEND
0
POLYLINE
8
shiti
66
1
0
VERTEX
8
shiti
10
347.62
20
335.73
30
26.2299
0
VERTEX
8
shiti
10
364.21
20
348.66
30
28.2538
0
VERTEX
8
shiti
10
340.89
20
362.8
30
26.8212
0
VERTEX
8
shiti
10
347.62
20
335.73
30
26.2299
0
SEQEND
0
POLYLINE
8
shiti
66
1
0
VERTEX
8
shiti
10
362.69
20
331.84
30
26.6612
0
VERTEX
8
shiti
10
364.21
20
348.66
30
28.2538
0
VERTEX
8
shiti
10
347.62
20
335.73
30
26.2299
0
VERTEX
8
shiti
10
362.69
20
331.84
30
26.6612
0
SEQEND
0
POLYLINE
8
shiti
66
1
0
VERTEX
8
shiti
10
402.35
20
351.82
30
28.4848
0
VERTEX
8
shiti
10
426.62
20
359.06
30
31.225
0
VERTEX
8
shiti
10
425.02
20
387.8
30
36.8774
0
VERTEX
8
shiti
10
402.35
20
351.82
30
28.4848
0
SEQEND
0
POLYLINE
8
shiti
66
1
0
VERTEX
8
shiti
10
402.35
20
351.82
30
28.4848
0
VERTEX
8
shiti
10
425.02
20
387.8
30
36.8774
0
VERTEX
8
shiti
10
393.86
20
393.47
30
32.5395
0
VERTEX
8
shiti
10
402.35
20
351.82
30
28.4848
0
SEQEND
0
POLYLINE
8
shiti
66
1
0
VERTEX
8
shiti
10
402.35
20
351.82
30
28.4848
0
VERTEX
8
shiti
10
393.86
20
393.47
30
32.5395
0
VERTEX
8
shiti
10
387.57
20
358.85
30
29.426
0
VERTEX
8
shiti
10
402.35
20
351.82
30
28.4848
0
SEQEND
0
POLYLINE
8
shiti
66
1
0
VERTEX
8
shiti
10
402.35
20
351.82
30
28.4848
0
VERTEX
8
shiti
10
425.53
20
348.04
30
27.416
0
VERTEX
8
shiti
10
426.62
20
359.06
30
31.225
0
VERTEX
8
shiti
10
402.35
20
351.82
30
28.4848
0
SEQEND
0
POLYLINE
8
shiti
66
1
0
VERTEX
8
shiti
10
399.61
20
335.09
30
26.6922
0
VERTEX
8
shiti
10
425.53
20
348.04
30
27.416
0
VERTEX
8
shiti
10
402.35
20
351.82
30
28.4848
0
VERTEX
8
shiti
10
399.61
20
335.09
30
26.6922
0
SEQEND
0
POLYLINE
8
shiti
66
1
0
VERTEX
8
shiti
10
399.61
20
335.09
30
26.6922
0
VERTEX
8
shiti
10
402.35
20
351.82
30
28.4848
0
VERTEX
8
shiti
10
387.57
20
358.85
30
29.426
0
VERTEX
8
shiti
10
399.61
20
335.09
30
26.6922
0
SEQEND
0
POLYLINE
8
shiti
66
1
0
VERTEX
8
shiti
10
333.34
20
331.15
30
24.6894
0
VERTEX
8
shiti
10
362.69
20
331.84
30
26.6612
0
VERTEX
8
shiti
10
347.62
20
335.73
30
26.2299
0
VERTEX
8
shiti
10
333.34
20
331.15
30
24.6894
0
SEQEND
0
POLYLINE
8
shiti
66
1
0
VERTEX
8
shiti
10
322.26
20
344.1
30
24.3684
0
VERTEX
8
shiti
10
333.34
20
331.15
30
24.6894
0
VERTEX
8
shiti
10
347.62
20
335.73
30
26.2299
0
VERTEX
8
shiti
10
322.26
20
344.1
30
24.3684
0
SEQEND
0
POLYLINE
8
shiti
66
1
0
VERTEX
8
shiti
10
322.26
20
344.1
30
24.3684
0
VERTEX
8
shiti
10
347.62
20
335.73
30
26.2299
0
VERTEX
8
shiti
10
340.89
20
362.8
30
26.8212
0
VERTEX
8
shiti
10
322.26
20
344.1
30
24.3684
0
SEQEND
0
POLYLINE
8
shiti
66
1
0
VERTEX
8
shiti
10
381.66
20
326.8
30
26.7581
0
VERTEX
8
shiti
10
399.61
20
335.09
30
26.6922
0
VERTEX
8
shiti
10
387.57
20
358.85
30
29.426
0
VERTEX
8
shiti
10
381.66
20
326.8
30
26.7581
0
SEQEND
0
POLYLINE
8
shiti
66
1
0
VERTEX
8
shiti
10
381.66
20
326.8
30
26.7581
0
VERTEX
8
shiti
10
387.57
20
358.85
30
29.426
0
VERTEX
8
shiti
10
376.62
20
358.59
30
29.223
0
VERTEX
8
shiti
10
381.66
20
326.8
30
26.7581
0
SEQEND
0
POLYLINE
8
shiti
66
1
0
VERTEX
8
shiti
10
381.66
20
326.8
30
26.7581
0
VERTEX
8
shiti
10
376.62
20
358.59
30
29.223
0
VERTEX
8
shiti
10
364.21
20
348.66
30
28.2538
0
VERTEX
8
shiti
10
381.66
20
326.8
30
26.7581
0
SEQEND
0
POLYLINE
8
shiti
66
1
0
VERTEX
8
shiti
10
381.66
20
326.8
30
26.7581
0
VERTEX
8
shiti
10
364.21
20
348.66
30
28.2538
0
VERTEX
8
shiti
10
362.69
20
331.84
30
26.6612
0
VERTEX
8
shiti
10
381.66
20
326.8
30
26.7581
0
SEQEND
0
POLYLINE
8
shiti
66
1
0
VERTEX
8
shiti
10
381.66
20
326.8
30
26.7581
0
VERTEX
8
shiti
10
362.69
20
331.84
30
26.6612
0
VERTEX
8
shiti
10
333.34
20
331.15
30
24.6894
0
VERTEX
8
shiti
10
381.66
20
326.8
30
26.7581
0
SEQEND
0
POLYLINE
8
shiti
66
1
0
VERTEX
8
shiti
10
317.25
20
372.7
30
25.8215
0
VERTEX
8
shiti
10
322.26
20
344.1
30
24.3684
0
VERTEX
8
shiti
10
340.89
20
362.8
30
26.8212
0
VERTEX
8
shiti
10
317.25
20
372.7
30
25.8215
0
SEQEND
0
POLYLINE
8
shiti
66
1
0
VERTEX
8
shiti
10
313.74
20
404.54
30
26.9055
0
VERTEX
8
shiti
10
317.25
20
372.7
30
25.8215
0
VERTEX
8
shiti
10
331.42
20
396.59
30
28.7137
0
VERTEX
8
shiti
10
313.74
20
404.54
30
26.9055
0
SEQEND
0
POLYLINE
8
shiti
66
1
0
VERTEX
8
shiti
10
370.21
20
399.59
30
32.5866
0
VERTEX
8
shiti
10
376.62
20
358.59
30
29.223
0
VERTEX
8
shiti
10
393.86
20
393.47
30
32.5395
0
VERTEX
8
shiti
10
370.21
20
399.59
30
32.5866
0
SEQEND
0
POLYLINE
8
shiti
66
1
0
VERTEX
8
shiti
10
370.21
20
399.59
30
32.5866
0
VERTEX
8
shiti
10
383.5
20
414.85
30
37.4818
0
VERTEX
8
shiti
10
367.77
20
424.7
30
34.8919
0
VERTEX
8
shiti
10
370.21
20
399.59
30
32.5866
0
SEQEND
0
POLYLINE
8
shiti
66
1
0
VERTEX
8
shiti
10
370.21
20
399.59
30
32.5866
0
VERTEX
8
shiti
10
367.77
20
424.7
30
34.8919
0
VERTEX
8
shiti
10
349.16
20
416.04
30
31.7509
0
VERTEX
8
shiti
10
370.21
20
399.59
30
32.5866
0
SEQEND
0
POLYLINE
8
shiti
66
1
0
VERTEX
8
shiti
10
370.21
20
399.59
30
32.5866
0
VERTEX
8
shiti
10
393.86
20
393.47
30
32.5395
0
VERTEX
8
shiti
10
383.5
20
414.85
30
37.4818
0
VERTEX
8
shiti
10
370.21
20
399.59
30
32.5866
0
SEQEND
0
POLYLINE
8
shiti
66
1
0
VERTEX
8
shiti
10
353.32
20
386.89
30
30.5459
0
VERTEX
8
shiti
10
370.21
20
399.59
30
32.5866
0
VERTEX
8
shiti
10
349.16
20
416.04
30
31.7509
0
VERTEX
8
shiti
10
353.32
20
386.89
30
30.5459
0
SEQEND
0
POLYLINE
8
shiti
66
1
0
VERTEX
8
shiti
10
353.32
20
386.89
30
30.5459
0
VERTEX
8
shiti
10
349.16
20
416.04
30
31.7509
0
VERTEX
8
shiti
10
331.42
20
396.59
30
28.7137
0
VERTEX
8
shiti
10
353.32
20
386.89
30
30.5459
0
SEQEND
0
POLYLINE
8
shiti
66
1
0
VERTEX
8
shiti
10
353.32
20
386.89
30
30.5459
0
VERTEX
8
shiti
10
340.89
20
362.8
30
26.8212
0
VERTEX
8
shiti
10
376.62
20
358.59
30
29.223
0
VERTEX
8
shiti
10
353.32
20
386.89
30
30.5459
0
SEQEND
0
POLYLINE
8
shiti
66
1
0
VERTEX
8
shiti
10
353.32
20
386.89
30
30.5459
0
VERTEX
8
shiti
10
376.62
20
358.59
30
29.223
0
VERTEX
8
shiti
10
370.21
20
399.59
30
32.5866
0
VERTEX
8
shiti
10
353.32
20
386.89
30
30.5459
0
SEQEND
0
POLYLINE
8
shiti
66
1
0
VERTEX
8
shiti
10
336.82
20
383.23
30
29.2504
0
VERTEX
8
shiti
10
317.25
20
372.7
30
25.8215
0
VERTEX
8
shiti
10
340.89
20
362.8
30
26.8212
0
VERTEX
8
shiti
10
336.82
20
383.23
30
29.2504
0
SEQEND
0
POLYLINE
8
shiti
66
1
0
VERTEX
8
shiti
10
336.82
20
383.23
30
29.2504
0
VERTEX
8
shiti
10
331.42
20
396.59
30
28.7137
0
VERTEX
8
shiti
10
317.25
20
372.7
30
25.8215
0
VERTEX
8
shiti
10
336.82
20
383.23
30
29.2504
0
SEQEND
0
POLYLINE
8
shiti
66
1
0
VERTEX
8
shiti
10
336.82
20
383.23
30
29.2504
0
VERTEX
8
shiti
10
353.32
20
386.89
30
30.5459
0
VERTEX
8
shiti
10
331.42
20
396.59
30
28.7137
0
VERTEX
8
shiti
10
336.82
20
383.23
30
29.2504
0
SEQEND
0
POLYLINE
8
shiti
66
1
0
VERTEX
8
shiti
10
336.82
20
383.23
30
29.2504
0
VERTEX
8
shiti
10
340.89
20
362.8
30
26.8212
0
VERTEX
8
shiti
10
353.32
20
386.89
30
30.5459
0
VERTEX
8
shiti
10
336.82
20
383.23
30
29.2504
0
SEQEND
0
POLYLINE
8
shiti
66
1
0
VERTEX
8
shiti
10
322.59
20
421.13
30
27.7593
0
VERTEX
8
shiti
10
313.74
20
404.54
30
26.9055
0
VERTEX
8
shiti
10
331.42
20
396.59
30
28.7137
0
VERTEX
8
shiti
10
322.59
20
421.13
30
27.7593
0
SEQEND
0
POLYLINE
8
shiti
66
1
0
VERTEX
8
shiti
10
322.59
20
421.13
30
27.7593
0
VERTEX
8
shiti
10
331.42
20
396.59
30
28.7137
0
VERTEX
8
shiti
10
349.16
20
416.04
30
31.7509
0
VERTEX
8
shiti
10
322.59
20
421.13
30
27.7593
0
SEQEND
0
POLYLINE
8
shiti
66
1
0
VERTEX
8
shiti
10
313.32
20
434.93
30
26.5662
0
VERTEX
8
shiti
10
313.74
20
404.54
30
26.9055
0
VERTEX
8
shiti
10
322.59
20
421.13
30
27.7593
0
VERTEX
8
shiti
10
313.32
20
434.93
30
26.5662
0
SEQEND
0
POLYLINE
8
shiti
66
1
0
VERTEX
8
shiti
10
397.87
20
414.07
30
39.5041
0
VERTEX
8
shiti
10
383.5
20
414.85
30
37.4818
0
VERTEX
8
shiti
10
393.86
20
393.47
30
32.5395
0
VERTEX
8
shiti
10
397.87
20
414.07
30
39.5041
0
SEQEND
0
POLYLINE
8
shiti
66
1
0
VERTEX
8
shiti
10
368.77
20
446.84
30
34.5865
0
VERTEX
8
shiti
10
349.16
20
416.04
30
31.7509
0
VERTEX
8
shiti
10
367.77
20
424.7
30
34.8919
0
VERTEX
8
shiti
10
368.77
20
446.84
30
34.5865
0
SEQEND
0
POLYLINE
8
shiti
66
1
0
VERTEX
8
shiti
10
313.25
20
438
30
30.1398
0
VERTEX
8
shiti
10
313.32
20
434.93
30
26.5662
0
VERTEX
8
shiti
10
322.59
20
421.13
30
27.7593
0
VERTEX
8
shiti
10
313.25
20
438
30
30.1398
0
SEQEND
0
POLYLINE
8
shiti
66
1
0
VERTEX
8
shiti
10
313.25
20
438
30
30.1398
0
VERTEX
8
shiti
10
324.05
20
456.71
30
28.8742
0
VERTEX
8
shiti
10
316.53
20
468.29
30
27.0276
0
VERTEX
8
shiti
10
313.25
20
438
30
30.1398
0
SEQEND
0
POLYLINE
8
shiti
66
1
0
VERTEX
8
shiti
10
344.36
20
456.08
30
30.1871
0
VERTEX
8
shiti
10
322.59
20
421.13
30
27.7593
0
VERTEX
8
shiti
10
349.16
20
416.04
30
31.7509
0
VERTEX
8
shiti
10
344.36
20
456.08
30
30.1871
0
SEQEND
0
POLYLINE
8
shiti
66
1
0
VERTEX
8
shiti
10
344.36
20
456.08
30
30.1871
0
VERTEX
8
shiti
10
316.53
20
468.29
30
27.0276
0
VERTEX
8
shiti
10
324.05
20
456.71
30
28.8742
0
VERTEX
8
shiti
10
344.36
20
456.08
30
30.1871
0
SEQEND
0
POLYLINE
8
shiti
66
1
0
VERTEX
8
shiti
10
344.36
20
456.08
30
30.1871
0
VERTEX
8
shiti
10
349.16
20
416.04
30
31.7509
0
VERTEX
8
shiti
10
368.77
20
446.84
30
34.5865
0
VERTEX
8
shiti
10
344.36
20
456.08
30
30.1871
0
SEQEND
0
POLYLINE
8
shiti
66
1
0
VERTEX
8
shiti
10
344.36
20
456.08
30
30.1871
0
VERTEX
8
shiti
10
368.77
20
446.84
30
34.5865
0
VERTEX
8
shiti
10
363.75
20
470.83
30
32.6194
0
VERTEX
8
shiti
10
344.36
20
456.08
30
30.1871
0
SEQEND
0
POLYLINE
8
shiti
66
1
0
VERTEX
8
shiti
10
344.36
20
456.08
30
30.1871
0
VERTEX
8
shiti
10
313.25
20
438
30
30.1398
0
VERTEX
8
shiti
10
322.59
20
421.13
30
27.7593
0
VERTEX
8
shiti
10
344.36
20
456.08
30
30.1871
0
SEQEND
0
POLYLINE
8
shiti
66
1
0
VERTEX
8
shiti
10
344.36
20
456.08
30
30.1871
0
VERTEX
8
shiti
10
324.05
20
456.71
30
28.8742
0
VERTEX
8
shiti
10
313.25
20
438
30
30.1398
0
VERTEX
8
shiti
10
344.36
20
456.08
30
30.1871
0
SEQEND
0
POLYLINE
8
shiti
66
1
0
VERTEX
8
shiti
10
402.93
20
492.35
30
37.9286
0
VERTEX
8
shiti
10
401.02
20
472.76
30
38.5963
0
VERTEX
8
shiti
10
432.82
20
479.13
30
42.3405
0
VERTEX
8
shiti
10
402.93
20
492.35
30
37.9286
0
SEQEND
0
POLYLINE
8
shiti
66
1
0
VERTEX
8
shiti
10
402.93
20
492.35
30
37.9286
0
VERTEX
8
shiti
10
432.82
20
479.13
30
42.3405
0
VERTEX
8
shiti
10
422.7
20
499.63
30
40.7577
0
VERTEX
8
shiti
10
402.93
20
492.35
30
37.9286
0
SEQEND
0
POLYLINE
8
shiti
66
1
0
VERTEX
8
shiti
10
390.16
20
489.32
30
36.34
0
VERTEX
8
shiti
10
401.02
20
472.76
30
38.5963
0
VERTEX
8
shiti
10
402.93
20
492.35
30
37.9286
0
VERTEX
8
shiti
10
390.16
20
489.32
30
36.34
0
SEQEND
0
POLYLINE
8
shiti
66
1
0
VERTEX
8
shiti
10
406.78
20
444.56
30
41.6945
0
VERTEX
8
shiti
10
397.87
20
414.07
30
39.5041
0
VERTEX
8
shiti
10
421.88
20
414.28
30
39.555
0
VERTEX
8
shiti
10
406.78
20
444.56
30
41.6945
0
SEQEND
0
POLYLINE
8
shiti
66
1
0
VERTEX
8
shiti
10
406.78
20
444.56
30
41.6945
0
VERTEX
8
shiti
10
401.02
20
472.76
30
38.5963
0
VERTEX
8
shiti
10
383.25
20
449.7
30
36.9367
0
VERTEX
8
shiti
10
406.78
20
444.56
30
41.6945
0
SEQEND
0
POLYLINE
8
shiti
66
1
0
VERTEX
8
shiti
10
427.23
20
464.5
30
43.5075
0
VERTEX
8
shiti
10
432.82
20
479.13
30
42.3405
0
VERTEX
8
shiti
10
401.02
20
472.76
30
38.5963
0
VERTEX
8
shiti
10
427.23
20
464.5
30
43.5075
0
SEQEND
0
POLYLINE
8
shiti
66
1
0
VERTEX
8
shiti
10
427.23
20
464.5
30
43.5075
0
VERTEX
8
shiti
10
401.02
20
472.76
30
38.5963
0
VERTEX
8
shiti
10
406.78
20
444.56
30
41.6945
0
VERTEX
8
shiti
10
427.23
20
464.5
30
43.5075
0
SEQEND
0
POLYLINE
8
shiti
66
1
0
VERTEX
8
shiti
10
439.93
20
503.6
30
41.0365
0
VERTEX
8
shiti
10
422.7
20
499.63
30
40.7577
0
VERTEX
8
shiti
10
432.82
20
479.13
30
42.3405
0
VERTEX
8
shiti
10
439.93
20
503.6
30
41.0365
0
SEQEND
0
POLYLINE
8
shiti
66
1
0
VERTEX
8
shiti
10
437.89
20
515.85
30
39.9929
0
VERTEX
8
shiti
10
422.7
20
499.63
30
40.7577
0
VERTEX
8
shiti
10
439.93
20
503.6
30
41.0365
0
VERTEX
8
shiti
10
437.89
20
515.85
30
39.9929
0
SEQEND
0
POLYLINE
8
shiti
66
1
0
VERTEX
8
shiti
10
472.49
20
493.83
30
39.8801
0
VERTEX
8
shiti
10
490.18
20
485.63
30
36.4479
0
VERTEX
8
shiti
10
493.01
20
505.89
30
33.8673
0
VERTEX
8
shiti
10
472.49
20
493.83
30
39.8801
0
SEQEND
0
POLYLINE
8
shiti
66
1
0
VERTEX
8
shiti
10
450.67
20
482.52
30
42.3327
0
VERTEX
8
shiti
10
439.93
20
503.6
30
41.0365
0
VERTEX
8
shiti
10
432.82
20
479.13
30
42.3405
0
VERTEX
8
shiti
10
450.67
20
482.52
30
42.3327
0
SEQEND
0
POLYLINE
8
shiti
66
1
0
VERTEX
8
shiti
10
461.98
20
508.1
30
40.2172
0
VERTEX
8
shiti
10
472.49
20
493.83
30
39.8801
0
VERTEX
8
shiti
10
493.01
20
505.89
30
33.8673
0
VERTEX
8
shiti
10
461.98
20
508.1
30
40.2172
0
SEQEND
0
POLYLINE
8
shiti
66
1
0
VERTEX
8
shiti
10
461.98
20
508.1
30
40.2172
0
VERTEX
8
shiti
10
450.67
20
482.52
30
42.3327
0
VERTEX
8
shiti
10
472.49
20
493.83
30
39.8801
0
VERTEX
8
shiti
10
461.98
20
508.1
30
40.2172
0
SEQEND
0
POLYLINE
8
shiti
66
1
0
VERTEX
8
shiti
10
461.98
20
508.1
30
40.2172
0
VERTEX
8
shiti
10
439.93
20
503.6
30
41.0365
0
VERTEX
8
shiti
10
450.67
20
482.52
30
42.3327
0
VERTEX
8
shiti
10
461.98
20
508.1
30
40.2172
0
SEQEND
0
POLYLINE
8
shiti
66
1
0
VERTEX
8
shiti
10
466.79
20
532.14
30
37.7726
0
VERTEX
8
shiti
10
461.98
20
508.1
30
40.2172
0
VERTEX
8
shiti
10
493.01
20
505.89
30
33.8673
0
VERTEX
8
shiti
10
466.79
20
532.14
30
37.7726
0
SEQEND
0
POLYLINE
8
shiti
66
1
0
VERTEX
8
shiti
10
429.29
20
555.09
30
37.5484
0
VERTEX
8
shiti
10
437.89
20
515.85
30
39.9929
0
VERTEX
8
shiti
10
446.42
20
547.81
30
38.3385
0
VERTEX
8
shiti
10
429.29
20
555.09
30
37.5484
0
SEQEND
0
POLYLINE
8
shiti
66
1
0
VERTEX
8
shiti
10
466.8
20
550.59
30
37.233
0
VERTEX
8
shiti
10
446.42
20
547.81
30
38.3385
0
VERTEX
8
shiti
10
466.79
20
532.14
30
37.7726
0
VERTEX
8
shiti
10
466.8
20
550.59
30
37.233
0
SEQEND
0
POLYLINE
8
shiti
66
1
0
VERTEX
8
shiti
10
490.08
20
542.39
30
33.8351
0
VERTEX
8
shiti
10
466.8
20
550.59
30
37.233
0
VERTEX
8
shiti
10
466.79
20
532.14
30
37.7726
0
VERTEX
8
shiti
10
490.08
20
542.39
30
33.8351
0
SEQEND
0
POLYLINE
8
shiti
66
1
0
VERTEX
8
shiti
10
490.08
20
542.39
30
33.8351
0
VERTEX
8
shiti
10
466.79
20
532.14
30
37.7726
0
VERTEX
8
shiti
10
493.01
20
505.89
30
33.8673
0
VERTEX
8
shiti
10
490.08
20
542.39
30
33.8351
0
SEQEND
0
POLYLINE
8
shiti
66
1
0
VERTEX
8
shiti
10
481.02
20
562.32
30
34.4659
0
VERTEX
8
shiti
10
466.8
20
550.59
30
37.233
0
VERTEX
8
shiti
10
490.08
20
542.39
30
33.8351
0
VERTEX
8
shiti
10
481.02
20
562.32
30
34.4659
0
SEQEND
0
POLYLINE
8
shiti
66
1
0
VERTEX
8
shiti
10
461.23
20
582.49
30
34.1418
0
VERTEX
8
shiti
10
429.29
20
555.09
30
37.5484
0
VERTEX
8
shiti
10
446.42
20
547.81
30
38.3385
0
VERTEX
8
shiti
10
461.23
20
582.49
30
34.1418
0
SEQEND
0
POLYLINE
8
shiti
66
1
0
VERTEX
8
shiti
10
461.23
20
582.49
30
34.1418
0
VERTEX
8
shiti
10
446.42
20
547.81
30
38.3385
0
VERTEX
8
shiti
10
466.8
20
550.59
30
37.233
0
VERTEX
8
shiti
10
461.23
20
582.49
30
34.1418
0
SEQEND
0
POLYLINE
8
shiti
66
1
0
VERTEX
8
shiti
10
461.23
20
582.49
30
34.1418
0
VERTEX
8
shiti
10
466.8
20
550.59
30
37.233
0
VERTEX
8
shiti
10
481.02
20
562.32
30
34.4659
0
VERTEX
8
shiti
10
461.23
20
582.49
30
34.1418
0
SEQEND
0
POLYLINE
8
shiti
66
1
0
VERTEX
8
shiti
10
474.09
20
585.43
30
32.5303
0
VERTEX
8
shiti
10
461.23
20
582.49
30
34.1418
0
VERTEX
8
shiti
10
481.02
20
562.32
30
34.4659
0
VERTEX
8
shiti
10
474.09
20
585.43
30
32.5303
0
SEQEND
0
POLYLINE
8
shiti
66
1
0
VERTEX
8
shiti
10
464.84
20
596.28
30
31.7542
0
VERTEX
8
shiti
10
461.23
20
582.49
30
34.1418
0
VERTEX
8
shiti
10
474.09
20
585.43
30
32.5303
0
VERTEX
8
shiti
10
464.84
20
596.28
30
31.7542
0
SEQEND
0
POLYLINE
8
shiti
66
1
0
VERTEX
8
shiti
10
494.1
20
573.76
30
31.3335
0
VERTEX
8
shiti
10
474.09
20
585.43
30
32.5303
0
VERTEX
8
shiti
10
481.02
20
562.32
30
34.4659
0
VERTEX
8
shiti
10
494.1
20
573.76
30
31.3335
0
SEQEND
0
POLYLINE
8
shiti
66
1
0
VERTEX
8
shiti
10
505.61
20
567.67
30
29.5076
0
VERTEX
8
shiti
10
494.1
20
573.76
30
31.3335
0
VERTEX
8
shiti
10
481.02
20
562.32
30
34.4659
0
VERTEX
8
shiti
10
505.61
20
567.67
30
29.5076
0
SEQEND
0
POLYLINE
8
shiti
66
1
0
VERTEX
8
shiti
10
505.61
20
567.67
30
29.5076
0
VERTEX
8
shiti
10
481.02
20
562.32
30
34.4659
0
VERTEX
8
shiti
10
490.08
20
542.39
30
33.8351
0
VERTEX
8
shiti
10
505.61
20
567.67
30
29.5076
0
SEQEND
0
POLYLINE
8
shiti
66
1
0
VERTEX
8
shiti
10
462.16
20
451.21
30
42.1787
0
VERTEX
8
shiti
10
438.86
20
446.92
30
43.5085
0
VERTEX
8
shiti
10
465.51
20
435.85
30
40.6101
0
VERTEX
8
shiti
10
462.16
20
451.21
30
42.1787
0
SEQEND
0
POLYLINE
8
shiti
66
1
0
VERTEX
8
shiti
10
442.84
20
425.14
30
42.2289
0
VERTEX
8
shiti
10
421.88
20
414.28
30
39.555
0
VERTEX
8
shiti
10
442.45
20
402.88
30
37.951
0
VERTEX
8
shiti
10
442.84
20
425.14
30
42.2289
0
SEQEND
0
POLYLINE
8
shiti
66
1
0
VERTEX
8
shiti
10
442.84
20
425.14
30
42.2289
0
VERTEX
8
shiti
10
465.51
20
435.85
30
40.6101
0
VERTEX
8
shiti
10
438.86
20
446.92
30
43.5085
0
VERTEX
8
shiti
10
442.84
20
425.14
30
42.2289
0
SEQEND
0
POLYLINE
8
shiti
66
1
0
VERTEX
8
shiti
10
471.64
20
465.83
30
41.4353
0
VERTEX
8
shiti
10
490.18
20
485.63
30
36.4479
0
VERTEX
8
shiti
10
472.49
20
493.83
30
39.8801
0
VERTEX
8
shiti
10
471.64
20
465.83
30
41.4353
0
SEQEND
0
POLYLINE
8
shiti
66
1
0
VERTEX
8
shiti
10
471.64
20
465.83
30
41.4353
0
VERTEX
8
shiti
10
472.49
20
493.83
30
39.8801
0
VERTEX
8
shiti
10
450.67
20
482.52
30
42.3327
0
VERTEX
8
shiti
10
471.64
20
465.83
30
41.4353
0
SEQEND
0
POLYLINE
8
shiti
66
1
0
VERTEX
8
shiti
10
478.39
20
444.54
30
39.4434
0
VERTEX
8
shiti
10
471.64
20
465.83
30
41.4353
0
VERTEX
8
shiti
10
462.16
20
451.21
30
42.1787
0
VERTEX
8
shiti
10
478.39
20
444.54
30
39.4434
0
SEQEND
0
POLYLINE
8
shiti
66
1
0
VERTEX
8
shiti
10
478.39
20
444.54
30
39.4434
0
VERTEX
8
shiti
10
462.16
20
451.21
30
42.1787
0
VERTEX
8
shiti
10
465.51
20
435.85
30
40.6101
0
VERTEX
8
shiti
10
478.39
20
444.54
30
39.4434
0
SEQEND
0
POLYLINE
8
shiti
66
1
0
VERTEX
8
shiti
10
489.73
20
436.92
30
35.15
0
VERTEX
8
shiti
10
478.39
20
444.54
30
39.4434
0
VERTEX
8
shiti
10
465.51
20
435.85
30
40.6101
0
VERTEX
8
shiti
10
489.73
20
436.92
30
35.15
0
SEQEND
0
POLYLINE
8
shiti
66
1
0
VERTEX
8
shiti
10
502.75
20
446.87
30
32.0204
0
VERTEX
8
shiti
10
478.39
20
444.54
30
39.4434
0
VERTEX
8
shiti
10
489.73
20
436.92
30
35.15
0
VERTEX
8
shiti
10
502.75
20
446.87
30
32.0204
0
SEQEND
0
POLYLINE
8
shiti
66
1
0
VERTEX
8
shiti
10
499.59
20
424.8
30
31.1902
0
VERTEX
8
shiti
10
502.75
20
446.87
30
32.0204
0
VERTEX
8
shiti
10
489.73
20
436.92
30
35.15
0
VERTEX
8
shiti
10
499.59
20
424.8
30
31.1902
0
SEQEND
0
POLYLINE
8
shiti
66
1
0
VERTEX
8
shiti
10
477.23
20
415.55
30
36.1728
0
VERTEX
8
shiti
10
499.59
20
424.8
30
31.1902
0
VERTEX
8
shiti
10
489.73
20
436.92
30
35.15
0
VERTEX
8
shiti
10
477.23
20
415.55
30
36.1728
0
SEQEND
0
POLYLINE
8
shiti
66
1
0
VERTEX
8
shiti
10
477.23
20
415.55
30
36.1728
0
VERTEX
8
shiti
10
489.73
20
436.92
30
35.15
0
VERTEX
8
shiti
10
465.51
20
435.85
30
40.6101
0
VERTEX
8
shiti
10
477.23
20
415.55
30
36.1728
0
SEQEND
0
POLYLINE
8
shiti
66
1
0
VERTEX
8
shiti
10
459.37
20
405.41
30
36.2749
0
VERTEX
8
shiti
10
442.84
20
425.14
30
42.2289
0
VERTEX
8
shiti
10
442.45
20
402.88
30
37.951
0
VERTEX
8
shiti
10
459.37
20
405.41
30
36.2749
0
SEQEND
0
POLYLINE
8
shiti
66
1
0
VERTEX
8
shiti
10
459.37
20
405.41
30
36.2749
0
VERTEX
8
shiti
10
477.23
20
415.55
30
36.1728
0
VERTEX
8
shiti
10
465.51
20
435.85
30
40.6101
0
VERTEX
8
shiti
10
459.37
20
405.41
30
36.2749
0
SEQEND
0
POLYLINE
8
shiti
66
1
0
VERTEX
8
shiti
10
459.37
20
405.41
30
36.2749
0
VERTEX
8
shiti
10
465.51
20
435.85
30
40.6101
0
VERTEX
8
shiti
10
442.84
20
425.14
30
42.2289
0
VERTEX
8
shiti
10
459.37
20
405.41
30
36.2749
0
SEQEND
0
POLYLINE
8
shiti
66
1
0
VERTEX
8
shiti
10
459.37
20
405.41
30
36.2749
0
VERTEX
8
shiti
10
442.45
20
402.88
30
37.951
0
VERTEX
8
shiti
10
454.84
20
352.89
30
28.4999
0
VERTEX
8
shiti
10
459.37
20
405.41
30
36.2749
0
SEQEND
0
POLYLINE
8
shiti
66
1
0
VERTEX
8
shiti
10
487.67
20
407.98
30
31.2808
0
VERTEX
8
shiti
10
499.59
20
424.8
30
31.1902
0
VERTEX
8
shiti
10
477.23
20
415.55
30
36.1728
0
VERTEX
8
shiti
10
487.67
20
407.98
30
31.2808
0
SEQEND
0
POLYLINE
8
shiti
66
1
0
VERTEX
8
shiti
10
487.67
20
407.98
30
31.2808
0
VERTEX
8
shiti
10
477.23
20
415.55
30
36.1728
0
VERTEX
8
shiti
10
459.37
20
405.41
30
36.2749
0
VERTEX
8
shiti
10
487.67
20
407.98
30
31.2808
0
SEQEND
0
POLYLINE
8
shiti
66
1
0
VERTEX
8
shiti
10
511.39
20
410.21
30
29.09
0
VERTEX
8
shiti
10
499.59
20
424.8
30
31.1902
0
VERTEX
8
shiti
10
487.67
20
407.98
30
31.2808
0
VERTEX
8
shiti
10
511.39
20
410.21
30
29.09
0
SEQEND
0
POLYLINE
8
shiti
66
1
0
VERTEX
8
shiti
10
495.92
20
392.51
30
29.1024
0
VERTEX
8
shiti
10
487.67
20
407.98
30
31.2808
0
VERTEX
8
shiti
10
459.37
20
405.41
30
36.2749
0
VERTEX
8
shiti
10
495.92
20
392.51
30
29.1024
0
SEQEND
0
POLYLINE
8
shiti
66
1
0
VERTEX
8
shiti
10
495.92
20
392.51
30
29.1024
0
VERTEX
8
shiti
10
511.39
20
410.21
30
29.09
0
VERTEX
8
shiti
10
487.67
20
407.98
30
31.2808
0
VERTEX
8
shiti
10
495.92
20
392.51
30
29.1024
0
SEQEND
0
POLYLINE
8
shiti
66
1
0
VERTEX
8
shiti
10
524.73
20
434.96
30
28.8913
0
VERTEX
8
shiti
10
502.75
20
446.87
30
32.0204
0
VERTEX
8
shiti
10
499.59
20
424.8
30
31.1902
0
VERTEX
8
shiti
10
524.73
20
434.96
30
28.8913
0
SEQEND
0
POLYLINE
8
shiti
66
1
0
VERTEX
8
shiti
10
523.57
20
415.92
30
28.6408
0
VERTEX
8
shiti
10
524.73
20
434.96
30
28.8913
0
VERTEX
8
shiti
10
499.59
20
424.8
30
31.1902
0
VERTEX
8
shiti
10
523.57
20
415.92
30
28.6408
0
SEQEND
0
POLYLINE
8
shiti
66
1
0
VERTEX
8
shiti
10
523.57
20
415.92
30
28.6408
0
VERTEX
8
shiti
10
499.59
20
424.8
30
31.1902
0
VERTEX
8
shiti
10
511.39
20
410.21
30
29.09
0
VERTEX
8
shiti
10
523.57
20
415.92
30
28.6408
0
SEQEND
0
POLYLINE
8
shiti
66
1
0
VERTEX
8
shiti
10
504.81
20
381.47
30
28.3432
0
VERTEX
8
shiti
10
511.39
20
410.21
30
29.09
0
VERTEX
8
shiti
10
495.92
20
392.51
30
29.1024
0
VERTEX
8
shiti
10
504.81
20
381.47
30
28.3432
0
SEQEND
0
POLYLINE
8
shiti
66
1
0
VERTEX
8
shiti
10
486.82
20
348.82
30
26.2623
0
VERTEX
8
shiti
10
500.58
20
352.99
30
26.1047
0
VERTEX
8
shiti
10
495.85
20
365.02
30
27.6838
0
VERTEX
8
shiti
10
486.82
20
348.82
30
26.2623
0
SEQEND
0
POLYLINE
8
shiti
66
1
0
VERTEX
8
shiti
10
471.08
20
350.47
30
27.5493
0
VERTEX
8
shiti
10
495.85
20
365.02
30
27.6838
0
VERTEX
8
shiti
10
495.92
20
392.51
30
29.1024
0
VERTEX
8
shiti
10
471.08
20
350.47
30
27.5493
0
SEQEND
0
POLYLINE
8
shiti
66
1
0
VERTEX
8
shiti
10
471.08
20
350.47
30
27.5493
0
VERTEX
8
shiti
10
495.92
20
392.51
30
29.1024
0
VERTEX
8
shiti
10
459.37
20
405.41
30
36.2749
0
VERTEX
8
shiti
10
471.08
20
350.47
30
27.5493
0
SEQEND
0
POLYLINE
8
shiti
66
1
0
VERTEX
8
shiti
10
471.08
20
350.47
30
27.5493
0
VERTEX
8
shiti
10
459.37
20
405.41
30
36.2749
0
VERTEX
8
shiti
10
454.84
20
352.89
30
28.4999
0
VERTEX
8
shiti
10
471.08
20
350.47
30
27.5493
0
SEQEND
0
POLYLINE
8
shiti
66
1
0
VERTEX
8
shiti
10
471.08
20
350.47
30
27.5493
0
VERTEX
8
shiti
10
454.84
20
352.89
30
28.4999
0
VERTEX
8
shiti
10
440.31
20
344.57
30
27.7945
0
VERTEX
8
shiti
10
471.08
20
350.47
30
27.5493
0
SEQEND
0
POLYLINE
8
shiti
66
1
0
VERTEX
8
shiti
10
471.08
20
350.47
30
27.5493
0
VERTEX
8
shiti
10
486.82
20
348.82
30
26.2623
0
VERTEX
8
shiti
10
495.85
20
365.02
30
27.6838
0
VERTEX
8
shiti
10
471.08
20
350.47
30
27.5493
0
SEQEND
0
POLYLINE
8
shiti
66
1
0
VERTEX
8
shiti
10
526.14
20
387.14
30
25.9322
0
VERTEX
8
shiti
10
523.57
20
415.92
30
28.6408
0
VERTEX
8
shiti
10
511.39
20
410.21
30
29.09
0
VERTEX
8
shiti
10
526.14
20
387.14
30
25.9322
0
SEQEND
0
POLYLINE
8
shiti
66
1
0
VERTEX
8
shiti
10
526.14
20
387.14
30
25.9322
0
VERTEX
8
shiti
10
511.39
20
410.21
30
29.09
0
VERTEX
8
shiti
10
504.81
20
381.47
30
28.3432
0
VERTEX
8
shiti
10
526.14
20
387.14
30
25.9322
0
SEQEND
0
POLYLINE
8
shiti
66
1
0
VERTEX
8
shiti
10
526.14
20
387.14
30
25.9322
0
VERTEX
8
shiti
10
504.81
20
381.47
30
28.3432
0
VERTEX
8
shiti
10
521.57
20
357.64
30
25.8516
0
VERTEX
8
shiti
10
526.14
20
387.14
30
25.9322
0
SEQEND
0
POLYLINE
8
shiti
66
1
0
VERTEX
8
shiti
10
538.09
20
418.4
30
25.2847
0
VERTEX
8
shiti
10
524.73
20
434.96
30
28.8913
0
VERTEX
8
shiti
10
523.57
20
415.92
30
28.6408
0
VERTEX
8
shiti
10
538.09
20
418.4
30
25.2847
0
SEQEND
0
POLYLINE
8
shiti
66
1
0
VERTEX
8
shiti
10
538.09
20
418.4
30
25.2847
0
VERTEX
8
shiti
10
523.57
20
415.92
30
28.6408
0
VERTEX
8
shiti
10
526.14
20
387.14
30
25.9322
0
VERTEX
8
shiti
10
538.09
20
418.4
30
25.2847
0
SEQEND
0
POLYLINE
8
shiti
66
1
0
VERTEX
8
shiti
10
533.77
20
448.49
30
25.8802
0
VERTEX
8
shiti
10
524.73
20
434.96
30
28.8913
0
VERTEX
8
shiti
10
538.09
20
418.4
30
25.2847
0
VERTEX
8
shiti
10
533.77
20
448.49
30
25.8802
0
SEQEND
0
POLYLINE
8
shiti
66
1
0
VERTEX
8
shiti
10
494.46
20
465.16
30
34.603
0
VERTEX
8
shiti
10
490.18
20
485.63
30
36.4479
0
VERTEX
8
shiti
10
471.64
20
465.83
30
41.4353
0
VERTEX
8
shiti
10
494.46
20
465.16
30
34.603
0
SEQEND
0
POLYLINE
8
shiti
66
1
0
VERTEX
8
shiti
10
494.46
20
465.16
30
34.603
0
VERTEX
8
shiti
10
471.64
20
465.83
30
41.4353
0
VERTEX
8
shiti
10
478.39
20
444.54
30
39.4434
0
VERTEX
8
shiti
10
494.46
20
465.16
30
34.603
0
SEQEND
0
POLYLINE
8
shiti
66
1
0
VERTEX
8
shiti
10
494.46
20
465.16
30
34.603
0
VERTEX
8
shiti
10
478.39
20
444.54
30
39.4434
0
VERTEX
8
shiti
10
502.75
20
446.87
30
32.0204
0
VERTEX
8
shiti
10
494.46
20
465.16
30
34.603
0
SEQEND
0
POLYLINE
8
shiti
66
1
0
VERTEX
8
shiti
10
508.1
20
458.79
30
31.0874
0
VERTEX
8
shiti
10
502.75
20
446.87
30
32.0204
0
VERTEX
8
shiti
10
524.73
20
434.96
30
28.8913
0
VERTEX
8
shiti
10
508.1
20
458.79
30
31.0874
0
SEQEND
0
POLYLINE
8
shiti
66
1
0
VERTEX
8
shiti
10
508.1
20
458.79
30
31.0874
0
VERTEX
8
shiti
10
524.73
20
434.96
30
28.8913
0
VERTEX
8
shiti
10
533.77
20
448.49
30
25.8802
0
VERTEX
8
shiti
10
508.1
20
458.79
30
31.0874
0
SEQEND
0
POLYLINE
8
shiti
66
1
0
VERTEX
8
shiti
10
508.1
20
458.79
30
31.0874
0
VERTEX
8
shiti
10
494.46
20
465.16
30
34.603
0
VERTEX
8
shiti
10
502.75
20
446.87
30
32.0204
0
VERTEX
8
shiti
10
508.1
20
458.79
30
31.0874
0
SEQEND
0
POLYLINE
8
shiti
66
1
0
VERTEX
8
shiti
10
505.74
20
504.38
30
29.4945
0
VERTEX
8
shiti
10
490.08
20
542.39
30
33.8351
0
VERTEX
8
shiti
10
493.01
20
505.89
30
33.8673
0
VERTEX
8
shiti
10
505.74
20
504.38
30
29.4945
0
SEQEND
0
POLYLINE
8
shiti
66
1
0
VERTEX
8
shiti
10
505.74
20
504.38
30
29.4945
0
VERTEX
8
shiti
10
493.01
20
505.89
30
33.8673
0
VERTEX
8
shiti
10
490.18
20
485.63
30
36.4479
0
VERTEX
8
shiti
10
505.74
20
504.38
30
29.4945
0
SEQEND
0
POLYLINE
8
shiti
66
1
0
VERTEX
8
shiti
10
513.9
20
487.85
30
29.3574
0
VERTEX
8
shiti
10
490.18
20
485.63
30
36.4479
0
VERTEX
8
shiti
10
494.46
20
465.16
30
34.603
0
VERTEX
8
shiti
10
513.9
20
487.85
30
29.3574
0
SEQEND
0
POLYLINE
8
shiti
66
1
0
VERTEX
8
shiti
10
513.9
20
487.85
30
29.3574
0
VERTEX
8
shiti
10
494.46
20
465.16
30
34.603
0
VERTEX
8
shiti
10
508.1
20
458.79
30
31.0874
0
VERTEX
8
shiti
10
513.9
20
487.85
30
29.3574
0
SEQEND
0
POLYLINE
8
shiti
66
1
0
VERTEX
8
shiti
10
513.9
20
487.85
30
29.3574
0
VERTEX
8
shiti
10
505.74
20
504.38
30
29.4945
0
VERTEX
8
shiti
10
490.18
20
485.63
30
36.4479
0
VERTEX
8
shiti
10
513.9
20
487.85
30
29.3574
0
SEQEND
0
POLYLINE
8
shiti
66
1
0
VERTEX
8
shiti
10
513.9
20
487.85
30
29.3574
0
VERTEX
8
shiti
10
519.64
20
503.63
30
28.9581
0
VERTEX
8
shiti
10
505.74
20
504.38
30
29.4945
0
VERTEX
8
shiti
10
513.9
20
487.85
30
29.3574
0
SEQEND
0
POLYLINE
8
shiti
66
1
0
VERTEX
8
shiti
10
522.38
20
473.73
30
28.2401
0
VERTEX
8
shiti
10
513.9
20
487.85
30
29.3574
0
VERTEX
8
shiti
10
508.1
20
458.79
30
31.0874
0
VERTEX
8
shiti
10
522.38
20
473.73
30
28.2401
0
SEQEND
0
POLYLINE
8
shiti
66
1
0
VERTEX
8
shiti
10
522.38
20
473.73
30
28.2401
0
VERTEX
8
shiti
10
508.1
20
458.79
30
31.0874
0
VERTEX
8
shiti
10
533.77
20
448.49
30
25.8802
0
VERTEX
8
shiti
10
522.38
20
473.73
30
28.2401
0
SEQEND
0
POLYLINE
8
shiti
66
1
0
VERTEX
8
shiti
10
534.46
20
474.65
30
28.1753
0
VERTEX
8
shiti
10
533.77
20
448.49
30
25.8802
0
VERTEX
8
shiti
10
538.09
20
418.4
30
25.2847
0
VERTEX
8
shiti
10
534.46
20
474.65
30
28.1753
0
SEQEND
0
POLYLINE
8
shiti
66
1
0
VERTEX
8
shiti
10
534.46
20
474.65
30
28.1753
0
VERTEX
8
shiti
10
522.38
20
473.73
30
28.2401
0
VERTEX
8
shiti
10
533.77
20
448.49
30
25.8802
0
VERTEX
8
shiti
10
534.46
20
474.65
30
28.1753
0
SEQEND
0
POLYLINE
8
shiti
66
1
0
VERTEX
8
shiti
10
534.46
20
474.65
30
28.1753
0
VERTEX
8
shiti
10
513.9
20
487.85
30
29.3574
0
VERTEX
8
shiti
10
522.38
20
473.73
30
28.2401
0
VERTEX
8
shiti
10
534.46
20
474.65
30
28.1753
0
SEQEND
0
POLYLINE
8
shiti
66
1
0
VERTEX
8
shiti
10
537.72
20
501.33
30
27.601
0
VERTEX
8
shiti
10
534.46
20
474.65
30
28.1753
0
VERTEX
8
shiti
10
538.09
20
418.4
30
25.2847
0
VERTEX
8
shiti
10
537.72
20
501.33
30
27.601
0
SEQEND
0
POLYLINE
8
shiti
66
1
0
VERTEX
8
shiti
10
537.72
20
501.33
30
27.601
0
VERTEX
8
shiti
10
519.64
20
503.63
30
28.9581
0
VERTEX
8
shiti
10
513.9
20
487.85
30
29.3574
0
VERTEX
8
shiti
10
537.72
20
501.33
30
27.601
0
SEQEND
0
POLYLINE
8
shiti
66
1
0
VERTEX
8
shiti
10
537.72
20
501.33
30
27.601
0
VERTEX
8
shiti
10
513.9
20
487.85
30
29.3574
0
VERTEX
8
shiti
10
534.46
20
474.65
30
28.1753
0
VERTEX
8
shiti
10
537.72
20
501.33
30
27.601
0
SEQEND
0
POLYLINE
8
shiti
66
1
0
VERTEX
8
shiti
10
530.08
20
526.89
30
29.1993
0
VERTEX
8
shiti
10
505.74
20
504.38
30
29.4945
0
VERTEX
8
shiti
10
519.64
20
503.63
30
28.9581
0
VERTEX
8
shiti
10
530.08
20
526.89
30
29.1993
0
SEQEND
0
POLYLINE
8
shiti
66
1
0
VERTEX
8
shiti
10
530.08
20
526.89
30
29.1993
0
VERTEX
8
shiti
10
519.64
20
503.63
30
28.9581
0
VERTEX
8
shiti
10
537.72
20
501.33
30
27.601
0
VERTEX
8
shiti
10
530.08
20
526.89
30
29.1993
0
SEQEND
0
POLYLINE
8
shiti
66
1
0
VERTEX
8
shiti
10
519.63
20
538.63
30
29.2767
0
VERTEX
8
shiti
10
490.08
20
542.39
30
33.8351
0
VERTEX
8
shiti
10
505.74
20
504.38
30
29.4945
0
VERTEX
8
shiti
10
519.63
20
538.63
30
29.2767
0
SEQEND
0
POLYLINE
8
shiti
66
1
0
VERTEX
8
shiti
10
519.63
20
538.63
30
29.2767
0
VERTEX
8
shiti
10
505.74
20
504.38
30
29.4945
0
VERTEX
8
shiti
10
530.08
20
526.89
30
29.1993
0
VERTEX
8
shiti
10
519.63
20
538.63
30
29.2767
0
SEQEND
0
POLYLINE
8
shiti
66
1
0
VERTEX
8
shiti
10
431.95
20
327.38
30
26.6129
0
VERTEX
8
shiti
10
440.31
20
344.57
30
27.7945
0
VERTEX
8
shiti
10
425.53
20
348.04
30
27.416
0
VERTEX
8
shiti
10
431.95
20
327.38
30
26.6129
0
SEQEND
0
POLYLINE
8
shiti
66
1
0
VERTEX
8
shiti
10
431.95
20
327.38
30
26.6129
0
VERTEX
8
shiti
10
471.08
20
350.47
30
27.5493
0
VERTEX
8
shiti
10
440.31
20
344.57
30
27.7945
0
VERTEX
8
shiti
10
431.95
20
327.38
30
26.6129
0
SEQEND
0
POLYLINE
8
shiti
66
1
0
VERTEX
8
shiti
10
431.95
20
327.38
30
26.6129
0
VERTEX
8
shiti
10
486.82
20
348.82
30
26.2623
0
VERTEX
8
shiti
10
471.08
20
350.47
30
27.5493
0
VERTEX
8
shiti
10
431.95
20
327.38
30
26.6129
0
SEQEND
0
POLYLINE
8
shiti
66
1
0
VERTEX
8
shiti
10
419.39
20
326.22
30
26.2965
0
VERTEX
8
shiti
10
431.95
20
327.38
30
26.6129
0
VERTEX
8
shiti
10
425.53
20
348.04
30
27.416
0
VERTEX
8
shiti
10
419.39
20
326.22
30
26.2965
0
SEQEND
0
POLYLINE
8
shiti
66
1
0
VERTEX
8
shiti
10
419.39
20
326.22
30
26.2965
0
VERTEX
8
shiti
10
425.53
20
348.04
30
27.416
0
VERTEX
8
shiti
10
399.61
20
335.09
30
26.6922
0
VERTEX
8
shiti
10
419.39
20
326.22
30
26.2965
0
SEQEND
0
POLYLINE
8
shiti
66
1
0
VERTEX
8
shiti
10
419.39
20
326.22
30
26.2965
0
VERTEX
8
shiti
10
399.61
20
335.09
30
26.6922
0
VERTEX
8
shiti
10
381.66
20
326.8
30
26.7581
0
VERTEX
8
shiti
10
419.39
20
326.22
30
26.2965
0
SEQEND
0
POLYLINE
8
shiti
66
1
0
VERTEX
8
shiti
10
381.36
20
603.18
30
28.8233
0
VERTEX
8
shiti
10
400.14
20
591.41
30
31.3133
0
VERTEX
8
shiti
10
464.84
20
596.28
30
31.7542
0
VERTEX
8
shiti
10
381.36
20
603.18
30
28.8233
0
SEQEND
0
POLYLINE
8
shiti
66
1
0
VERTEX
8
shiti
10
381.36
20
603.18
30
28.8233
0
VERTEX
8
shiti
10
375.51
20
580.18
30
30.2236
0
VERTEX
8
shiti
10
400.14
20
591.41
30
31.3133
0
VERTEX
8
shiti
10
381.36
20
603.18
30
28.8233
0
SEQEND
0
POLYLINE
8
shiti
66
1
0
VERTEX
8
shiti
10
408.9
20
583.86
30
33.6867
0
VERTEX
8
shiti
10
461.23
20
582.49
30
34.1418
0
VERTEX
8
shiti
10
464.84
20
596.28
30
31.7542
0
VERTEX
8
shiti
10
408.9
20
583.86
30
33.6867
0
SEQEND
0
POLYLINE
8
shiti
66
1
0
VERTEX
8
shiti
10
408.9
20
583.86
30
33.6867
0
VERTEX
8
shiti
10
464.84
20
596.28
30
31.7542
0
VERTEX
8
shiti
10
400.14
20
591.41
30
31.3133
0
VERTEX
8
shiti
10
408.9
20
583.86
30
33.6867
0
SEQEND
0
POLYLINE
8
shiti
66
1
0
VERTEX
8
shiti
10
419.84
20
565.07
30
36.2957
0
VERTEX
8
shiti
10
429.29
20
555.09
30
37.5484
0
VERTEX
8
shiti
10
461.23
20
582.49
30
34.1418
0
VERTEX
8
shiti
10
419.84
20
565.07
30
36.2957
0
SEQEND
0
POLYLINE
8
shiti
66
1
0
VERTEX
8
shiti
10
419.84
20
565.07
30
36.2957
0
VERTEX
8
shiti
10
461.23
20
582.49
30
34.1418
0
VERTEX
8
shiti
10
408.9
20
583.86
30
33.6867
0
VERTEX
8
shiti
10
419.84
20
565.07
30
36.2957
0
SEQEND
0
POLYLINE
8
shiti
66
1
0
VERTEX
8
shiti
10
402.71
20
544.34
30
36.3476
0
VERTEX
8
shiti
10
422.7
20
499.63
30
40.7577
0
VERTEX
8
shiti
10
437.89
20
515.85
30
39.9929
0
VERTEX
8
shiti
10
402.71
20
544.34
30
36.3476
0
SEQEND
0
POLYLINE
8
shiti
66
1
0
VERTEX
8
shiti
10
402.71
20
544.34
30
36.3476
0
VERTEX
8
shiti
10
437.89
20
515.85
30
39.9929
0
VERTEX
8
shiti
10
429.29
20
555.09
30
37.5484
0
VERTEX
8
shiti
10
402.71
20
544.34
30
36.3476
0
SEQEND
0
POLYLINE
8
shiti
66
1
0
VERTEX
8
shiti
10
402.71
20
544.34
30
36.3476
0
VERTEX
8
shiti
10
429.29
20
555.09
30
37.5484
0
VERTEX
8
shiti
10
419.84
20
565.07
30
36.2957
0
VERTEX
8
shiti
10
402.71
20
544.34
30
36.3476
0
SEQEND
0
POLYLINE
8
shiti
66
1
0
VERTEX
8
shiti
10
403.82
20
568.31
30
34.7975
0
VERTEX
8
shiti
10
408.9
20
583.86
30
33.6867
0
VERTEX
8
shiti
10
400.14
20
591.41
30
31.3133
0
VERTEX
8
shiti
10
403.82
20
568.31
30
34.7975
0
SEQEND
0
POLYLINE
8
shiti
66
1
0
VERTEX
8
shiti
10
403.82
20
568.31
30
34.7975
0
VERTEX
8
shiti
10
400.14
20
591.41
30
31.3133
0
VERTEX
8
shiti
10
375.51
20
580.18
30
30.2236
0
VERTEX
8
shiti
10
403.82
20
568.31
30
34.7975
0
SEQEND
0
POLYLINE
8
shiti
66
1
0
VERTEX
8
shiti
10
403.82
20
568.31
30
34.7975
0
VERTEX
8
shiti
10
402.71
20
544.34
30
36.3476
0
VERTEX
8
shiti
10
419.84
20
565.07
30
36.2957
0
VERTEX
8
shiti
10
403.82
20
568.31
30
34.7975
0
SEQEND
0
POLYLINE
8
shiti
66
1
0
VERTEX
8
shiti
10
403.82
20
568.31
30
34.7975
0
VERTEX
8
shiti
10
419.84
20
565.07
30
36.2957
0
VERTEX
8
shiti
10
408.9
20
583.86
30
33.6867
0
VERTEX
8
shiti
10
403.82
20
568.31
30
34.7975
0
SEQEND
0
POLYLINE
8
shiti
66
1
0
VERTEX
8
shiti
10
403.82
20
568.31
30
34.7975
0
VERTEX
8
shiti
10
375.51
20
580.18
30
30.2236
0
VERTEX
8
shiti
10
402.71
20
544.34
30
36.3476
0
VERTEX
8
shiti
10
403.82
20
568.31
30
34.7975
0
SEQEND
0
POLYLINE
8
shiti
66
1
0
VERTEX
8
shiti
10
388.7
20
517.51
30
35.1603
0
VERTEX
8
shiti
10
382.32
20
513.7
30
36.919
0
VERTEX
8
shiti
10
390.16
20
489.32
30
36.34
0
VERTEX
8
shiti
10
388.7
20
517.51
30
35.1603
0
SEQEND
0
POLYLINE
8
shiti
66
1
0
VERTEX
8
shiti
10
388.7
20
517.51
30
35.1603
0
VERTEX
8
shiti
10
390.16
20
489.32
30
36.34
0
VERTEX
8
shiti
10
402.93
20
492.35
30
37.9286
0
VERTEX
8
shiti
10
388.7
20
517.51
30
35.1603
0
SEQEND
0
POLYLINE
8
shiti
66
1
0
VERTEX
8
shiti
10
388.7
20
517.51
30
35.1603
0
VERTEX
8
shiti
10
402.93
20
492.35
30
37.9286
0
VERTEX
8
shiti
10
422.7
20
499.63
30
40.7577
0
VERTEX
8
shiti
10
388.7
20
517.51
30
35.1603
0
SEQEND
0
POLYLINE
8
shiti
66
1
0
VERTEX
8
shiti
10
388.7
20
517.51
30
35.1603
0
VERTEX
8
shiti
10
422.7
20
499.63
30
40.7577
0
VERTEX
8
shiti
10
402.71
20
544.34
30
36.3476
0
VERTEX
8
shiti
10
388.7
20
517.51
30
35.1603
0
SEQEND
0
POLYLINE
8
shiti
66
1
0
VERTEX
8
shiti
10
366.48
20
521.11
30
31.672
0
VERTEX
8
shiti
10
388.7
20
517.51
30
35.1603
0
VERTEX
8
shiti
10
402.71
20
544.34
30
36.3476
0
VERTEX
8
shiti
10
366.48
20
521.11
30
31.672
0
SEQEND
0
POLYLINE
8
shiti
66
1
0
VERTEX
8
shiti
10
366.48
20
521.11
30
31.672
0
VERTEX
8
shiti
10
382.32
20
513.7
30
36.919
0
VERTEX
8
shiti
10
388.7
20
517.51
30
35.1603
0
VERTEX
8
shiti
10
366.48
20
521.11
30
31.672
0
SEQEND
0
POLYLINE
8
shiti
66
1
0
VERTEX
8
shiti
10
349.28
20
539.64
30
29.138
0
VERTEX
8
shiti
10
366.48
20
521.11
30
31.672
0
VERTEX
8
shiti
10
402.71
20
544.34
30
36.3476
0
VERTEX
8
shiti
10
349.28
20
539.64
30
29.138
0
SEQEND
0
POLYLINE
8
shiti
66
1
0
VERTEX
8
shiti
10
349.28
20
539.64
30
29.138
0
VERTEX
8
shiti
10
402.71
20
544.34
30
36.3476
0
VERTEX
8
shiti
10
375.51
20
580.18
30
30.2236
0
VERTEX
8
shiti
10
349.28
20
539.64
30
29.138
0
SEQEND
0
POLYLINE
8
shiti
66
1
0
VERTEX
8
shiti
10
349.28
20
539.64
30
29.138
0
VERTEX
8
shiti
10
341.71
20
529.15
30
27.0601
0
VERTEX
8
shiti
10
366.48
20
521.11
30
31.672
0
VERTEX
8
shiti
10
349.28
20
539.64
30
29.138
0
SEQEND
0
POLYLINE
8
shiti
66
1
0
VERTEX
8
shiti
10
350.97
20
505.15
30
29.6483
0
VERTEX
8
shiti
10
366.48
20
521.11
30
31.672
0
VERTEX
8
shiti
10
341.71
20
529.15
30
27.0601
0
VERTEX
8
shiti
10
350.97
20
505.15
30
29.6483
0
SEQEND
0
POLYLINE
8
shiti
66
1
0
VERTEX
8
shiti
10
350.97
20
505.15
30
29.6483
0
VERTEX
8
shiti
10
341.71
20
529.15
30
27.0601
0
VERTEX
8
shiti
10
335.71
20
506.62
30
26.9185
0
VERTEX
8
shiti
10
350.97
20
505.15
30
29.6483
0
SEQEND
0
POLYLINE
8
shiti
66
1
0
VERTEX
8
shiti
10
379.74
20
494.79
30
33.5259
0
VERTEX
8
shiti
10
372.23
20
491.54
30
33.0459
0
VERTEX
8
shiti
10
390.16
20
489.32
30
36.34
0
VERTEX
8
shiti
10
379.74
20
494.79
30
33.5259
0
SEQEND
0
POLYLINE
8
shiti
66
1
0
VERTEX
8
shiti
10
379.74
20
494.79
30
33.5259
0
VERTEX
8
shiti
10
390.16
20
489.32
30
36.34
0
VERTEX
8
shiti
10
382.32
20
513.7
30
36.919
0
VERTEX
8
shiti
10
379.74
20
494.79
30
33.5259
0
SEQEND
0
POLYLINE
8
shiti
66
1
0
VERTEX
8
shiti
10
374.64
20
511.44
30
33.1928
0
VERTEX
8
shiti
10
382.32
20
513.7
30
36.919
0
VERTEX
8
shiti
10
366.48
20
521.11
30
31.672
0
VERTEX
8
shiti
10
374.64
20
511.44
30
33.1928
0
SEQEND
0
POLYLINE
8
shiti
66
1
0
VERTEX
8
shiti
10
374.64
20
511.44
30
33.1928
0
VERTEX
8
shiti
10
366.48
20
521.11
30
31.672
0
VERTEX
8
shiti
10
350.97
20
505.15
30
29.6483
0
VERTEX
8
shiti
10
374.64
20
511.44
30
33.1928
0
SEQEND
0
POLYLINE
8
shiti
66
1
0
VERTEX
8
shiti
10
374.64
20
511.44
30
33.1928
0
VERTEX
8
shiti
10
379.74
20
494.79
30
33.5259
0
VERTEX
8
shiti
10
382.32
20
513.7
30
36.919
0
VERTEX
8
shiti
10
374.64
20
511.44
30
33.1928
0
SEQEND
0
POLYLINE
8
shiti
66
1
0
VERTEX
8
shiti
10
374.64
20
511.44
30
33.1928
0
VERTEX
8
shiti
10
372.23
20
491.54
30
33.0459
0
VERTEX
8
shiti
10
379.74
20
494.79
30
33.5259
0
VERTEX
8
shiti
10
374.64
20
511.44
30
33.1928
0
SEQEND
0
POLYLINE
8
shiti
66
1
0
VERTEX
8
shiti
10
354.75
20
493.14
30
30.8649
0
VERTEX
8
shiti
10
344.36
20
456.08
30
30.1871
0
VERTEX
8
shiti
10
363.75
20
470.83
30
32.6194
0
VERTEX
8
shiti
10
354.75
20
493.14
30
30.8649
0
SEQEND
0
POLYLINE
8
shiti
66
1
0
VERTEX
8
shiti
10
354.75
20
493.14
30
30.8649
0
VERTEX
8
shiti
10
335.71
20
506.62
30
26.9185
0
VERTEX
8
shiti
10
316.53
20
468.29
30
27.0276
0
VERTEX
8
shiti
10
354.75
20
493.14
30
30.8649
0
SEQEND
0
POLYLINE
8
shiti
66
1
0
VERTEX
8
shiti
10
354.75
20
493.14
30
30.8649
0
VERTEX
8
shiti
10
316.53
20
468.29
30
27.0276
0
VERTEX
8
shiti
10
344.36
20
456.08
30
30.1871
0
VERTEX
8
shiti
10
354.75
20
493.14
30
30.8649
0
SEQEND
0
POLYLINE
8
shiti
66
1
0
VERTEX
8
shiti
10
354.75
20
493.14
30
30.8649
0
VERTEX
8
shiti
10
350.97
20
505.15
30
29.6483
0
VERTEX
8
shiti
10
335.71
20
506.62
30
26.9185
0
VERTEX
8
shiti
10
354.75
20
493.14
30
30.8649
0
SEQEND
0
POLYLINE
8
shiti
66
1
0
VERTEX
8
shiti
10
354.75
20
493.14
30
30.8649
0
VERTEX
8
shiti
10
363.75
20
470.83
30
32.6194
0
VERTEX
8
shiti
10
372.23
20
491.54
30
33.0459
0
VERTEX
8
shiti
10
354.75
20
493.14
30
30.8649
0
SEQEND
0
POLYLINE
8
shiti
66
1
0
VERTEX
8
shiti
10
354.75
20
493.14
30
30.8649
0
VERTEX
8
shiti
10
374.64
20
511.44
30
33.1928
0
VERTEX
8
shiti
10
350.97
20
505.15
30
29.6483
0
VERTEX
8
shiti
10
354.75
20
493.14
30
30.8649
0
SEQEND
0
POLYLINE
8
shiti
66
1
0
VERTEX
8
shiti
10
354.75
20
493.14
30
30.8649
0
VERTEX
8
shiti
10
372.23
20
491.54
30
33.0459
0
VERTEX
8
shiti
10
374.64
20
511.44
30
33.1928
0
VERTEX
8
shiti
10
354.75
20
493.14
30
30.8649
0
SEQEND
0
POLYLINE
8
shiti
66
1
0
VERTEX
8
shiti
10
508.67
20
549.66
30
30.3146
0
VERTEX
8
shiti
10
519.63
20
538.63
30
29.2767
0
VERTEX
8
shiti
10
505.61
20
567.67
30
29.5076
0
VERTEX
8
shiti
10
508.67
20
549.66
30
30.3146
0
SEQEND
0
POLYLINE
8
shiti
66
1
0
VERTEX
8
shiti
10
508.67
20
549.66
30
30.3146
0
VERTEX
8
shiti
10
505.61
20
567.67
30
29.5076
0
VERTEX
8
shiti
10
490.08
20
542.39
30
33.8351
0
VERTEX
8
shiti
10
508.67
20
549.66
30
30.3146
0
SEQEND
0
POLYLINE
8
shiti
66
1
0
VERTEX
8
shiti
10
508.67
20
549.66
30
30.3146
0
VERTEX
8
shiti
10
490.08
20
542.39
30
33.8351
0
VERTEX
8
shiti
10
519.63
20
538.63
30
29.2767
0
VERTEX
8
shiti
10
508.67
20
549.66
30
30.3146
0
SEQEND
0
POLYLINE
8
shiti
66
1
0
VERTEX
8
shiti
10
500.28
20
369.18
30
27.7
0
VERTEX
8
shiti
10
504.81
20
381.47
30
28.3432
0
VERTEX
8
shiti
10
495.92
20
392.51
30
29.1024
0
VERTEX
8
shiti
10
500.28
20
369.18
30
27.7
0
SEQEND
0
POLYLINE
8
shiti
66
1
0
VERTEX
8
shiti
10
500.28
20
369.18
30
27.7
0
VERTEX
8
shiti
10
495.92
20
392.51
30
29.1024
0
VERTEX
8
shiti
10
495.85
20
365.02
30
27.6838
0
VERTEX
8
shiti
10
500.28
20
369.18
30
27.7
0
SEQEND
0
POLYLINE
8
shiti
66
1
0
VERTEX
8
shiti
10
500.28
20
369.18
30
27.7
0
VERTEX
8
shiti
10
521.57
20
357.64
30
25.8516
0
VERTEX
8
shiti
10
504.81
20
381.47
30
28.3432
0
VERTEX
8
shiti
10
500.28
20
369.18
30
27.7
0
SEQEND
0
POLYLINE
8
shiti
66
1
0
VERTEX
8
shiti
10
500.28
20
369.18
30
27.7
0
VERTEX
8
shiti
10
495.85
20
365.02
30
27.6838
0
VERTEX
8
shiti
10
500.58
20
352.99
30
26.1047
0
VERTEX
8
shiti
10
500.28
20
369.18
30
27.7
0
SEQEND
0
POLYLINE
8
shiti
66
1
0
VERTEX
8
shiti
10
500.28
20
369.18
30
27.7
0
VERTEX
8
shiti
10
500.58
20
352.99
30
26.1047
0
VERTEX
8
shiti
10
521.57
20
357.64
30
25.8516
0
VERTEX
8
shiti
10
500.28
20
369.18
30
27.7
0
SEQEND
0
POLYLINE
8
shiti
66
1
0
VERTEX
8
shiti
10
431.06
20
442.8
30
43.9
0
VERTEX
8
shiti
10
438.86
20
446.92
30
43.5085
0
VERTEX
8
shiti
10
427.23
20
464.5
30
43.5075
0
VERTEX
8
shiti
10
431.06
20
442.8
30
43.9
0
SEQEND
0
POLYLINE
8
shiti
66
1
0
VERTEX
8
shiti
10
431.06
20
442.8
30
43.9
0
VERTEX
8
shiti
10
427.23
20
464.5
30
43.5075
0
VERTEX
8
shiti
10
406.78
20
444.56
30
41.6945
0
VERTEX
8
shiti
10
431.06
20
442.8
30
43.9
0
SEQEND
0
POLYLINE
8
shiti
66
1
0
VERTEX
8
shiti
10
431.06
20
442.8
30
43.9
0
VERTEX
8
shiti
10
406.78
20
444.56
30
41.6945
0
VERTEX
8
shiti
10
421.88
20
414.28
30
39.555
0
VERTEX
8
shiti
10
431.06
20
442.8
30
43.9
0
SEQEND
0
POLYLINE
8
shiti
66
1
0
VERTEX
8
shiti
10
431.06
20
442.8
30
43.9
0
VERTEX
8
shiti
10
442.84
20
425.14
30
42.2289
0
VERTEX
8
shiti
10
438.86
20
446.92
30
43.5085
0
VERTEX
8
shiti
10
431.06
20
442.8
30
43.9
0
SEQEND
0
POLYLINE
8
shiti
66
1
0
VERTEX
8
shiti
10
431.06
20
442.8
30
43.9
0
VERTEX
8
shiti
10
421.88
20
414.28
30
39.555
0
VERTEX
8
shiti
10
442.84
20
425.14
30
42.2289
0
VERTEX
8
shiti
10
431.06
20
442.8
30
43.9
0
SEQEND
0
POLYLINE
8
shiti
66
1
0
VERTEX
8
shiti
10
444.08
20
455.78
30
43.46
0
VERTEX
8
shiti
10
450.67
20
482.52
30
42.3327
0
VERTEX
8
shiti
10
432.82
20
479.13
30
42.3405
0
VERTEX
8
shiti
10
444.08
20
455.78
30
43.46
0
SEQEND
0
POLYLINE
8
shiti
66
1
0
VERTEX
8
shiti
10
444.08
20
455.78
30
43.46
0
VERTEX
8
shiti
10
432.82
20
479.13
30
42.3405
0
VERTEX
8
shiti
10
427.23
20
464.5
30
43.5075
0
VERTEX
8
shiti
10
444.08
20
455.78
30
43.46
0
SEQEND
0
POLYLINE
8
shiti
66
1
0
VERTEX
8
shiti
10
444.08
20
455.78
30
43.46
0
VERTEX
8
shiti
10
427.23
20
464.5
30
43.5075
0
VERTEX
8
shiti
10
438.86
20
446.92
30
43.5085
0
VERTEX
8
shiti
10
444.08
20
455.78
30
43.46
0
SEQEND
0
POLYLINE
8
shiti
66
1
0
VERTEX
8
shiti
10
444.08
20
455.78
30
43.46
0
VERTEX
8
shiti
10
438.86
20
446.92
30
43.5085
0
VERTEX
8
shiti
10
462.16
20
451.21
30
42.1787
0
VERTEX
8
shiti
10
444.08
20
455.78
30
43.46
0
SEQEND
0
POLYLINE
8
shiti
66
1
0
VERTEX
8
shiti
10
444.08
20
455.78
30
43.46
0
VERTEX
8
shiti
10
471.64
20
465.83
30
41.4353
0
VERTEX
8
shiti
10
450.67
20
482.52
30
42.3327
0
VERTEX
8
shiti
10
444.08
20
455.78
30
43.46
0
SEQEND
0
POLYLINE
8
shiti
66
1
0
VERTEX
8
shiti
10
444.08
20
455.78
30
43.46
0
VERTEX
8
shiti
10
462.16
20
451.21
30
42.1787
0
VERTEX
8
shiti
10
471.64
20
465.83
30
41.4353
0
VERTEX
8
shiti
10
444.08
20
455.78
30
43.46
0
SEQEND
0
POLYLINE
8
shiti
66
1
0
VERTEX
8
shiti
10
374.57
20
461.02
30
35.5
0
VERTEX
8
shiti
10
390.16
20
489.32
30
36.34
0
VERTEX
8
shiti
10
372.23
20
491.54
30
33.0459
0
VERTEX
8
shiti
10
374.57
20
461.02
30
35.5
0
SEQEND
0
POLYLINE
8
shiti
66
1
0
VERTEX
8
shiti
10
374.57
20
461.02
30
35.5
0
VERTEX
8
shiti
10
372.23
20
491.54
30
33.0459
0
VERTEX
8
shiti
10
363.75
20
470.83
30
32.6194
0
VERTEX
8
shiti
10
374.57
20
461.02
30
35.5
0
SEQEND
0
POLYLINE
8
shiti
66
1
0
VERTEX
8
shiti
10
374.57
20
461.02
30
35.5
0
VERTEX
8
shiti
10
401.02
20
472.76
30
38.5963
0
VERTEX
8
shiti
10
390.16
20
489.32
30
36.34
0
VERTEX
8
shiti
10
374.57
20
461.02
30
35.5
0
SEQEND
0
POLYLINE
8
shiti
66
1
0
VERTEX
8
shiti
10
374.57
20
461.02
30
35.5
0
VERTEX
8
shiti
10
383.25
20
449.7
30
36.9367
0
VERTEX
8
shiti
10
401.02
20
472.76
30
38.5963
0
VERTEX
8
shiti
10
374.57
20
461.02
30
35.5
0
SEQEND
0
POLYLINE
8
shiti
66
1
0
VERTEX
8
shiti
10
374.57
20
461.02
30
35.5
0
VERTEX
8
shiti
10
363.75
20
470.83
30
32.6194
0
VERTEX
8
shiti
10
368.77
20
446.84
30
34.5865
0
VERTEX
8
shiti
10
374.57
20
461.02
30
35.5
0
SEQEND
0
POLYLINE
8
shiti
66
1
0
VERTEX
8
shiti
10
374.57
20
461.02
30
35.5
0
VERTEX
8
shiti
10
368.77
20
446.84
30
34.5865
0
VERTEX
8
shiti
10
383.25
20
449.7
30
36.9367
0
VERTEX
8
shiti
10
374.57
20
461.02
30
35.5
0
SEQEND
0
POLYLINE
8
shiti
66
1
0
VERTEX
8
shiti
10
388.9
20
437.3
30
38.2
0
VERTEX
8
shiti
10
383.25
20
449.7
30
36.9367
0
VERTEX
8
shiti
10
368.77
20
446.84
30
34.5865
0
VERTEX
8
shiti
10
388.9
20
437.3
30
38.2
0
SEQEND
0
POLYLINE
8
shiti
66
1
0
VERTEX
8
shiti
10
388.9
20
437.3
30
38.2
0
VERTEX
8
shiti
10
368.77
20
446.84
30
34.5865
0
VERTEX
8
shiti
10
367.77
20
424.7
30
34.8919
0
VERTEX
8
shiti
10
388.9
20
437.3
30
38.2
0
SEQEND
0
POLYLINE
8
shiti
66
1
0
VERTEX
8
shiti
10
388.9
20
437.3
30
38.2
0
VERTEX
8
shiti
10
367.77
20
424.7
30
34.8919
0
VERTEX
8
shiti
10
383.5
20
414.85
30
37.4818
0
VERTEX
8
shiti
10
388.9
20
437.3
30
38.2
0
SEQEND
0
POLYLINE
8
shiti
66
1
0
VERTEX
8
shiti
10
388.9
20
437.3
30
38.2
0
VERTEX
8
shiti
10
383.5
20
414.85
30
37.4818
0
VERTEX
8
shiti
10
397.87
20
414.07
30
39.5041
0
VERTEX
8
shiti
10
388.9
20
437.3
30
38.2
0
SEQEND
0
POLYLINE
8
shiti
66
1
0
VERTEX
8
shiti
10
388.9
20
437.3
30
38.2
0
VERTEX
8
shiti
10
406.78
20
444.56
30
41.6945
0
VERTEX
8
shiti
10
383.25
20
449.7
30
36.9367
0
VERTEX
8
shiti
10
388.9
20
437.3
30
38.2
0
SEQEND
0
POLYLINE
8
shiti
66
1
0
VERTEX
8
shiti
10
388.9
20
437.3
30
38.2
0
VERTEX
8
shiti
10
397.87
20
414.07
30
39.5041
0
VERTEX
8
shiti
10
406.78
20
444.56
30
41.6945
0
VERTEX
8
shiti
10
388.9
20
437.3
30
38.2
0
SEQEND
0
POLYLINE
8
shiti
66
1
0
VERTEX
8
shiti
10
407.54
20
399.61
30
37
0
VERTEX
8
shiti
10
393.86
20
393.47
30
32.5395
0
VERTEX
8
shiti
10
425.02
20
387.8
30
36.8774
0
VERTEX
8
shiti
10
407.54
20
399.61
30
37
0
SEQEND
0
POLYLINE
8
shiti
66
1
0
VERTEX
8
shiti
10
407.54
20
399.61
30
37
0
VERTEX
8
shiti
10
425.02
20
387.8
30
36.8774
0
VERTEX
8
shiti
10
421.88
20
414.28
30
39.555
0
VERTEX
8
shiti
10
407.54
20
399.61
30
37
0
SEQEND
0
POLYLINE
8
shiti
66
1
0
VERTEX
8
shiti
10
407.54
20
399.61
30
37
0
VERTEX
8
shiti
10
397.87
20
414.07
30
39.5041
0
VERTEX
8
shiti
10
393.86
20
393.47
30
32.5395
0
VERTEX
8
shiti
10
407.54
20
399.61
30
37
0
SEQEND
0
POLYLINE
8
shiti
66
1
0
VERTEX
8
shiti
10
407.54
20
399.61
30
37
0
VERTEX
8
shiti
10
421.88
20
414.28
30
39.555
0
VERTEX
8
shiti
10
397.87
20
414.07
30
39.5041
0
VERTEX
8
shiti
10
407.54
20
399.61
30
37
0
SEQEND
0
POLYLINE
8
shiti
66
1
0
VERTEX
8
shiti
10
450.64
20
514.12
30
40.1
0
VERTEX
8
shiti
10
437.89
20
515.85
30
39.9929
0
VERTEX
8
shiti
10
439.93
20
503.6
30
41.0365
0
VERTEX
8
shiti
10
450.64
20
514.12
30
40.1
0
SEQEND
0
POLYLINE
8
shiti
66
1
0
VERTEX
8
shiti
10
450.64
20
514.12
30
40.1
0
VERTEX
8
shiti
10
439.93
20
503.6
30
41.0365
0
VERTEX
8
shiti
10
461.98
20
508.1
30
40.2172
0
VERTEX
8
shiti
10
450.64
20
514.12
30
40.1
0
SEQEND
0
POLYLINE
8
shiti
66
1
0
VERTEX
8
shiti
10
450.64
20
514.12
30
40.1
0
VERTEX
8
shiti
10
461.98
20
508.1
30
40.2172
0
VERTEX
8
shiti
10
466.79
20
532.14
30
37.7726
0
VERTEX
8
shiti
10
450.64
20
514.12
30
40.1
0
SEQEND
0
POLYLINE
8
shiti
66
1
0
VERTEX
8
shiti
10
450.64
20
514.12
30
40.1
0
VERTEX
8
shiti
10
446.42
20
547.81
30
38.3385
0
VERTEX
8
shiti
10
437.89
20
515.85
30
39.9929
0
VERTEX
8
shiti
10
450.64
20
514.12
30
40.1
0
SEQEND
0
POLYLINE
8
shiti
66
1
0
VERTEX
8
shiti
10
450.64
20
514.12
30
40.1
0
VERTEX
8
shiti
10
466.79
20
532.14
30
37.7726
0
VERTEX
8
shiti
10
446.42
20
547.81
30
38.3385
0
VERTEX
8
shiti
10
450.64
20
514.12
30
40.1
0
SEQEND
0
ENDSEC
0
EOF