0
SECTION
2
TABLES
0
TABLE
2
LAYER
0
LAYER
70
0
2
shiti
62
10
6
CONTINUOUS
0
LAYER
70
0
2
zhuji
62
50
6
CONTINUOUS
0
LAYER
70
0
2
sqita
62
90
6
CONTINUOUS
0
ENDTAB
0
ENDSEC
0
SECTION
2
ENTITIES
0
POINT
8
0
10
53414.28
20
31421.88
30
39.555
0
POINT
8
0
10
53387.8
20
31425.02
30
36.8774
0
POINT
8
0
10
53359.06
20
31426.62
30
31.225
0
POINT
8
0
10
53348.04
20
31425.53
30
27.416
0
POINT
8
0
10
53344.57
20
31440.31
30
27.7945
0
POINT
8
0
10
53352.89
20
31454.84
30
28.4999
0
POINT
8
0
10
53402.88
20
31442.45
30
37.951
0
POINT
8
0
10
53393.47
20
31393.86
30
32.5395
0
POINT
8
0
10
53358.85
20
31387.57
30
29.426
0
POINT
8
0
10
53358.59
20
31376.62
30
29.223
0
POINT
8
0
10
53348.66
20
31364.21
30
28.2538
0
POINT
8
0
10
53362.8
20
31340.89
30
26.8212
0
POINT
8
0
10
53335.73
20
31347.62
30
26.2299
0
POINT
8
0
10
53331.84
20
31362.69
30
26.6612
0
POINT
8
0
10
53351.82
20
31402.35
30
28.4848
0
POINT
8
0
10
53335.09
20
31399.61
30
26.6922
0
POINT
8
0
10
53331.15
20
31333.34
30
24.6894
0
POINT
8
0
10
53344.1
20
31322.26
30
24.3684
0
POINT
8
0
10
53326.8
20
31381.66
30
26.7581
0
POINT
8
0
10
53396.59
20
31331.42
30
28.7137
0
POINT
8
0
10
53372.7
20
31317.25
30
25.8215
0
POINT
8
0
10
53404.54
20
31313.74
30
26.9055
0
POINT
8
0
10
53416.04
20
31349.16
30
31.7509
0
POINT
8
0
10
53424.7
20
31367.77
30
34.8919
0
POINT
8
0
10
53414.85
20
31383.5
30
37.4818
0
POINT
8
0
10
53399.59
20
31370.21
30
32.5866
0
POINT
8
0
10
53386.89
20
31353.32
30
30.5459
0
POINT
8
0
10
53383.23
20
31336.82
30
29.2504
0
POINT
8
0
10
53421.13
20
31322.59
30
27.7593
0
POINT
8
0
10
53468.29
20
31316.53
30
27.0276
0
POINT
8
0
10
53434.93
20
31313.32
30
26.5662
0
POINT
8
0
10
53456.71
20
31324.05
30
28.8742
0
POINT
8
0
10
53491.54
20
31372.23
30
33.0459
0
POINT
8
0
10
53470.83
20
31363.75
30
32.6194
0
POINT
8
0
10
53414.07
20
31397.87
30
39.5041
0
POINT
8
0
10
53446.84
20
31368.77
30
34.5865
0
POINT
8
0
10
53438
20
31337.25
30
30.1398
0
POINT
8
0
10
53456.08
20
31344.36
30
30.1871
0
POINT
8
0
10
53472.76
20
31401.02
30
38.5963
0
POINT
8
0
10
53479.13
20
31432.82
30
42.3405
0
POINT
8
0
10
53499.63
20
31422.7
30
40.7577
0
POINT
8
0
10
53492.35
20
31402.93
30
37.9286
0
POINT
8
0
10
53489.32
20
31390.16
30
36.34
0
POINT
8
0
10
53449.7
20
31383.25
30
36.9367
0
POINT
8
0
10
53444.56
20
31406.78
30
41.6945
0
POINT
8
0
10
53464.5
20
31427.23
30
43.5075
0
POINT
8
0
10
53503.6
20
31439.93
30
41.0365
0
POINT
8
0
10
53515.85
20
31437.89
30
39.9929
0
POINT
8
0
10
53505.89
20
31493.01
30
33.8673
0
POINT
8
0
10
53485.63
20
31490.18
30
36.4479
0
POINT
8
0
10
53493.83
20
31472.49
30
39.8801
0
POINT
8
0
10
53482.52
20
31450.67
30
42.3327
0
POINT
8
0
10
53508.1
20
31461.98
30
40.2172
0
POINT
8
0
10
53513.7
20
31482.32
30
36.919
0
POINT
8
0
10
53532.14
20
31466.79
30
37.7726
0
POINT
8
0
10
53547.81
20
31446.42
30
38.3385
0
POINT
8
0
10
53555.09
20
31429.29
30
37.5484
0
POINT
8
0
10
53550.59
20
31466.8
30
37.233
0
POINT
8
0
10
53542.39
20
31490.08
30
33.8351
0
POINT
8
0
10
53562.32
20
31481.02
30
34.4659
0
POINT
8
0
10
53582.49
20
31461.23
30
34.1418
0
POINT
8
0
10
53585.43
20
31474.09
30
32.5303
0
POINT
8
0
10
53596.28
20
31464.84
30
31.7542
0
POINT
8
0
10
53573.76
20
31494.1
30
31.3335
0
POINT
8
0
10
53567.67
20
31505.61
30
29.5076
0
POINT
8
0
10
53435.85
20
31465.51
30
40.6101
0
POINT
8
0
10
53446.92
20
31438.86
30
43.5085
0
POINT
8
0
10
53451.21
20
31462.16
30
42.1787
0
POINT
8
0
10
53425.14
20
31442.84
30
42.2289
0
POINT
8
0
10
53465.83
20
31471.64
30
41.4353
0
POINT
8
0
10
53444.54
20
31478.39
30
39.4434
0
POINT
8
0
10
53436.92
20
31489.73
30
35.15
0
POINT
8
0
10
53446.87
20
31502.75
30
32.0204
0
POINT
8
0
10
53424.8
20
31499.59
30
31.1902
0
POINT
8
0
10
53415.55
20
31477.23
30
36.1728
0
POINT
8
0
10
53405.41
20
31459.37
30
36.2749
0
POINT
8
0
10
53407.98
20
31487.67
30
31.2808
0
POINT
8
0
10
53410.21
20
31511.39
30
29.09
0
POINT
8
0
10
53392.51
20
31495.92
30
29.1024
0
POINT
8
0
10
53434.96
20
31524.73
30
28.8913
0
POINT
8
0
10
53415.92
20
31523.57
30
28.6408
0
POINT
8
0
10
53381.47
20
31504.81
30
28.3432
0
POINT
8
0
10
53365.02
20
31495.85
30
27.6838
0
POINT
8
0
10
53352.99
20
31500.58
30
26.1047
0
POINT
8
0
10
53348.82
20
31486.82
30
26.2623
0
POINT
8
0
10
53350.47
20
31471.08
30
27.5493
0
POINT
8
0
10
53357.64
20
31521.57
30
25.8516
0
POINT
8
0
10
53387.14
20
31526.14
30
25.9322
0
POINT
8
0
10
53418.4
20
31538.09
30
25.2847
0
POINT
8
0
10
53448.49
20
31533.77
30
25.8802
0
POINT
8
0
10
53465.16
20
31494.46
30
34.603
0
POINT
8
0
10
53458.79
20
31508.1
30
31.0874
0
POINT
8
0
10
53503.63
20
31519.64
30
28.9581
0
POINT
8
0
10
53504.38
20
31505.74
30
29.4945
0
POINT
8
0
10
53487.85
20
31513.9
30
29.3574
0
POINT
8
0
10
53473.73
20
31522.38
30
28.2401
0
POINT
8
0
10
53474.65
20
31534.46
30
28.1753
0
POINT
8
0
10
53501.33
20
31537.72
30
27.601
0
POINT
8
0
10
53526.89
20
31530.08
30
29.1993
0
POINT
8
0
10
53538.63
20
31519.63
30
29.2767
0
POINT
8
0
10
53327.38
20
31431.95
30
26.6129
0
POINT
8
0
10
53326.22
20
31419.39
30
26.2965
0
POINT
8
0
10
53591.41
20
31400.14
30
31.3133
0
POINT
8
0
10
53580.18
20
31375.51
30
30.2236
0
POINT
8
0
10
53603.18
20
31381.36
30
28.8233
0
POINT
8
0
10
53529.15
20
31341.71
30
27.0601
0
POINT
8
0
10
53583.86
20
31408.9
30
33.6867
0
POINT
8
0
10
53565.07
20
31419.84
30
36.2957
0
POINT
8
0
10
53544.34
20
31402.71
30
36.3476
0
POINT
8
0
10
53568.31
20
31403.82
30
34.7975
0
POINT
8
0
10
53517.51
20
31388.7
30
35.1603
0
POINT
8
0
10
53521.11
20
31366.48
30
31.672
0
POINT
8
0
10
53539.64
20
31349.28
30
29.138
0
POINT
8
0
10
53506.62
20
31335.71
30
26.9185
0
POINT
8
0
10
53505.15
20
31350.97
30
29.6483
0
POINT
8
0
10
53494.79
20
31379.74
30
33.5259
0
POINT
8
0
10
53511.44
20
31374.64
30
33.1928
0
POINT
8
0
10
53493.14
20
31354.75
30
30.8649
0
POINT
8
0
10
53549.66
20
31508.67
30
30.3146
0
POINT
8
0
10
53369.18
20
31500.28
30
27.7
0
POINT
8
0
10
53442.8
20
31431.06
30
43.9
0
POINT
8
0
10
53455.78
20
31444.08
30
43.46
0
POINT
8
0
10
53461.02
20
31374.57
30
35.5
0
POINT
8
0
10
53437.3
20
31388.9
30
38.2
0
POINT
8
0
10
53399.61
20
31407.54
30
37
0
POINT
8
0
10
53514.12
20
31450.64
30
40.1
0
TEXT
8
zhuji
10
53411.28
20
31418.88
40
1
1
p1
0
TEXT
8
zhuji
10
53384.8
20
31422.02
40
1
1
p2
0
TEXT
8
zhuji
10
53356.06
20
31423.62
40
1
1
p3
0
TEXT
8
zhuji
10
53345.04
20
31422.53
40
1
1
p4
0
TEXT
8
zhuji
10
53341.57
20
31437.31
40
1
1
p5
0
TEXT
8
zhuji
10
53349.89
20
31451.84
40
1
1
p6
0
TEXT
8
zhuji
10
53399.88
20
31439.45
40
1
1
p7
0
TEXT
8
zhuji
10
53390.47
20
31390.86
40
1
1
p8
0
TEXT
8
zhuji
10
53355.85
20
31384.57
40
1
1
p9
0
TEXT
8
zhuji
10
53355.59
20
31373.62
40
1
1
p10
0
TEXT
8
zhuji
10
53345.66
20
31361.21
40
1
1
p11
0
TEXT
8
zhuji
10
53359.8
20
31337.89
40
1
1
p12
0
TEXT
8
zhuji
10
53332.73
20
31344.62
40
1
1
p13
0
TEXT
8
zhuji
10
53328.84
20
31359.69
40
1
1
p14
0
TEXT
8
zhuji
10
53348.82
20
31399.35
40
1
1
p15
0
TEXT
8
zhuji
10
53332.09
20
31396.61
40
1
1
p16
0
TEXT
8
zhuji
10
53328.15
20
31330.34
40
1
1
p17
0
TEXT
8
zhuji
10
53341.1
20
31319.26
40
1
1
p18
0
TEXT
8
zhuji
10
53323.8
20
31378.66
40
1
1
p19
0
TEXT
8
zhuji
10
53393.59
20
31328.42
40
1
1
p20
0
TEXT
8
zhuji
10
53369.7
20
31314.25
40
1
1
p21
0
TEXT
8
zhuji
10
53401.54
20
31310.74
40
1
1
p22
0
TEXT
8
zhuji
10
53413.04
20
31346.16
40
1
1
p23
0
TEXT
8
zhuji
10
53421.7
20
31364.77
40
1
1
p24
0
TEXT
8
zhuji
10
53411.85
20
31380.5
40
1
1
p25
0
TEXT
8
zhuji
10
53396.59
20
31367.21
40
1
1
p26
0
TEXT
8
zhuji
10
53383.89
20
31350.32
40
1
1
p27
0
TEXT
8
zhuji
10
53380.23
20
31333.82
40
1
1
p28
0
TEXT
8
zhuji
10
53418.13
20
31319.59
40
1
1
p29
0
TEXT
8
zhuji
10
53465.29
20
31313.53
40
1
1
p30
0
TEXT
8
zhuji
10
53431.93
20
31310.32
40
1
1
p31
0
TEXT
8
zhuji
10
53453.71
20
31321.05
40
1
1
p32
0
TEXT
8
zhuji
10
53488.54
20
31369.23
40
1
1
p33
0
TEXT
8
zhuji
10
53467.83
20
31360.75
40
1
1
p34
0
TEXT
8
zhuji
10
53411.07
20
31394.87
40
1
1
p35
0
TEXT
8
zhuji
10
53443.84
20
31365.77
40
1
1
p36
0
TEXT
8
zhuji
10
53435
20
31334.25
40
1
1
p37
0
TEXT
8
zhuji
10
53453.08
20
31341.36
40
1
1
p38
0
TEXT
8
zhuji
10
53469.76
20
31398.02
40
1
1
p39
0
TEXT
8
zhuji
10
53476.13
20
31429.82
40
1
1
p40
0
TEXT
8
zhuji
10
53496.63
20
31419.7
40
1
1
p41
0
TEXT
8
zhuji
10
53489.35
20
31399.93
40
1
1
p42
0
TEXT
8
zhuji
10
53486.32
20
31387.16
40
1
1
p43
0
TEXT
8
zhuji
10
53446.7
20
31380.25
40
1
1
p44
0
TEXT
8
zhuji
10
53441.56
20
31403.78
40
1
1
p45
0
TEXT
8
zhuji
10
53461.5
20
31424.23
40
1
1
p46
0
TEXT
8
zhuji
10
53500.6
20
31436.93
40
1
1
p47
0
TEXT
8
zhuji
10
53512.85
20
31434.89
40
1
1
p48
0
TEXT
8
zhuji
10
53502.89
20
31490.01
40
1
1
p49
0
TEXT
8
zhuji
10
53482.63
20
31487.18
40
1
1
p50
0
TEXT
8
zhuji
10
53490.83
20
31469.49
40
1
1
p51
0
TEXT
8
zhuji
10
53479.52
20
31447.67
40
1
1
p52
0
TEXT
8
zhuji
10
53505.1
20
31458.98
40
1
1
p53
0
TEXT
8
zhuji
10
53510.7
20
31479.32
40
1
1
p54
0
TEXT
8
zhuji
10
53529.14
20
31463.79
40
1
1
p55
0
TEXT
8
zhuji
10
53544.81
20
31443.42
40
1
1
p56
0
TEXT
8
zhuji
10
53552.09
20
31426.29
40
1
1
p57
0
TEXT
8
zhuji
10
53547.59
20
31463.8
40
1
1
p58
0
TEXT
8
zhuji
10
53539.39
20
31487.08
40
1
1
p59
0
TEXT
8
zhuji
10
53559.32
20
31478.02
40
1
1
p60
0
TEXT
8
zhuji
10
53579.49
20
31458.23
40
1
1
p61
0
TEXT
8
zhuji
10
53582.43
20
31471.09
40
1
1
p62
0
TEXT
8
zhuji
10
53593.28
20
31461.84
40
1
1
p63
0
TEXT
8
zhuji
10
53570.76
20
31491.1
40
1
1
p64
0
TEXT
8
zhuji
10
53564.67
20
31502.61
40
1
1
p65
0
TEXT
8
zhuji
10
53432.85
20
31462.51
40
1
1
p66
0
TEXT
8
zhuji
10
53443.92
20
31435.86
40
1
1
p67
0
TEXT
8
zhuji
10
53448.21
20
31459.16
40
1
1
p68
0
TEXT
8
zhuji
10
53422.14
20
31439.84
40
1
1
p69
0
TEXT
8
zhuji
10
53462.83
20
31468.64
40
1
1
p70
0
TEXT
8
zhuji
10
53441.54
20
31475.39
40
1
1
p71
0
TEXT
8
zhuji
10
53433.92
20
31486.73
40
1
1
p72
0
TEXT
8
zhuji
10
53443.87
20
31499.75
40
1
1
p73
0
TEXT
8
zhuji
10
53421.8
20
31496.59
40
1
1
p74
0
TEXT
8
zhuji
10
53412.55
20
31474.23
40
1
1
p75
0
TEXT
8
zhuji
10
53402.41
20
31456.37
40
1
1
p76
0
TEXT
8
zhuji
10
53404.98
20
31484.67
40
1
1
p77
0
TEXT
8
zhuji
10
53407.21
20
31508.39
40
1
1
p78
0
TEXT
8
zhuji
10
53389.51
20
31492.92
40
1
1
p79
0
TEXT
8
zhuji
10
53431.96
20
31521.73
40
1
1
p80
0
TEXT
8
zhuji
10
53412.92
20
31520.57
40
1
1
p81
0
TEXT
8
zhuji
10
53378.47
20
31501.81
40
1
1
p82
0
TEXT
8
zhuji
10
53362.02
20
31492.85
40
1
1
p83
0
TEXT
8
zhuji
10
53349.99
20
31497.58
40
1
1
p84
0
TEXT
8
zhuji
10
53345.82
20
31483.82
40
1
1
p85
0
TEXT
8
zhuji
10
53347.47
20
31468.08
40
1
1
p86
0
TEXT
8
zhuji
10
53354.64
20
31518.57
40
1
1
p87
0
TEXT
8
zhuji
10
53384.14
20
31523.14
40
1
1
p88
0
TEXT
8
zhuji
10
53415.4
20
31535.09
40
1
1
p89
0
TEXT
8
zhuji
10
53445.49
20
31530.77
40
1
1
p90
0
TEXT
8
zhuji
10
53462.16
20
31491.46
40
1
1
p91
0
TEXT
8
zhuji
10
53455.79
20
31505.1
40
1
1
p92
0
TEXT
8
zhuji
10
53500.63
20
31516.64
40
1
1
p93
0
TEXT
8
zhuji
10
53501.38
20
31502.74
40
1
1
p94
0
TEXT
8
zhuji
10
53484.85
20
31510.9
40
1
1
p95
0
TEXT
8
zhuji
10
53470.73
20
31519.38
40
1
1
p96
0
TEXT
8
zhuji
10
53471.65
20
31531.46
40
1
1
p97
0
TEXT
8
zhuji
10
53498.33
20
31534.72
40
1
1
p98
0
TEXT
8
zhuji
10
53523.89
20
31527.08
40
1
1
p99
0
TEXT
8
zhuji
10
53535.63
20
31516.63
40
1
1
p100
0
TEXT
8
zhuji
10
53324.38
20
31428.95
40
1
1
p101
0
TEXT
8
zhuji
10
53323.22
20
31416.39
40
1
1
p102
0
TEXT
8
zhuji
10
53588.41
20
31397.14
40
1
1
p103
0
TEXT
8
zhuji
10
53577.18
20
31372.51
40
1
1
p104
0
TEXT
8
zhuji
10
53600.18
20
31378.36
40
1
1
p105
0
TEXT
8
zhuji
10
53526.15
20
31338.71
40
1
1
p106
0
TEXT
8
zhuji
10
53580.86
20
31405.9
40
1
1
p107
0
TEXT
8
zhuji
10
53562.07
20
31416.84
40
1
1
p108
0
TEXT
8
zhuji
10
53541.34
20
31399.71
40
1
1
p109
0
TEXT
8
zhuji
10
53565.31
20
31400.82
40
1
1
p110
0
TEXT
8
zhuji
10
53514.51
20
31385.7
40
1
1
p111
0
TEXT
8
zhuji
10
53518.11
20
31363.48
40
1
1
p112
0
TEXT
8
zhuji
10
53536.64
20
31346.28
40
1
1
p113
0
TEXT
8
zhuji
10
53503.62
20
31332.71
40
1
1
p114
0
TEXT
8
zhuji
10
53502.15
20
31347.97
40
1
1
p115
0
TEXT
8
zhuji
10
53491.79
20
31376.74
40
1
1
p116
0
TEXT
8
zhuji
10
53508.44
20
31371.64
40
1
1
p117
0
TEXT
8
zhuji
10
53490.14
20
31351.75
40
1
1
p118
0
TEXT
8
zhuji
10
53546.66
20
31505.67
40
1
1
p119
0
TEXT
8
zhuji
10
53366.18
20
31497.28
40
1
1
p120
0
TEXT
8
zhuji
10
53439.8
20
31428.06
40
1
1
p121
0
TEXT
8
zhuji
10
53452.78
20
31441.08
40
1
1
p122
0
TEXT
8
zhuji
10
53458.02
20
31371.57
40
1
1
p123
0
TEXT
8
zhuji
10
53434.3
20
31385.9
40
1
1
p124
0
TEXT
8
zhuji
10
53396.61
20
31404.54
40
1
1
p125
0
TEXT
8
zhuji
10
53511.12
20
31447.64
40
1
1
p126
0
POLYLINE
8
shiti
66
1
0
VERTEX
8
shiti
10
53344.57
20
31440.31
30
27.7945
0
VERTEX
8
shiti
10
53348.04
20
31425.53
30
27.416
0
VERTEX
8
shiti
10
53359.06
20
31426.62
30
31.225
0
VERTEX
8
shiti
10
53344.57
20
31440.31
30
27.7945
0
SEQEND
0
POLYLINE
8
shiti
66
1
0
VERTEX
8
shiti
10
53352.89
20
31454.84
30
28.4999
0
VERTEX
8
shiti
10
53344.57
20
31440.31
30
27.7945
0
VERTEX
8
shiti
10
53359.06
20
31426.62
30
31.225
0
VERTEX
8
shiti
10
53352.89
20
31454.84
30
28.4999
0
SEQEND
0
POLYLINE
8
shiti
66
1
0
VERTEX
8
shiti
10
53352.89
20
31454.84
30
28.4999
0
VERTEX
8
shiti
10
53359.06
20
31426.62
30
31.225
0
VERTEX
8
shiti
10
53387.8
20
31425.02
30
36.8774
0
VERTEX
8
shiti
10
53352.89
20
31454.84
30
28.4999
0
SEQEND
0
POLYLINE
8
shiti
66
1
0
VERTEX
8
shiti
10
53402.88
20
31442.45
30
37.951
0
VERTEX
8
shiti
10
53352.89
20
31454.84
30
28.4999
0
VERTEX
8
shiti
10
53387.8
20
31425.02
30
36.8774
0
VERTEX
8
shiti
10
53402.88
20
31442.45
30
37.951
0
SEQEND
0
POLYLINE
8
shiti
66
1
0
VERTEX
8
shiti
10
53402.88
20
31442.45
30
37.951
0
VERTEX
8
shiti
10
53387.8
20
31425.02
30
36.8774
0
VERTEX
8
shiti
10
53414.28
20
31421.88
30
39.555
0
VERTEX
8
shiti
10
53402.88
20
31442.45
30
37.951
0
SEQEND
0
POLYLINE
8
shiti
66
1
0
VERTEX
8
shiti
10
53358.59
20
31376.62
30
29.223
0
VERTEX
8
shiti
10
53393.47
20
31393.86
30
32.5395
0
VERTEX
8
shiti
10
53358.85
20
31387.57
30
29.426
0
VERTEX
8
shiti
10
53358.59
20
31376.62
30
29.223
0
SEQEND
0
POLYLINE
8
shiti
66
1
0
VERTEX
8
shiti
10
53362.8
20
31340.89
30
26.8212
0
VERTEX
8
shiti
10
53358.59
20
31376.62
30
29.223
0
VERTEX
8
shiti
10
53348.66
20
31364.21
30
28.2538
0
VERTEX
8
shiti
10
53362.8
20
31340.89
30
26.8212
0
SEQEND
0
POLYLINE
8
shiti
66
1
0
VERTEX
8
shiti
10
53335.73
20
31347.62
30
26.2299
0
VERTEX
8
shiti
10
53362.8
20
31340.89
30
26.8212
0
VERTEX
8
shiti
10
53348.66
20
31364.21
30
28.2538
0
VERTEX
8
shiti
10
53335.73
20
31347.62
30
26.2299
0
SEQEND
0
POLYLINE
8
shiti
66
1
0
VERTEX
8
shiti
10
53331.84
20
31362.69
30
26.6612
0
VERTEX
8
shiti
10
53335.73
20
31347.62
30
26.2299
0
VERTEX
8
shiti
10
53348.66
20
31364.21
30
28.2538
0
VERTEX
8
shiti
10
53331.84
20
31362.69
30
26.6612
0
SEQEND
0
POLYLINE
8
shiti
66
1
0
VERTEX
8
shiti
10
53351.82
20
31402.35
30
28.4848
0
VERTEX
8
shiti
10
53358.85
20
31387.57
30
29.426
0
VERTEX
8
shiti
10
53393.47
20
31393.86
30
32.5395
0
VERTEX
8
shiti
10
53351.82
20
31402.35
30
28.4848
0
SEQEND
0
POLYLINE
8
shiti
66
1
0
VERTEX
8
shiti
10
53351.82
20
31402.35
30
28.4848
0
VERTEX
8
shiti
10
53393.47
20
31393.86
30
32.5395
0
VERTEX
8
shiti
10
53387.8
20
31425.02
30
36.8774
0
VERTEX
8
shiti
10
53351.82
20
31402.35
30
28.4848
0
SEQEND
0
POLYLINE
8
shiti
66
1
0
VERTEX
8
shiti
10
53351.82
20
31402.35
30
28.4848
0
VERTEX
8
shiti
10
53387.8
20
31425.02
30
36.8774
0
VERTEX
8
shiti
10
53359.06
20
31426.62
30
31.225
0
VERTEX
8
shiti
10
53351.82
20
31402.35
30
28.4848
0
SEQEND
0
POLYLINE
8
shiti
66
1
0
VERTEX
8
shiti
10
53351.82
20
31402.35
30
28.4848
0
VERTEX
8
shiti
10
53359.06
20
31426.62
30
31.225
0
VERTEX
8
shiti
10
53348.04
20
31425.53
30
27.416
0
VERTEX
8
shiti
10
53351.82
20
31402.35
30
28.4848
0
SEQEND
0
POLYLINE
8
shiti
66
1
0
VERTEX
8
shiti
10
53335.09
20
31399.61
30
26.6922
0
VERTEX
8
shiti
10
53358.85
20
31387.57
30
29.426
0
VERTEX
8
shiti
10
53351.82
20
31402.35
30
28.4848
0
VERTEX
8
shiti
10
53335.09
20
31399.61
30
26.6922
0
SEQEND
0
POLYLINE
8
shiti
66
1
0
VERTEX
8
shiti
10
53335.09
20
31399.61
30
26.6922
0
VERTEX
8
shiti
10
53351.82
20
31402.35
30
28.4848
0
VERTEX
8
shiti
10
53348.04
20
31425.53
30
27.416
0
VERTEX
8
shiti
10
53335.09
20
31399.61
30
26.6922
0
SEQEND
0
POLYLINE
8
shiti
66
1
0
VERTEX
8
shiti
10
53331.15
20
31333.34
30
24.6894
0
VERTEX
8
shiti
10
53335.73
20
31347.62
30
26.2299
0
VERTEX
8
shiti
10
53331.84
20
31362.69
30
26.6612
0
VERTEX
8
shiti
10
53331.15
20
31333.34
30
24.6894
0
SEQEND
0
POLYLINE
8
shiti
66
1
0
VERTEX
8
shiti
10
53344.1
20
31322.26
30
24.3684
0
VERTEX
8
shiti
10
53362.8
20
31340.89
30
26.8212
0
VERTEX
8
shiti
10
53335.73
20
31347.62
30
26.2299
0
VERTEX
8
shiti
10
53344.1
20
31322.26
30
24.3684
0
SEQEND
0
POLYLINE
8
shiti
66
1
0
VERTEX
8
shiti
10
53344.1
20
31322.26
30
24.3684
0
VERTEX
8
shiti
10
53335.73
20
31347.62
30
26.2299
0
VERTEX
8
shiti
10
53331.15
20
31333.34
30
24.6894
0
VERTEX
8
shiti
10
53344.1
20
31322.26
30
24.3684
0
SEQEND
0
POLYLINE
8
shiti
66
1
0
VERTEX
8
shiti
10
53326.8
20
31381.66
30
26.7581
0
VERTEX
8
shiti
10
53331.84
20
31362.69
30
26.6612
0
VERTEX
8
shiti
10
53348.66
20
31364.21
30
28.2538
0
VERTEX
8
shiti
10
53326.8
20
31381.66
30
26.7581
0
SEQEND
0
POLYLINE
8
shiti
66
1
0
VERTEX
8
shiti
10
53326.8
20
31381.66
30
26.7581
0
VERTEX
8
shiti
10
53348.66
20
31364.21
30
28.2538
0
VERTEX
8
shiti
10
53358.59
20
31376.62
30
29.223
0
VERTEX
8
shiti
10
53326.8
20
31381.66
30
26.7581
0
SEQEND
0
POLYLINE
8
shiti
66
1
0
VERTEX
8
shiti
10
53326.8
20
31381.66
30
26.7581
0
VERTEX
8
shiti
10
53358.59
20
31376.62
30
29.223
0
VERTEX
8
shiti
10
53358.85
20
31387.57
30
29.426
0
VERTEX
8
shiti
10
53326.8
20
31381.66
30
26.7581
0
SEQEND
0
POLYLINE
8
shiti
66
1
0
VERTEX
8
shiti
10
53326.8
20
31381.66
30
26.7581
0
VERTEX
8
shiti
10
53358.85
20
31387.57
30
29.426
0
VERTEX
8
shiti
10
53335.09
20
31399.61
30
26.6922
0
VERTEX
8
shiti
10
53326.8
20
31381.66
30
26.7581
0
SEQEND
0
POLYLINE
8
shiti
66
1
0
VERTEX
8
shiti
10
53326.8
20
31381.66
30
26.7581
0
VERTEX
8
shiti
10
53331.15
20
31333.34
30
24.6894
0
VERTEX
8
shiti
10
53331.84
20
31362.69
30
26.6612
0
VERTEX
8
shiti
10
53326.8
20
31381.66
30
26.7581
0
SEQEND
0
POLYLINE
8
shiti
66
1
0
VERTEX
8
shiti
10
53372.7
20
31317.25
30
25.8215
0
VERTEX
8
shiti
10
53362.8
20
31340.89
30
26.8212
0
VERTEX
8
shiti
10
53344.1
20
31322.26
30
24.3684
0
VERTEX
8
shiti
10
53372.7
20
31317.25
30
25.8215
0
SEQEND
0
POLYLINE
8
shiti
66
1
0
VERTEX
8
shiti
10
53404.54
20
31313.74
30
26.9055
0
VERTEX
8
shiti
10
53396.59
20
31331.42
30
28.7137
0
VERTEX
8
shiti
10
53372.7
20
31317.25
30
25.8215
0
VERTEX
8
shiti
10
53404.54
20
31313.74
30
26.9055
0
SEQEND
0
POLYLINE
8
shiti
66
1
0
VERTEX
8
shiti
10
53399.59
20
31370.21
30
32.5866
0
VERTEX
8
shiti
10
53393.47
20
31393.86
30
32.5395
0
VERTEX
8
shiti
10
53358.59
20
31376.62
30
29.223
0
VERTEX
8
shiti
10
53399.59
20
31370.21
30
32.5866
0
SEQEND
0
POLYLINE
8
shiti
66
1
0
VERTEX
8
shiti
10
53399.59
20
31370.21
30
32.5866
0
VERTEX
8
shiti
10
53414.85
20
31383.5
30
37.4818
0
VERTEX
8
shiti
10
53393.47
20
31393.86
30
32.5395
0
VERTEX
8
shiti
10
53399.59
20
31370.21
30
32.5866
0
SEQEND
0
POLYLINE
8
shiti
66
1
0
VERTEX
8
shiti
10
53399.59
20
31370.21
30
32.5866
0
VERTEX
8
shiti
10
53416.04
20
31349.16
30
31.7509
0
VERTEX
8
shiti
10
53424.7
20
31367.77
30
34.8919
0
VERTEX
8
shiti
10
53399.59
20
31370.21
30
32.5866
0
SEQEND
0
POLYLINE
8
shiti
66
1
0
VERTEX
8
shiti
10
53399.59
20
31370.21
30
32.5866
0
VERTEX
8
shiti
10
53424.7
20
31367.77
30
34.8919
0
VERTEX
8
shiti
10
53414.85
20
31383.5
30
37.4818
0
VERTEX
8
shiti
10
53399.59
20
31370.21
30
32.5866
0
SEQEND
0
POLYLINE
8
shiti
66
1
0
VERTEX
8
shiti
10
53386.89
20
31353.32
30
30.5459
0
VERTEX
8
shiti
10
53399.59
20
31370.21
30
32.5866
0
VERTEX
8
shiti
10
53358.59
20
31376.62
30
29.223
0
VERTEX
8
shiti
10
53386.89
20
31353.32
30
30.5459
0
SEQEND
0
POLYLINE
8
shiti
66
1
0
VERTEX
8
shiti
10
53386.89
20
31353.32
30
30.5459
0
VERTEX
8
shiti
10
53358.59
20
31376.62
30
29.223
0
VERTEX
8
shiti
10
53362.8
20
31340.89
30
26.8212
0
VERTEX
8
shiti
10
53386.89
20
31353.32
30
30.5459
0
SEQEND
0
POLYLINE
8
shiti
66
1
0
VERTEX
8
shiti
10
53386.89
20
31353.32
30
30.5459
0
VERTEX
8
shiti
10
53396.59
20
31331.42
30
28.7137
0
VERTEX
8
shiti
10
53416.04
20
31349.16
30
31.7509
0
VERTEX
8
shiti
10
53386.89
20
31353.32
30
30.5459
0
SEQEND
0
POLYLINE
8
shiti
66
1
0
VERTEX
8
shiti
10
53386.89
20
31353.32
30
30.5459
0
VERTEX
8
shiti
10
53416.04
20
31349.16
30
31.7509
0
VERTEX
8
shiti
10
53399.59
20
31370.21
30
32.5866
0
VERTEX
8
shiti
10
53386.89
20
31353.32
30
30.5459
0
SEQEND
0
POLYLINE
8
shiti
66
1
0
VERTEX
8
shiti
10
53383.23
20
31336.82
30
29.2504
0
VERTEX
8
shiti
10
53372.7
20
31317.25
30
25.8215
0
VERTEX
8
shiti
10
53396.59
20
31331.42
30
28.7137
0
VERTEX
8
shiti
10
53383.23
20
31336.82
30
29.2504
0
SEQEND
0
POLYLINE
8
shiti
66
1
0
VERTEX
8
shiti
10
53383.23
20
31336.82
30
29.2504
0
VERTEX
8
shiti
10
53362.8
20
31340.89
30
26.8212
0
VERTEX
8
shiti
10
53372.7
20
31317.25
30
25.8215
0
VERTEX
8
shiti
10
53383.23
20
31336.82
30
29.2504
0
SEQEND
0
POLYLINE
8
shiti
66
1
0
VERTEX
8
shiti
10
53383.23
20
31336.82
30
29.2504
0
VERTEX
8
shiti
10
53386.89
20
31353.32
30
30.5459
0
VERTEX
8
shiti
10
53362.8
20
31340.89
30
26.8212
0
VERTEX
8
shiti
10
53383.23
20
31336.82
30
29.2504
0
SEQEND
0
POLYLINE
8
shiti
66
1
0
VERTEX
8
shiti
10
53383.23
20
31336.82
30
29.2504
0
VERTEX
8
shiti
10
53396.59
20
31331.42
30
28.7137
0
VERTEX
8
shiti
10
53386.89
20
31353.32
30
30.5459
0
VERTEX
8
shiti
10
53383.23
20
31336.82
30
29.2504
0
SEQEND
0
POLYLINE
8
shiti
66
1
0
VERTEX
8
shiti
10
53421.13
20
31322.59
30
27.7593
0
VERTEX
8
shiti
10
53416.04
20
31349.16
30
31.7509
0
VERTEX
8
shiti
10
53396.59
20
31331.42
30
28.7137
0
VERTEX
8
shiti
10
53421.13
20
31322.59
30
27.7593
0
SEQEND
0
POLYLINE
8
shiti
66
1
0
VERTEX
8
shiti
10
53421.13
20
31322.59
30
27.7593
0
VERTEX
8
shiti
10
53396.59
20
31331.42
30
28.7137
0
VERTEX
8
shiti
10
53404.54
20
31313.74
30
26.9055
0
VERTEX
8
shiti
10
53421.13
20
31322.59
30
27.7593
0
SEQEND
0
POLYLINE
8
shiti
66
1
0
VERTEX
8
shiti
10
53434.93
20
31313.32
30
26.5662
0
VERTEX
8
shiti
10
53421.13
20
31322.59
30
27.7593
0
VERTEX
8
shiti
10
53404.54
20
31313.74
30
26.9055
0
VERTEX
8
shiti
10
53434.93
20
31313.32
30
26.5662
0
SEQEND
0
POLYLINE
8
shiti
66
1
0
VERTEX
8
shiti
10
53456.71
20
31324.05
30
28.8742
0
VERTEX
8
shiti
10
53434.93
20
31313.32
30
26.5662
0
VERTEX
8
shiti
10
53468.29
20
31316.53
30
27.0276
0
VERTEX
8
shiti
10
53456.71
20
31324.05
30
28.8742
0
SEQEND
0
POLYLINE
8
shiti
66
1
0
VERTEX
8
shiti
10
53414.07
20
31397.87
30
39.5041
0
VERTEX
8
shiti
10
53393.47
20
31393.86
30
32.5395
0
VERTEX
8
shiti
10
53414.85
20
31383.5
30
37.4818
0
VERTEX
8
shiti
10
53414.07
20
31397.87
30
39.5041
0
SEQEND
0
POLYLINE
8
shiti
66
1
0
VERTEX
8
shiti
10
53438
20
31337.25
30
30.1398
0
VERTEX
8
shiti
10
53416.04
20
31349.16
30
31.7509
0
VERTEX
8
shiti
10
53421.13
20
31322.59
30
27.7593
0
VERTEX
8
shiti
10
53438
20
31337.25
30
30.1398
0
SEQEND
0
POLYLINE
8
shiti
66
1
0
VERTEX
8
shiti
10
53438
20
31337.25
30
30.1398
0
VERTEX
8
shiti
10
53421.13
20
31322.59
30
27.7593
0
VERTEX
8
shiti
10
53434.93
20
31313.32
30
26.5662
0
VERTEX
8
shiti
10
53438
20
31337.25
30
30.1398
0
SEQEND
0
POLYLINE
8
shiti
66
1
0
VERTEX
8
shiti
10
53438
20
31337.25
30
30.1398
0
VERTEX
8
shiti
10
53434.93
20
31313.32
30
26.5662
0
VERTEX
8
shiti
10
53456.71
20
31324.05
30
28.8742
0
VERTEX
8
shiti
10
53438
20
31337.25
30
30.1398
0
SEQEND
0
POLYLINE
8
shiti
66
1
0
VERTEX
8
shiti
10
53438
20
31337.25
30
30.1398
0
VERTEX
8
shiti
10
53446.84
20
31368.77
30
34.5865
0
VERTEX
8
shiti
10
53424.7
20
31367.77
30
34.8919
0
VERTEX
8
shiti
10
53438
20
31337.25
30
30.1398
0
SEQEND
0
POLYLINE
8
shiti
66
1
0
VERTEX
8
shiti
10
53438
20
31337.25
30
30.1398
0
VERTEX
8
shiti
10
53424.7
20
31367.77
30
34.8919
0
VERTEX
8
shiti
10
53416.04
20
31349.16
30
31.7509
0
VERTEX
8
shiti
10
53438
20
31337.25
30
30.1398
0
SEQEND
0
POLYLINE
8
shiti
66
1
0
VERTEX
8
shiti
10
53456.08
20
31344.36
30
30.1871
0
VERTEX
8
shiti
10
53456.71
20
31324.05
30
28.8742
0
VERTEX
8
shiti
10
53468.29
20
31316.53
30
27.0276
0
VERTEX
8
shiti
10
53456.08
20
31344.36
30
30.1871
0
SEQEND
0
POLYLINE
8
shiti
66
1
0
VERTEX
8
shiti
10
53456.08
20
31344.36
30
30.1871
0
VERTEX
8
shiti
10
53438
20
31337.25
30
30.1398
0
VERTEX
8
shiti
10
53456.71
20
31324.05
30
28.8742
0
VERTEX
8
shiti
10
53456.08
20
31344.36
30
30.1871
0
SEQEND
0
POLYLINE
8
shiti
66
1
0
VERTEX
8
shiti
10
53456.08
20
31344.36
30
30.1871
0
VERTEX
8
shiti
10
53470.83
20
31363.75
30
32.6194
0
VERTEX
8
shiti
10
53446.84
20
31368.77
30
34.5865
0
VERTEX
8
shiti
10
53456.08
20
31344.36
30
30.1871
0
SEQEND
0
POLYLINE
8
shiti
66
1
0
VERTEX
8
shiti
10
53456.08
20
31344.36
30
30.1871
0
VERTEX
8
shiti
10
53446.84
20
31368.77
30
34.5865
0
VERTEX
8
shiti
10
53438
20
31337.25
30
30.1398
0
VERTEX
8
shiti
10
53456.08
20
31344.36
30
30.1871
0
SEQEND
0
POLYLINE
8
shiti
66
1
0
VERTEX
8
shiti
10
53492.35
20
31402.93
30
37.9286
0
VERTEX
8
shiti
10
53499.63
20
31422.7
30
40.7577
0
VERTEX
8
shiti
10
53479.13
20
31432.82
30
42.3405
0
VERTEX
8
shiti
10
53492.35
20
31402.93
30
37.9286
0
SEQEND
0
POLYLINE
8
shiti
66
1
0
VERTEX
8
shiti
10
53492.35
20
31402.93
30
37.9286
0
VERTEX
8
shiti
10
53479.13
20
31432.82
30
42.3405
0
VERTEX
8
shiti
10
53472.76
20
31401.02
30
38.5963
0
VERTEX
8
shiti
10
53492.35
20
31402.93
30
37.9286
0
SEQEND
0
POLYLINE
8
shiti
66
1
0
VERTEX
8
shiti
10
53489.32
20
31390.16
30
36.34
0
VERTEX
8
shiti
10
53492.35
20
31402.93
30
37.9286
0
VERTEX
8
shiti
10
53472.76
20
31401.02
30
38.5963
0
VERTEX
8
shiti
10
53489.32
20
31390.16
30
36.34
0
SEQEND
0
POLYLINE
8
shiti
66
1
0
VERTEX
8
shiti
10
53444.56
20
31406.78
30
41.6945
0
VERTEX
8
shiti
10
53449.7
20
31383.25
30
36.9367
0
VERTEX
8
shiti
10
53472.76
20
31401.02
30
38.5963
0
VERTEX
8
shiti
10
53444.56
20
31406.78
30
41.6945
0
SEQEND
0
POLYLINE
8
shiti
66
1
0
VERTEX
8
shiti
10
53444.56
20
31406.78
30
41.6945
0
VERTEX
8
shiti
10
53414.28
20
31421.88
30
39.555
0
VERTEX
8
shiti
10
53414.07
20
31397.87
30
39.5041
0
VERTEX
8
shiti
10
53444.56
20
31406.78
30
41.6945
0
SEQEND
0
POLYLINE
8
shiti
66
1
0
VERTEX
8
shiti
10
53464.5
20
31427.23
30
43.5075
0
VERTEX
8
shiti
10
53444.56
20
31406.78
30
41.6945
0
VERTEX
8
shiti
10
53472.76
20
31401.02
30
38.5963
0
VERTEX
8
shiti
10
53464.5
20
31427.23
30
43.5075
0
SEQEND
0
POLYLINE
8
shiti
66
1
0
VERTEX
8
shiti
10
53464.5
20
31427.23
30
43.5075
0
VERTEX
8
shiti
10
53472.76
20
31401.02
30
38.5963
0
VERTEX
8
shiti
10
53479.13
20
31432.82
30
42.3405
0
VERTEX
8
shiti
10
53464.5
20
31427.23
30
43.5075
0
SEQEND
0
POLYLINE
8
shiti
66
1
0
VERTEX
8
shiti
10
53503.6
20
31439.93
30
41.0365
0
VERTEX
8
shiti
10
53479.13
20
31432.82
30
42.3405
0
VERTEX
8
shiti
10
53499.63
20
31422.7
30
40.7577
0
VERTEX
8
shiti
10
53503.6
20
31439.93
30
41.0365
0
SEQEND
0
POLYLINE
8
shiti
66
1
0
VERTEX
8
shiti
10
53515.85
20
31437.89
30
39.9929
0
VERTEX
8
shiti
10
53503.6
20
31439.93
30
41.0365
0
VERTEX
8
shiti
10
53499.63
20
31422.7
30
40.7577
0
VERTEX
8
shiti
10
53515.85
20
31437.89
30
39.9929
0
SEQEND
0
POLYLINE
8
shiti
66
1
0
VERTEX
8
shiti
10
53493.83
20
31472.49
30
39.8801
0
VERTEX
8
shiti
10
53505.89
20
31493.01
30
33.8673
0
VERTEX
8
shiti
10
53485.63
20
31490.18
30
36.4479
0
VERTEX
8
shiti
10
53493.83
20
31472.49
30
39.8801
0
SEQEND
0
POLYLINE
8
shiti
66
1
0
VERTEX
8
shiti
10
53482.52
20
31450.67
30
42.3327
0
VERTEX
8
shiti
10
53479.13
20
31432.82
30
42.3405
0
VERTEX
8
shiti
10
53503.6
20
31439.93
30
41.0365
0
VERTEX
8
shiti
10
53482.52
20
31450.67
30
42.3327
0
SEQEND
0
POLYLINE
8
shiti
66
1
0
VERTEX
8
shiti
10
53508.1
20
31461.98
30
40.2172
0
VERTEX
8
shiti
10
53482.52
20
31450.67
30
42.3327
0
VERTEX
8
shiti
10
53503.6
20
31439.93
30
41.0365
0
VERTEX
8
shiti
10
53508.1
20
31461.98
30
40.2172
0
SEQEND
0
POLYLINE
8
shiti
66
1
0
VERTEX
8
shiti
10
53508.1
20
31461.98
30
40.2172
0
VERTEX
8
shiti
10
53493.83
20
31472.49
30
39.8801
0
VERTEX
8
shiti
10
53482.52
20
31450.67
30
42.3327
0
VERTEX
8
shiti
10
53508.1
20
31461.98
30
40.2172
0
SEQEND
0
POLYLINE
8
shiti
66
1
0
VERTEX
8
shiti
10
53513.7
20
31482.32
30
36.919
0
VERTEX
8
shiti
10
53505.89
20
31493.01
30
33.8673
0
VERTEX
8
shiti
10
53493.83
20
31472.49
30
39.8801
0
VERTEX
8
shiti
10
53513.7
20
31482.32
30
36.919
0
SEQEND
0
POLYLINE
8
shiti
66
1
0
VERTEX
8
shiti
10
53513.7
20
31482.32
30
36.919
0
VERTEX
8
shiti
10
53493.83
20
31472.49
30
39.8801
0
VERTEX
8
shiti
10
53508.1
20
31461.98
30
40.2172
0
VERTEX
8
shiti
10
53513.7
20
31482.32
30
36.919
0
SEQEND
0
POLYLINE
8
shiti
66
1
0
VERTEX
8
shiti
10
53532.14
20
31466.79
30
37.7726
0
VERTEX
8
shiti
10
53513.7
20
31482.32
30
36.919
0
VERTEX
8
shiti
10
53508.1
20
31461.98
30
40.2172
0
VERTEX
8
shiti
10
53532.14
20
31466.79
30
37.7726
0
SEQEND
0
POLYLINE
8
shiti
66
1
0
VERTEX
8
shiti
10
53555.09
20
31429.29
30
37.5484
0
VERTEX
8
shiti
10
53547.81
20
31446.42
30
38.3385
0
VERTEX
8
shiti
10
53515.85
20
31437.89
30
39.9929
0
VERTEX
8
shiti
10
53555.09
20
31429.29
30
37.5484
0
SEQEND
0
POLYLINE
8
shiti
66
1
0
VERTEX
8
shiti
10
53550.59
20
31466.8
30
37.233
0
VERTEX
8
shiti
10
53532.14
20
31466.79
30
37.7726
0
VERTEX
8
shiti
10
53547.81
20
31446.42
30
38.3385
0
VERTEX
8
shiti
10
53550.59
20
31466.8
30
37.233
0
SEQEND
0
POLYLINE
8
shiti
66
1
0
VERTEX
8
shiti
10
53542.39
20
31490.08
30
33.8351
0
VERTEX
8
shiti
10
53505.89
20
31493.01
30
33.8673
0
VERTEX
8
shiti
10
53513.7
20
31482.32
30
36.919
0
VERTEX
8
shiti
10
53542.39
20
31490.08
30
33.8351
0
SEQEND
0
POLYLINE
8
shiti
66
1
0
VERTEX
8
shiti
10
53542.39
20
31490.08
30
33.8351
0
VERTEX
8
shiti
10
53513.7
20
31482.32
30
36.919
0
VERTEX
8
shiti
10
53532.14
20
31466.79
30
37.7726
0
VERTEX
8
shiti
10
53542.39
20
31490.08
30
33.8351
0
SEQEND
0
POLYLINE
8
shiti
66
1
0
VERTEX
8
shiti
10
53542.39
20
31490.08
30
33.8351
0
VERTEX
8
shiti
10
53532.14
20
31466.79
30
37.7726
0
VERTEX
8
shiti
10
53550.59
20
31466.8
30
37.233
0
VERTEX
8
shiti
10
53542.39
20
31490.08
30
33.8351
0
SEQEND
0
POLYLINE
8
shiti
66
1
0
VERTEX
8
shiti
10
53562.32
20
31481.02
30
34.4659
0
VERTEX
8
shiti
10
53542.39
20
31490.08
30
33.8351
0
VERTEX
8
shiti
10
53550.59
20
31466.8
30
37.233
0
VERTEX
8
shiti
10
53562.32
20
31481.02
30
34.4659
0
SEQEND
0
POLYLINE
8
shiti
66
1
0
VERTEX
8
shiti
10
53582.49
20
31461.23
30
34.1418
0
VERTEX
8
shiti
10
53562.32
20
31481.02
30
34.4659
0
VERTEX
8
shiti
10
53550.59
20
31466.8
30
37.233
0
VERTEX
8
shiti
10
53582.49
20
31461.23
30
34.1418
0
SEQEND
0
POLYLINE
8
shiti
66
1
0
VERTEX
8
shiti
10
53582.49
20
31461.23
30
34.1418
0
VERTEX
8
shiti
10
53550.59
20
31466.8
30
37.233
0
VERTEX
8
shiti
10
53547.81
20
31446.42
30
38.3385
0
VERTEX
8
shiti
10
53582.49
20
31461.23
30
34.1418
0
SEQEND
0
POLYLINE
8
shiti
66
1
0
VERTEX
8
shiti
10
53582.49
20
31461.23
30
34.1418
0
VERTEX
8
shiti
10
53547.81
20
31446.42
30
38.3385
0
VERTEX
8
shiti
10
53555.09
20
31429.29
30
37.5484
0
VERTEX
8
shiti
10
53582.49
20
31461.23
30
34.1418
0
SEQEND
0
POLYLINE
8
shiti
66
1
0
VERTEX
8
shiti
10
53585.43
20
31474.09
30
32.5303
0
VERTEX
8
shiti
10
53562.32
20
31481.02
30
34.4659
0
VERTEX
8
shiti
10
53582.49
20
31461.23
30
34.1418
0
VERTEX
8
shiti
10
53585.43
20
31474.09
30
32.5303
0
SEQEND
0
POLYLINE
8
shiti
66
1
0
VERTEX
8
shiti
10
53596.28
20
31464.84
30
31.7542
0
VERTEX
8
shiti
10
53585.43
20
31474.09
30
32.5303
0
VERTEX
8
shiti
10
53582.49
20
31461.23
30
34.1418
0
VERTEX
8
shiti
10
53596.28
20
31464.84
30
31.7542
0
SEQEND
0
POLYLINE
8
shiti
66
1
0
VERTEX
8
shiti
10
53573.76
20
31494.1
30
31.3335
0
VERTEX
8
shiti
10
53562.32
20
31481.02
30
34.4659
0
VERTEX
8
shiti
10
53585.43
20
31474.09
30
32.5303
0
VERTEX
8
shiti
10
53573.76
20
31494.1
30
31.3335
0
SEQEND
0
POLYLINE
8
shiti
66
1
0
VERTEX
8
shiti
10
53567.67
20
31505.61
30
29.5076
0
VERTEX
8
shiti
10
53542.39
20
31490.08
30
33.8351
0
VERTEX
8
shiti
10
53562.32
20
31481.02
30
34.4659
0
VERTEX
8
shiti
10
53567.67
20
31505.61
30
29.5076
0
SEQEND
0
POLYLINE
8
shiti
66
1
0
VERTEX
8
shiti
10
53567.67
20
31505.61
30
29.5076
0
VERTEX
8
shiti
10
53562.32
20
31481.02
30
34.4659
0
VERTEX
8
shiti
10
53573.76
20
31494.1
30
31.3335
0
VERTEX
8
shiti
10
53567.67
20
31505.61
30
29.5076
0
SEQEND
0
POLYLINE
8
shiti
66
1
0
VERTEX
8
shiti
10
53451.21
20
31462.16
30
42.1787
0
VERTEX
8
shiti
10
53435.85
20
31465.51
30
40.6101
0
VERTEX
8
shiti
10
53446.92
20
31438.86
30
43.5085
0
VERTEX
8
shiti
10
53451.21
20
31462.16
30
42.1787
0
SEQEND
0
POLYLINE
8
shiti
66
1
0
VERTEX
8
shiti
10
53425.14
20
31442.84
30
42.2289
0
VERTEX
8
shiti
10
53446.92
20
31438.86
30
43.5085
0
VERTEX
8
shiti
10
53435.85
20
31465.51
30
40.6101
0
VERTEX
8
shiti
10
53425.14
20
31442.84
30
42.2289
0
SEQEND
0
POLYLINE
8
shiti
66
1
0
VERTEX
8
shiti
10
53425.14
20
31442.84
30
42.2289
0
VERTEX
8
shiti
10
53402.88
20
31442.45
30
37.951
0
VERTEX
8
shiti
10
53414.28
20
31421.88
30
39.555
0
VERTEX
8
shiti
10
53425.14
20
31442.84
30
42.2289
0
SEQEND
0
POLYLINE
8
shiti
66
1
0
VERTEX
8
shiti
10
53465.83
20
31471.64
30
41.4353
0
VERTEX
8
shiti
10
53482.52
20
31450.67
30
42.3327
0
VERTEX
8
shiti
10
53493.83
20
31472.49
30
39.8801
0
VERTEX
8
shiti
10
53465.83
20
31471.64
30
41.4353
0
SEQEND
0
POLYLINE
8
shiti
66
1
0
VERTEX
8
shiti
10
53465.83
20
31471.64
30
41.4353
0
VERTEX
8
shiti
10
53493.83
20
31472.49
30
39.8801
0
VERTEX
8
shiti
10
53485.63
20
31490.18
30
36.4479
0
VERTEX
8
shiti
10
53465.83
20
31471.64
30
41.4353
0
SEQEND
0
POLYLINE
8
shiti
66
1
0
VERTEX
8
shiti
10
53444.54
20
31478.39
30
39.4434
0
VERTEX
8
shiti
10
53435.85
20
31465.51
30
40.6101
0
VERTEX
8
shiti
10
53451.21
20
31462.16
30
42.1787
0
VERTEX
8
shiti
10
53444.54
20
31478.39
30
39.4434
0
SEQEND
0
POLYLINE
8
shiti
66
1
0
VERTEX
8
shiti
10
53444.54
20
31478.39
30
39.4434
0
VERTEX
8
shiti
10
53451.21
20
31462.16
30
42.1787
0
VERTEX
8
shiti
10
53465.83
20
31471.64
30
41.4353
0
VERTEX
8
shiti
10
53444.54
20
31478.39
30
39.4434
0
SEQEND
0
POLYLINE
8
shiti
66
1
0
VERTEX
8
shiti
10
53436.92
20
31489.73
30
35.15
0
VERTEX
8
shiti
10
53435.85
20
31465.51
30
40.6101
0
VERTEX
8
shiti
10
53444.54
20
31478.39
30
39.4434
0
VERTEX
8
shiti
10
53436.92
20
31489.73
30
35.15
0
SEQEND
0
POLYLINE
8
shiti
66
1
0
VERTEX
8
shiti
10
53446.87
20
31502.75
30
32.0204
0
VERTEX
8
shiti
10
53436.92
20
31489.73
30
35.15
0
VERTEX
8
shiti
10
53444.54
20
31478.39
30
39.4434
0
VERTEX
8
shiti
10
53446.87
20
31502.75
30
32.0204
0
SEQEND
0
POLYLINE
8
shiti
66
1
0
VERTEX
8
shiti
10
53424.8
20
31499.59
30
31.1902
0
VERTEX
8
shiti
10
53436.92
20
31489.73
30
35.15
0
VERTEX
8
shiti
10
53446.87
20
31502.75
30
32.0204
0
VERTEX
8
shiti
10
53424.8
20
31499.59
30
31.1902
0
SEQEND
0
POLYLINE
8
shiti
66
1
0
VERTEX
8
shiti
10
53415.55
20
31477.23
30
36.1728
0
VERTEX
8
shiti
10
53435.85
20
31465.51
30
40.6101
0
VERTEX
8
shiti
10
53436.92
20
31489.73
30
35.15
0
VERTEX
8
shiti
10
53415.55
20
31477.23
30
36.1728
0
SEQEND
0
POLYLINE
8
shiti
66
1
0
VERTEX
8
shiti
10
53415.55
20
31477.23
30
36.1728
0
VERTEX
8
shiti
10
53436.92
20
31489.73
30
35.15
0
VERTEX
8
shiti
10
53424.8
20
31499.59
30
31.1902
0
VERTEX
8
shiti
10
53415.55
20
31477.23
30
36.1728
0
SEQEND
0
POLYLINE
8
shiti
66
1
0
VERTEX
8
shiti
10
53405.41
20
31459.37
30
36.2749
0
VERTEX
8
shiti
10
53425.14
20
31442.84
30
42.2289
0
VERTEX
8
shiti
10
53435.85
20
31465.51
30
40.6101
0
VERTEX
8
shiti
10
53405.41
20
31459.37
30
36.2749
0
SEQEND
0
POLYLINE
8
shiti
66
1
0
VERTEX
8
shiti
10
53405.41
20
31459.37
30
36.2749
0
VERTEX
8
shiti
10
53435.85
20
31465.51
30
40.6101
0
VERTEX
8
shiti
10
53415.55
20
31477.23
30
36.1728
0
VERTEX
8
shiti
10
53405.41
20
31459.37
30
36.2749
0
SEQEND
0
POLYLINE
8
shiti
66
1
0
VERTEX
8
shiti
10
53405.41
20
31459.37
30
36.2749
0
VERTEX
8
shiti
10
53402.88
20
31442.45
30
37.951
0
VERTEX
8
shiti
10
53425.14
20
31442.84
30
42.2289
0
VERTEX
8
shiti
10
53405.41
20
31459.37
30
36.2749
0
SEQEND
0
POLYLINE
8
shiti
66
1
0
VERTEX
8
shiti
10
53405.41
20
31459.37
30
36.2749
0
VERTEX
8
shiti
10
53352.89
20
31454.84
30
28.4999
0
VERTEX
8
shiti
10
53402.88
20
31442.45
30
37.951
0
VERTEX
8
shiti
10
53405.41
20
31459.37
30
36.2749
0
SEQEND
0
POLYLINE
8
shiti
66
1
0
VERTEX
8
shiti
10
53407.98
20
31487.67
30
31.2808
0
VERTEX
8
shiti
10
53415.55
20
31477.23
30
36.1728
0
VERTEX
8
shiti
10
53424.8
20
31499.59
30
31.1902
0
VERTEX
8
shiti
10
53407.98
20
31487.67
30
31.2808
0
SEQEND
0
POLYLINE
8
shiti
66
1
0
VERTEX
8
shiti
10
53407.98
20
31487.67
30
31.2808
0
VERTEX
8
shiti
10
53405.41
20
31459.37
30
36.2749
0
VERTEX
8
shiti
10
53415.55
20
31477.23
30
36.1728
0
VERTEX
8
shiti
10
53407.98
20
31487.67
30
31.2808
0
SEQEND
0
POLYLINE
8
shiti
66
1
0
VERTEX
8
shiti
10
53410.21
20
31511.39
30
29.09
0
VERTEX
8
shiti
10
53407.98
20
31487.67
30
31.2808
0
VERTEX
8
shiti
10
53424.8
20
31499.59
30
31.1902
0
VERTEX
8
shiti
10
53410.21
20
31511.39
30
29.09
0
SEQEND
0
POLYLINE
8
shiti
66
1
0
VERTEX
8
shiti
10
53392.51
20
31495.92
30
29.1024
0
VERTEX
8
shiti
10
53405.41
20
31459.37
30
36.2749
0
VERTEX
8
shiti
10
53407.98
20
31487.67
30
31.2808
0
VERTEX
8
shiti
10
53392.51
20
31495.92
30
29.1024
0
SEQEND
0
POLYLINE
8
shiti
66
1
0
VERTEX
8
shiti
10
53392.51
20
31495.92
30
29.1024
0
VERTEX
8
shiti
10
53407.98
20
31487.67
30
31.2808
0
VERTEX
8
shiti
10
53410.21
20
31511.39
30
29.09
0
VERTEX
8
shiti
10
53392.51
20
31495.92
30
29.1024
0
SEQEND
0
POLYLINE
8
shiti
66
1
0
VERTEX
8
shiti
10
53434.96
20
31524.73
30
28.8913
0
VERTEX
8
shiti
10
53424.8
20
31499.59
30
31.1902
0
VERTEX
8
shiti
10
53446.87
20
31502.75
30
32.0204
0
VERTEX
8
shiti
10
53434.96
20
31524.73
30
28.8913
0
SEQEND
0
POLYLINE
8
shiti
66
1
0
VERTEX
8
shiti
10
53415.92
20
31523.57
30
28.6408
0
VERTEX
8
shiti
10
53410.21
20
31511.39
30
29.09
0
VERTEX
8
shiti
10
53424.8
20
31499.59
30
31.1902
0
VERTEX
8
shiti
10
53415.92
20
31523.57
30
28.6408
0
SEQEND
0
POLYLINE
8
shiti
66
1
0
VERTEX
8
shiti
10
53415.92
20
31523.57
30
28.6408
0
VERTEX
8
shiti
10
53424.8
20
31499.59
30
31.1902
0
VERTEX
8
shiti
10
53434.96
20
31524.73
30
28.8913
0
VERTEX
8
shiti
10
53415.92
20
31523.57
30
28.6408
0
SEQEND
0
POLYLINE
8
shiti
66
1
0
VERTEX
8
shiti
10
53381.47
20
31504.81
30
28.3432
0
VERTEX
8
shiti
10
53392.51
20
31495.92
30
29.1024
0
VERTEX
8
shiti
10
53410.21
20
31511.39
30
29.09
0
VERTEX
8
shiti
10
53381.47
20
31504.81
30
28.3432
0
SEQEND
0
POLYLINE
8
shiti
66
1
0
VERTEX
8
shiti
10
53348.82
20
31486.82
30
26.2623
0
VERTEX
8
shiti
10
53365.02
20
31495.85
30
27.6838
0
VERTEX
8
shiti
10
53352.99
20
31500.58
30
26.1047
0
VERTEX
8
shiti
10
53348.82
20
31486.82
30
26.2623
0
SEQEND
0
POLYLINE
8
shiti
66
1
0
VERTEX
8
shiti
10
53350.47
20
31471.08
30
27.5493
0
VERTEX
8
shiti
10
53352.89
20
31454.84
30
28.4999
0
VERTEX
8
shiti
10
53405.41
20
31459.37
30
36.2749
0
VERTEX
8
shiti
10
53350.47
20
31471.08
30
27.5493
0
SEQEND
0
POLYLINE
8
shiti
66
1
0
VERTEX
8
shiti
10
53350.47
20
31471.08
30
27.5493
0
VERTEX
8
shiti
10
53405.41
20
31459.37
30
36.2749
0
VERTEX
8
shiti
10
53392.51
20
31495.92
30
29.1024
0
VERTEX
8
shiti
10
53350.47
20
31471.08
30
27.5493
0
SEQEND
0
POLYLINE
8
shiti
66
1
0
VERTEX
8
shiti
10
53350.47
20
31471.08
30
27.5493
0
VERTEX
8
shiti
10
53392.51
20
31495.92
30
29.1024
0
VERTEX
8
shiti
10
53365.02
20
31495.85
30
27.6838
0
VERTEX
8
shiti
10
53350.47
20
31471.08
30
27.5493
0
SEQEND
0
POLYLINE
8
shiti
66
1
0
VERTEX
8
shiti
10
53350.47
20
31471.08
30
27.5493
0
VERTEX
8
shiti
10
53344.57
20
31440.31
30
27.7945
0
VERTEX
8
shiti
10
53352.89
20
31454.84
30
28.4999
0
VERTEX
8
shiti
10
53350.47
20
31471.08
30
27.5493
0
SEQEND
0
POLYLINE
8
shiti
66
1
0
VERTEX
8
shiti
10
53350.47
20
31471.08
30
27.5493
0
VERTEX
8
shiti
10
53365.02
20
31495.85
30
27.6838
0
VERTEX
8
shiti
10
53348.82
20
31486.82
30
26.2623
0
VERTEX
8
shiti
10
53350.47
20
31471.08
30
27.5493
0
SEQEND
0
POLYLINE
8
shiti
66
1
0
VERTEX
8
shiti
10
53387.14
20
31526.14
30
25.9322
0
VERTEX
8
shiti
10
53381.47
20
31504.81
30
28.3432
0
VERTEX
8
shiti
10
53410.21
20
31511.39
30
29.09
0
VERTEX
8
shiti
10
53387.14
20
31526.14
30
25.9322
0
SEQEND
0
POLYLINE
8
shiti
66
1
0
VERTEX
8
shiti
10
53387.14
20
31526.14
30
25.9322
0
VERTEX
8
shiti
10
53410.21
20
31511.39
30
29.09
0
VERTEX
8
shiti
10
53415.92
20
31523.57
30
28.6408
0
VERTEX
8
shiti
10
53387.14
20
31526.14
30
25.9322
0
SEQEND
0
POLYLINE
8
shiti
66
1
0
VERTEX
8
shiti
10
53387.14
20
31526.14
30
25.9322
0
VERTEX
8
shiti
10
53357.64
20
31521.57
30
25.8516
0
VERTEX
8
shiti
10
53381.47
20
31504.81
30
28.3432
0
VERTEX
8
shiti
10
53387.14
20
31526.14
30
25.9322
0
SEQEND
0
POLYLINE
8
shiti
66
1
0
VERTEX
8
shiti
10
53418.4
20
31538.09
30
25.2847
0
VERTEX
8
shiti
10
53387.14
20
31526.14
30
25.9322
0
VERTEX
8
shiti
10
53415.92
20
31523.57
30
28.6408
0
VERTEX
8
shiti
10
53418.4
20
31538.09
30
25.2847
0
SEQEND
0
POLYLINE
8
shiti
66
1
0
VERTEX
8
shiti
10
53418.4
20
31538.09
30
25.2847
0
VERTEX
8
shiti
10
53415.92
20
31523.57
30
28.6408
0
VERTEX
8
shiti
10
53434.96
20
31524.73
30
28.8913
0
VERTEX
8
shiti
10
53418.4
20
31538.09
30
25.2847
0
SEQEND
0
POLYLINE
8
shiti
66
1
0
VERTEX
8
shiti
10
53448.49
20
31533.77
30
25.8802
0
VERTEX
8
shiti
10
53418.4
20
31538.09
30
25.2847
0
VERTEX
8
shiti
10
53434.96
20
31524.73
30
28.8913
0
VERTEX
8
shiti
10
53448.49
20
31533.77
30
25.8802
0
SEQEND
0
POLYLINE
8
shiti
66
1
0
VERTEX
8
shiti
10
53465.16
20
31494.46
30
34.603
0
VERTEX
8
shiti
10
53446.87
20
31502.75
30
32.0204
0
VERTEX
8
shiti
10
53444.54
20
31478.39
30
39.4434
0
VERTEX
8
shiti
10
53465.16
20
31494.46
30
34.603
0
SEQEND
0
POLYLINE
8
shiti
66
1
0
VERTEX
8
shiti
10
53465.16
20
31494.46
30
34.603
0
VERTEX
8
shiti
10
53444.54
20
31478.39
30
39.4434
0
VERTEX
8
shiti
10
53465.83
20
31471.64
30
41.4353
0
VERTEX
8
shiti
10
53465.16
20
31494.46
30
34.603
0
SEQEND
0
POLYLINE
8
shiti
66
1
0
VERTEX
8
shiti
10
53465.16
20
31494.46
30
34.603
0
VERTEX
8
shiti
10
53465.83
20
31471.64
30
41.4353
0
VERTEX
8
shiti
10
53485.63
20
31490.18
30
36.4479
0
VERTEX
8
shiti
10
53465.16
20
31494.46
30
34.603
0
SEQEND
0
POLYLINE
8
shiti
66
1
0
VERTEX
8
shiti
10
53458.79
20
31508.1
30
31.0874
0
VERTEX
8
shiti
10
53448.49
20
31533.77
30
25.8802
0
VERTEX
8
shiti
10
53434.96
20
31524.73
30
28.8913
0
VERTEX
8
shiti
10
53458.79
20
31508.1
30
31.0874
0
SEQEND
0
POLYLINE
8
shiti
66
1
0
VERTEX
8
shiti
10
53458.79
20
31508.1
30
31.0874
0
VERTEX
8
shiti
10
53434.96
20
31524.73
30
28.8913
0
VERTEX
8
shiti
10
53446.87
20
31502.75
30
32.0204
0
VERTEX
8
shiti
10
53458.79
20
31508.1
30
31.0874
0
SEQEND
0
POLYLINE
8
shiti
66
1
0
VERTEX
8
shiti
10
53458.79
20
31508.1
30
31.0874
0
VERTEX
8
shiti
10
53446.87
20
31502.75
30
32.0204
0
VERTEX
8
shiti
10
53465.16
20
31494.46
30
34.603
0
VERTEX
8
shiti
10
53458.79
20
31508.1
30
31.0874
0
SEQEND
0
POLYLINE
8
shiti
66
1
0
VERTEX
8
shiti
10
53504.38
20
31505.74
30
29.4945
0
VERTEX
8
shiti
10
53505.89
20
31493.01
30
33.8673
0
VERTEX
8
shiti
10
53542.39
20
31490.08
30
33.8351
0
VERTEX
8
shiti
10
53504.38
20
31505.74
30
29.4945
0
SEQEND
0
POLYLINE
8
shiti
66
1
0
VERTEX
8
shiti
10
53504.38
20
31505.74
30
29.4945
0
VERTEX
8
shiti
10
53485.63
20
31490.18
30
36.4479
0
VERTEX
8
shiti
10
53505.89
20
31493.01
30
33.8673
0
VERTEX
8
shiti
10
53504.38
20
31505.74
30
29.4945
0
SEQEND
0
POLYLINE
8
shiti
66
1
0
VERTEX
8
shiti
10
53487.85
20
31513.9
30
29.3574
0
VERTEX
8
shiti
10
53458.79
20
31508.1
30
31.0874
0
VERTEX
8
shiti
10
53465.16
20
31494.46
30
34.603
0
VERTEX
8
shiti
10
53487.85
20
31513.9
30
29.3574
0
SEQEND
0
POLYLINE
8
shiti
66
1
0
VERTEX
8
shiti
10
53487.85
20
31513.9
30
29.3574
0
VERTEX
8
shiti
10
53465.16
20
31494.46
30
34.603
0
VERTEX
8
shiti
10
53485.63
20
31490.18
30
36.4479
0
VERTEX
8
shiti
10
53487.85
20
31513.9
30
29.3574
0
SEQEND
0
POLYLINE
8
shiti
66
1
0
VERTEX
8
shiti
10
53487.85
20
31513.9
30
29.3574
0
VERTEX
8
shiti
10
53504.38
20
31505.74
30
29.4945
0
VERTEX
8
shiti
10
53503.63
20
31519.64
30
28.9581
0
VERTEX
8
shiti
10
53487.85
20
31513.9
30
29.3574
0
SEQEND
0
POLYLINE
8
shiti
66
1
0
VERTEX
8
shiti
10
53487.85
20
31513.9
30
29.3574
0
VERTEX
8
shiti
10
53485.63
20
31490.18
30
36.4479
0
VERTEX
8
shiti
10
53504.38
20
31505.74
30
29.4945
0
VERTEX
8
shiti
10
53487.85
20
31513.9
30
29.3574
0
SEQEND
0
POLYLINE
8
shiti
66
1
0
VERTEX
8
shiti
10
53473.73
20
31522.38
30
28.2401
0
VERTEX
8
shiti
10
53448.49
20
31533.77
30
25.8802
0
VERTEX
8
shiti
10
53458.79
20
31508.1
30
31.0874
0
VERTEX
8
shiti
10
53473.73
20
31522.38
30
28.2401
0
SEQEND
0
POLYLINE
8
shiti
66
1
0
VERTEX
8
shiti
10
53473.73
20
31522.38
30
28.2401
0
VERTEX
8
shiti
10
53458.79
20
31508.1
30
31.0874
0
VERTEX
8
shiti
10
53487.85
20
31513.9
30
29.3574
0
VERTEX
8
shiti
10
53473.73
20
31522.38
30
28.2401
0
SEQEND
0
POLYLINE
8
shiti
66
1
0
VERTEX
8
shiti
10
53474.65
20
31534.46
30
28.1753
0
VERTEX
8
shiti
10
53418.4
20
31538.09
30
25.2847
0
VERTEX
8
shiti
10
53448.49
20
31533.77
30
25.8802
0
VERTEX
8
shiti
10
53474.65
20
31534.46
30
28.1753
0
SEQEND
0
POLYLINE
8
shiti
66
1
0
VERTEX
8
shiti
10
53474.65
20
31534.46
30
28.1753
0
VERTEX
8
shiti
10
53473.73
20
31522.38
30
28.2401
0
VERTEX
8
shiti
10
53487.85
20
31513.9
30
29.3574
0
VERTEX
8
shiti
10
53474.65
20
31534.46
30
28.1753
0
SEQEND
0
POLYLINE
8
shiti
66
1
0
VERTEX
8
shiti
10
53474.65
20
31534.46
30
28.1753
0
VERTEX
8
shiti
10
53448.49
20
31533.77
30
25.8802
0
VERTEX
8
shiti
10
53473.73
20
31522.38
30
28.2401
0
VERTEX
8
shiti
10
53474.65
20
31534.46
30
28.1753
0
SEQEND
0
POLYLINE
8
shiti
66
1
0
VERTEX
8
shiti
10
53501.33
20
31537.72
30
27.601
0
VERTEX
8
shiti
10
53418.4
20
31538.09
30
25.2847
0
VERTEX
8
shiti
10
53474.65
20
31534.46
30
28.1753
0
VERTEX
8
shiti
10
53501.33
20
31537.72
30
27.601
0
SEQEND
0
POLYLINE
8
shiti
66
1
0
VERTEX
8
shiti
10
53501.33
20
31537.72
30
27.601
0
VERTEX
8
shiti
10
53474.65
20
31534.46
30
28.1753
0
VERTEX
8
shiti
10
53487.85
20
31513.9
30
29.3574
0
VERTEX
8
shiti
10
53501.33
20
31537.72
30
27.601
0
SEQEND
0
POLYLINE
8
shiti
66
1
0
VERTEX
8
shiti
10
53501.33
20
31537.72
30
27.601
0
VERTEX
8
shiti
10
53487.85
20
31513.9
30
29.3574
0
VERTEX
8
shiti
10
53503.63
20
31519.64
30
28.9581
0
VERTEX
8
shiti
10
53501.33
20
31537.72
30
27.601
0
SEQEND
0
POLYLINE
8
shiti
66
1
0
VERTEX
8
shiti
10
53526.89
20
31530.08
30
29.1993
0
VERTEX
8
shiti
10
53503.63
20
31519.64
30
28.9581
0
VERTEX
8
shiti
10
53504.38
20
31505.74
30
29.4945
0
VERTEX
8
shiti
10
53526.89
20
31530.08
30
29.1993
0
SEQEND
0
POLYLINE
8
shiti
66
1
0
VERTEX
8
shiti
10
53526.89
20
31530.08
30
29.1993
0
VERTEX
8
shiti
10
53501.33
20
31537.72
30
27.601
0
VERTEX
8
shiti
10
53503.63
20
31519.64
30
28.9581
0
VERTEX
8
shiti
10
53526.89
20
31530.08
30
29.1993
0
SEQEND
0
POLYLINE
8
shiti
66
1
0
VERTEX
8
shiti
10
53538.63
20
31519.63
30
29.2767
0
VERTEX
8
shiti
10
53526.89
20
31530.08
30
29.1993
0
VERTEX
8
shiti
10
53504.38
20
31505.74
30
29.4945
0
VERTEX
8
shiti
10
53538.63
20
31519.63
30
29.2767
0
SEQEND
0
POLYLINE
8
shiti
66
1
0
VERTEX
8
shiti
10
53538.63
20
31519.63
30
29.2767
0
VERTEX
8
shiti
10
53504.38
20
31505.74
30
29.4945
0
VERTEX
8
shiti
10
53542.39
20
31490.08
30
33.8351
0
VERTEX
8
shiti
10
53538.63
20
31519.63
30
29.2767
0
SEQEND
0
POLYLINE
8
shiti
66
1
0
VERTEX
8
shiti
10
53327.38
20
31431.95
30
26.6129
0
VERTEX
8
shiti
10
53348.04
20
31425.53
30
27.416
0
VERTEX
8
shiti
10
53344.57
20
31440.31
30
27.7945
0
VERTEX
8
shiti
10
53327.38
20
31431.95
30
26.6129
0
SEQEND
0
POLYLINE
8
shiti
66
1
0
VERTEX
8
shiti
10
53327.38
20
31431.95
30
26.6129
0
VERTEX
8
shiti
10
53350.47
20
31471.08
30
27.5493
0
VERTEX
8
shiti
10
53348.82
20
31486.82
30
26.2623
0
VERTEX
8
shiti
10
53327.38
20
31431.95
30
26.6129
0
SEQEND
0
POLYLINE
8
shiti
66
1
0
VERTEX
8
shiti
10
53327.38
20
31431.95
30
26.6129
0
VERTEX
8
shiti
10
53344.57
20
31440.31
30
27.7945
0
VERTEX
8
shiti
10
53350.47
20
31471.08
30
27.5493
0
VERTEX
8
shiti
10
53327.38
20
31431.95
30
26.6129
0
SEQEND
0
POLYLINE
8
shiti
66
1
0
VERTEX
8
shiti
10
53326.22
20
31419.39
30
26.2965
0
VERTEX
8
shiti
10
53335.09
20
31399.61
30
26.6922
0
VERTEX
8
shiti
10
53348.04
20
31425.53
30
27.416
0
VERTEX
8
shiti
10
53326.22
20
31419.39
30
26.2965
0
SEQEND
0
POLYLINE
8
shiti
66
1
0
VERTEX
8
shiti
10
53326.22
20
31419.39
30
26.2965
0
VERTEX
8
shiti
10
53348.04
20
31425.53
30
27.416
0
VERTEX
8
shiti
10
53327.38
20
31431.95
30
26.6129
0
VERTEX
8
shiti
10
53326.22
20
31419.39
30
26.2965
0
SEQEND
0
POLYLINE
8
shiti
66
1
0
VERTEX
8
shiti
10
53326.22
20
31419.39
30
26.2965
0
VERTEX
8
shiti
10
53326.8
20
31381.66
30
26.7581
0
VERTEX
8
shiti
10
53335.09
20
31399.61
30
26.6922
0
VERTEX
8
shiti
10
53326.22
20
31419.39
30
26.2965
0
SEQEND
0
POLYLINE
8
shiti
66
1
0
VERTEX
8
shiti
10
53603.18
20
31381.36
30
28.8233
0
VERTEX
8
shiti
10
53596.28
20
31464.84
30
31.7542
0
VERTEX
8
shiti
10
53591.41
20
31400.14
30
31.3133
0
VERTEX
8
shiti
10
53603.18
20
31381.36
30
28.8233
0
SEQEND
0
POLYLINE
8
shiti
66
1
0
VERTEX
8
shiti
10
53603.18
20
31381.36
30
28.8233
0
VERTEX
8
shiti
10
53591.41
20
31400.14
30
31.3133
0
VERTEX
8
shiti
10
53580.18
20
31375.51
30
30.2236
0
VERTEX
8
shiti
10
53603.18
20
31381.36
30
28.8233
0
SEQEND
0
POLYLINE
8
shiti
66
1
0
VERTEX
8
shiti
10
53583.86
20
31408.9
30
33.6867
0
VERTEX
8
shiti
10
53591.41
20
31400.14
30
31.3133
0
VERTEX
8
shiti
10
53596.28
20
31464.84
30
31.7542
0
VERTEX
8
shiti
10
53583.86
20
31408.9
30
33.6867
0
SEQEND
0
POLYLINE
8
shiti
66
1
0
VERTEX
8
shiti
10
53583.86
20
31408.9
30
33.6867
0
VERTEX
8
shiti
10
53596.28
20
31464.84
30
31.7542
0
VERTEX
8
shiti
10
53582.49
20
31461.23
30
34.1418
0
VERTEX
8
shiti
10
53583.86
20
31408.9
30
33.6867
0
SEQEND
0
POLYLINE
8
shiti
66
1
0
VERTEX
8
shiti
10
53565.07
20
31419.84
30
36.2957
0
VERTEX
8
shiti
10
53583.86
20
31408.9
30
33.6867
0
VERTEX
8
shiti
10
53582.49
20
31461.23
30
34.1418
0
VERTEX
8
shiti
10
53565.07
20
31419.84
30
36.2957
0
SEQEND
0
POLYLINE
8
shiti
66
1
0
VERTEX
8
shiti
10
53565.07
20
31419.84
30
36.2957
0
VERTEX
8
shiti
10
53582.49
20
31461.23
30
34.1418
0
VERTEX
8
shiti
10
53555.09
20
31429.29
30
37.5484
0
VERTEX
8
shiti
10
53565.07
20
31419.84
30
36.2957
0
SEQEND
0
POLYLINE
8
shiti
66
1
0
VERTEX
8
shiti
10
53544.34
20
31402.71
30
36.3476
0
VERTEX
8
shiti
10
53555.09
20
31429.29
30
37.5484
0
VERTEX
8
shiti
10
53515.85
20
31437.89
30
39.9929
0
VERTEX
8
shiti
10
53544.34
20
31402.71
30
36.3476
0
SEQEND
0
POLYLINE
8
shiti
66
1
0
VERTEX
8
shiti
10
53544.34
20
31402.71
30
36.3476
0
VERTEX
8
shiti
10
53515.85
20
31437.89
30
39.9929
0
VERTEX
8
shiti
10
53499.63
20
31422.7
30
40.7577
0
VERTEX
8
shiti
10
53544.34
20
31402.71
30
36.3476
0
SEQEND
0
POLYLINE
8
shiti
66
1
0
VERTEX
8
shiti
10
53544.34
20
31402.71
30
36.3476
0
VERTEX
8
shiti
10
53565.07
20
31419.84
30
36.2957
0
VERTEX
8
shiti
10
53555.09
20
31429.29
30
37.5484
0
VERTEX
8
shiti
10
53544.34
20
31402.71
30
36.3476
0
SEQEND
0
POLYLINE
8
shiti
66
1
0
VERTEX
8
shiti
10
53568.31
20
31403.82
30
34.7975
0
VERTEX
8
shiti
10
53580.18
20
31375.51
30
30.2236
0
VERTEX
8
shiti
10
53591.41
20
31400.14
30
31.3133
0
VERTEX
8
shiti
10
53568.31
20
31403.82
30
34.7975
0
SEQEND
0
POLYLINE
8
shiti
66
1
0
VERTEX
8
shiti
10
53568.31
20
31403.82
30
34.7975
0
VERTEX
8
shiti
10
53591.41
20
31400.14
30
31.3133
0
VERTEX
8
shiti
10
53583.86
20
31408.9
30
33.6867
0
VERTEX
8
shiti
10
53568.31
20
31403.82
30
34.7975
0
SEQEND
0
POLYLINE
8
shiti
66
1
0
VERTEX
8
shiti
10
53568.31
20
31403.82
30
34.7975
0
VERTEX
8
shiti
10
53544.34
20
31402.71
30
36.3476
0
VERTEX
8
shiti
10
53580.18
20
31375.51
30
30.2236
0
VERTEX
8
shiti
10
53568.31
20
31403.82
30
34.7975
0
SEQEND
0
POLYLINE
8
shiti
66
1
0
VERTEX
8
shiti
10
53568.31
20
31403.82
30
34.7975
0
VERTEX
8
shiti
10
53583.86
20
31408.9
30
33.6867
0
VERTEX
8
shiti
10
53565.07
20
31419.84
30
36.2957
0
VERTEX
8
shiti
10
53568.31
20
31403.82
30
34.7975
0
SEQEND
0
POLYLINE
8
shiti
66
1
0
VERTEX
8
shiti
10
53568.31
20
31403.82
30
34.7975
0
VERTEX
8
shiti
10
53565.07
20
31419.84
30
36.2957
0
VERTEX
8
shiti
10
53544.34
20
31402.71
30
36.3476
0
VERTEX
8
shiti
10
53568.31
20
31403.82
30
34.7975
0
SEQEND
0
POLYLINE
8
shiti
66
1
0
VERTEX
8
shiti
10
53517.51
20
31388.7
30
35.1603
0
VERTEX
8
shiti
10
53492.35
20
31402.93
30
37.9286
0
VERTEX
8
shiti
10
53489.32
20
31390.16
30
36.34
0
VERTEX
8
shiti
10
53517.51
20
31388.7
30
35.1603
0
SEQEND
0
POLYLINE
8
shiti
66
1
0
VERTEX
8
shiti
10
53517.51
20
31388.7
30
35.1603
0
VERTEX
8
shiti
10
53544.34
20
31402.71
30
36.3476
0
VERTEX
8
shiti
10
53499.63
20
31422.7
30
40.7577
0
VERTEX
8
shiti
10
53517.51
20
31388.7
30
35.1603
0
SEQEND
0
POLYLINE
8
shiti
66
1
0
VERTEX
8
shiti
10
53517.51
20
31388.7
30
35.1603
0
VERTEX
8
shiti
10
53499.63
20
31422.7
30
40.7577
0
VERTEX
8
shiti
10
53492.35
20
31402.93
30
37.9286
0
VERTEX
8
shiti
10
53517.51
20
31388.7
30
35.1603
0
SEQEND
0
POLYLINE
8
shiti
66
1
0
VERTEX
8
shiti
10
53521.11
20
31366.48
30
31.672
0
VERTEX
8
shiti
10
53544.34
20
31402.71
30
36.3476
0
VERTEX
8
shiti
10
53517.51
20
31388.7
30
35.1603
0
VERTEX
8
shiti
10
53521.11
20
31366.48
30
31.672
0
SEQEND
0
POLYLINE
8
shiti
66
1
0
VERTEX
8
shiti
10
53539.64
20
31349.28
30
29.138
0
VERTEX
8
shiti
10
53521.11
20
31366.48
30
31.672
0
VERTEX
8
shiti
10
53529.15
20
31341.71
30
27.0601
0
VERTEX
8
shiti
10
53539.64
20
31349.28
30
29.138
0
SEQEND
0
POLYLINE
8
shiti
66
1
0
VERTEX
8
shiti
10
53539.64
20
31349.28
30
29.138
0
VERTEX
8
shiti
10
53580.18
20
31375.51
30
30.2236
0
VERTEX
8
shiti
10
53544.34
20
31402.71
30
36.3476
0
VERTEX
8
shiti
10
53539.64
20
31349.28
30
29.138
0
SEQEND
0
POLYLINE
8
shiti
66
1
0
VERTEX
8
shiti
10
53539.64
20
31349.28
30
29.138
0
VERTEX
8
shiti
10
53544.34
20
31402.71
30
36.3476
0
VERTEX
8
shiti
10
53521.11
20
31366.48
30
31.672
0
VERTEX
8
shiti
10
53539.64
20
31349.28
30
29.138
0
SEQEND
0
POLYLINE
8
shiti
66
1
0
VERTEX
8
shiti
10
53505.15
20
31350.97
30
29.6483
0
VERTEX
8
shiti
10
53506.62
20
31335.71
30
26.9185
0
VERTEX
8
shiti
10
53529.15
20
31341.71
30
27.0601
0
VERTEX
8
shiti
10
53505.15
20
31350.97
30
29.6483
0
SEQEND
0
POLYLINE
8
shiti
66
1
0
VERTEX
8
shiti
10
53505.15
20
31350.97
30
29.6483
0
VERTEX
8
shiti
10
53529.15
20
31341.71
30
27.0601
0
VERTEX
8
shiti
10
53521.11
20
31366.48
30
31.672
0
VERTEX
8
shiti
10
53505.15
20
31350.97
30
29.6483
0
SEQEND
0
POLYLINE
8
shiti
66
1
0
VERTEX
8
shiti
10
53494.79
20
31379.74
30
33.5259
0
VERTEX
8
shiti
10
53517.51
20
31388.7
30
35.1603
0
VERTEX
8
shiti
10
53489.32
20
31390.16
30
36.34
0
VERTEX
8
shiti
10
53494.79
20
31379.74
30
33.5259
0
SEQEND
0
POLYLINE
8
shiti
66
1
0
VERTEX
8
shiti
10
53494.79
20
31379.74
30
33.5259
0
VERTEX
8
shiti
10
53489.32
20
31390.16
30
36.34
0
VERTEX
8
shiti
10
53491.54
20
31372.23
30
33.0459
0
VERTEX
8
shiti
10
53494.79
20
31379.74
30
33.5259
0
SEQEND
0
POLYLINE
8
shiti
66
1
0
VERTEX
8
shiti
10
53511.44
20
31374.64
30
33.1928
0
VERTEX
8
shiti
10
53505.15
20
31350.97
30
29.6483
0
VERTEX
8
shiti
10
53521.11
20
31366.48
30
31.672
0
VERTEX
8
shiti
10
53511.44
20
31374.64
30
33.1928
0
SEQEND
0
POLYLINE
8
shiti
66
1
0
VERTEX
8
shiti
10
53511.44
20
31374.64
30
33.1928
0
VERTEX
8
shiti
10
53521.11
20
31366.48
30
31.672
0
VERTEX
8
shiti
10
53517.51
20
31388.7
30
35.1603
0
VERTEX
8
shiti
10
53511.44
20
31374.64
30
33.1928
0
SEQEND
0
POLYLINE
8
shiti
66
1
0
VERTEX
8
shiti
10
53511.44
20
31374.64
30
33.1928
0
VERTEX
8
shiti
10
53517.51
20
31388.7
30
35.1603
0
VERTEX
8
shiti
10
53494.79
20
31379.74
30
33.5259
0
VERTEX
8
shiti
10
53511.44
20
31374.64
30
33.1928
0
SEQEND
0
POLYLINE
8
shiti
66
1
0
VERTEX
8
shiti
10
53511.44
20
31374.64
30
33.1928
0
VERTEX
8
shiti
10
53494.79
20
31379.74
30
33.5259
0
VERTEX
8
shiti
10
53491.54
20
31372.23
30
33.0459
0
VERTEX
8
shiti
10
53511.44
20
31374.64
30
33.1928
0
SEQEND
0
POLYLINE
8
shiti
66
1
0
VERTEX
8
shiti
10
53493.14
20
31354.75
30
30.8649
0
VERTEX
8
shiti
10
53456.08
20
31344.36
30
30.1871
0
VERTEX
8
shiti
10
53468.29
20
31316.53
30
27.0276
0
VERTEX
8
shiti
10
53493.14
20
31354.75
30
30.8649
0
SEQEND
0
POLYLINE
8
shiti
66
1
0
VERTEX
8
shiti
10
53493.14
20
31354.75
30
30.8649
0
VERTEX
8
shiti
10
53468.29
20
31316.53
30
27.0276
0
VERTEX
8
shiti
10
53506.62
20
31335.71
30
26.9185
0
VERTEX
8
shiti
10
53493.14
20
31354.75
30
30.8649
0
SEQEND
0
POLYLINE
8
shiti
66
1
0
VERTEX
8
shiti
10
53493.14
20
31354.75
30
30.8649
0
VERTEX
8
shiti
10
53470.83
20
31363.75
30
32.6194
0
VERTEX
8
shiti
10
53456.08
20
31344.36
30
30.1871
0
VERTEX
8
shiti
10
53493.14
20
31354.75
30
30.8649
0
SEQEND
0
POLYLINE
8
shiti
66
1
0
VERTEX
8
shiti
10
53493.14
20
31354.75
30
30.8649
0
VERTEX
8
shiti
10
53491.54
20
31372.23
30
33.0459
0
VERTEX
8
shiti
10
53470.83
20
31363.75
30
32.6194
0
VERTEX
8
shiti
10
53493.14
20
31354.75
30
30.8649
0
SEQEND
0
POLYLINE
8
shiti
66
1
0
VERTEX
8
shiti
10
53493.14
20
31354.75
30
30.8649
0
VERTEX
8
shiti
10
53506.62
20
31335.71
30
26.9185
0
VERTEX
8
shiti
10
53505.15
20
31350.97
30
29.6483
0
VERTEX
8
shiti
10
53493.14
20
31354.75
30
30.8649
0
SEQEND
0
POLYLINE
8
shiti
66
1
0
VERTEX
8
shiti
10
53493.14
20
31354.75
30
30.8649
0
VERTEX
8
shiti
10
53511.44
20
31374.64
30
33.1928
0
VERTEX
8
shiti
10
53491.54
20
31372.23
30
33.0459
0
VERTEX
8
shiti
10
53493.14
20
31354.75
30
30.8649
0
SEQEND
0
POLYLINE
8
shiti
66
1
0
VERTEX
8
shiti
10
53493.14
20
31354.75
30
30.8649
0
VERTEX
8
shiti
10
53505.15
20
31350.97
30
29.6483
0
VERTEX
8
shiti
10
53511.44
20
31374.64
30
33.1928
0
VERTEX
8
shiti
10
53493.14
20
31354.75
30
30.8649
0
SEQEND
0
POLYLINE
8
shiti
66
1
0
VERTEX
8
shiti
10
53549.66
20
31508.67
30
30.3146
0
VERTEX
8
shiti
10
53538.63
20
31519.63
30
29.2767
0
VERTEX
8
shiti
10
53542.39
20
31490.08
30
33.8351
0
VERTEX
8
shiti
10
53549.66
20
31508.67
30
30.3146
0
SEQEND
0
POLYLINE
8
shiti
66
1
0
VERTEX
8
shiti
10
53549.66
20
31508.67
30
30.3146
0
VERTEX
8
shiti
10
53542.39
20
31490.08
30
33.8351
0
VERTEX
8
shiti
10
53567.67
20
31505.61
30
29.5076
0
VERTEX
8
shiti
10
53549.66
20
31508.67
30
30.3146
0
SEQEND
0
POLYLINE
8
shiti
66
1
0
VERTEX
8
shiti
10
53549.66
20
31508.67
30
30.3146
0
VERTEX
8
shiti
10
53567.67
20
31505.61
30
29.5076
0
VERTEX
8
shiti
10
53538.63
20
31519.63
30
29.2767
0
VERTEX
8
shiti
10
53549.66
20
31508.67
30
30.3146
0
SEQEND
0
POLYLINE
8
shiti
66
1
0
VERTEX
8
shiti
10
53369.18
20
31500.28
30
27.7
0
VERTEX
8
shiti
10
53365.02
20
31495.85
30
27.6838
0
VERTEX
8
shiti
10
53392.51
20
31495.92
30
29.1024
0
VERTEX
8
shiti
10
53369.18
20
31500.28
30
27.7
0
SEQEND
0
POLYLINE
8
shiti
66
1
0
VERTEX
8
shiti
10
53369.18
20
31500.28
30
27.7
0
VERTEX
8
shiti
10
53392.51
20
31495.92
30
29.1024
0
VERTEX
8
shiti
10
53381.47
20
31504.81
30
28.3432
0
VERTEX
8
shiti
10
53369.18
20
31500.28
30
27.7
0
SEQEND
0
POLYLINE
8
shiti
66
1
0
VERTEX
8
shiti
10
53369.18
20
31500.28
30
27.7
0
VERTEX
8
shiti
10
53357.64
20
31521.57
30
25.8516
0
VERTEX
8
shiti
10
53352.99
20
31500.58
30
26.1047
0
VERTEX
8
shiti
10
53369.18
20
31500.28
30
27.7
0
SEQEND
0
POLYLINE
8
shiti
66
1
0
VERTEX
8
shiti
10
53369.18
20
31500.28
30
27.7
0
VERTEX
8
shiti
10
53352.99
20
31500.58
30
26.1047
0
VERTEX
8
shiti
10
53365.02
20
31495.85
30
27.6838
0
VERTEX
8
shiti
10
53369.18
20
31500.28
30
27.7
0
SEQEND
0
POLYLINE
8
shiti
66
1
0
VERTEX
8
shiti
10
53369.18
20
31500.28
30
27.7
0
VERTEX
8
shiti
10
53381.47
20
31504.81
30
28.3432
0
VERTEX
8
shiti
10
53357.64
20
31521.57
30
25.8516
0
VERTEX
8
shiti
10
53369.18
20
31500.28
30
27.7
0
SEQEND
0
POLYLINE
8
shiti
66
1
0
VERTEX
8
shiti
10
53442.8
20
31431.06
30
43.9
0
VERTEX
8
shiti
10
53414.28
20
31421.88
30
39.555
0
VERTEX
8
shiti
10
53444.56
20
31406.78
30
41.6945
0
VERTEX
8
shiti
10
53442.8
20
31431.06
30
43.9
0
SEQEND
0
POLYLINE
8
shiti
66
1
0
VERTEX
8
shiti
10
53442.8
20
31431.06
30
43.9
0
VERTEX
8
shiti
10
53444.56
20
31406.78
30
41.6945
0
VERTEX
8
shiti
10
53464.5
20
31427.23
30
43.5075
0
VERTEX
8
shiti
10
53442.8
20
31431.06
30
43.9
0
SEQEND
0
POLYLINE
8
shiti
66
1
0
VERTEX
8
shiti
10
53442.8
20
31431.06
30
43.9
0
VERTEX
8
shiti
10
53464.5
20
31427.23
30
43.5075
0
VERTEX
8
shiti
10
53446.92
20
31438.86
30
43.5085
0
VERTEX
8
shiti
10
53442.8
20
31431.06
30
43.9
0
SEQEND
0
POLYLINE
8
shiti
66
1
0
VERTEX
8
shiti
10
53442.8
20
31431.06
30
43.9
0
VERTEX
8
shiti
10
53425.14
20
31442.84
30
42.2289
0
VERTEX
8
shiti
10
53414.28
20
31421.88
30
39.555
0
VERTEX
8
shiti
10
53442.8
20
31431.06
30
43.9
0
SEQEND
0
POLYLINE
8
shiti
66
1
0
VERTEX
8
shiti
10
53442.8
20
31431.06
30
43.9
0
VERTEX
8
shiti
10
53446.92
20
31438.86
30
43.5085
0
VERTEX
8
shiti
10
53425.14
20
31442.84
30
42.2289
0
VERTEX
8
shiti
10
53442.8
20
31431.06
30
43.9
0
SEQEND
0
POLYLINE
8
shiti
66
1
0
VERTEX
8
shiti
10
53455.78
20
31444.08
30
43.46
0
VERTEX
8
shiti
10
53464.5
20
31427.23
30
43.5075
0
VERTEX
8
shiti
10
53479.13
20
31432.82
30
42.3405
0
VERTEX
8
shiti
10
53455.78
20
31444.08
30
43.46
0
SEQEND
0
POLYLINE
8
shiti
66
1
0
VERTEX
8
shiti
10
53455.78
20
31444.08
30
43.46
0
VERTEX
8
shiti
10
53479.13
20
31432.82
30
42.3405
0
VERTEX
8
shiti
10
53482.52
20
31450.67
30
42.3327
0
VERTEX
8
shiti
10
53455.78
20
31444.08
30
43.46
0
SEQEND
0
POLYLINE
8
shiti
66
1
0
VERTEX
8
shiti
10
53455.78
20
31444.08
30
43.46
0
VERTEX
8
shiti
10
53446.92
20
31438.86
30
43.5085
0
VERTEX
8
shiti
10
53464.5
20
31427.23
30
43.5075
0
VERTEX
8
shiti
10
53455.78
20
31444.08
30
43.46
0
SEQEND
0
POLYLINE
8
shiti
66
1
0
VERTEX
8
shiti
10
53455.78
20
31444.08
30
43.46
0
VERTEX
8
shiti
10
53451.21
20
31462.16
30
42.1787
0
VERTEX
8
shiti
10
53446.92
20
31438.86
30
43.5085
0
VERTEX
8
shiti
10
53455.78
20
31444.08
30
43.46
0
SEQEND
0
POLYLINE
8
shiti
66
1
0
VERTEX
8
shiti
10
53455.78
20
31444.08
30
43.46
0
VERTEX
8
shiti
10
53465.83
20
31471.64
30
41.4353
0
VERTEX
8
shiti
10
53451.21
20
31462.16
30
42.1787
0
VERTEX
8
shiti
10
53455.78
20
31444.08
30
43.46
0
SEQEND
0
POLYLINE
8
shiti
66
1
0
VERTEX
8
shiti
10
53455.78
20
31444.08
30
43.46
0
VERTEX
8
shiti
10
53482.52
20
31450.67
30
42.3327
0
VERTEX
8
shiti
10
53465.83
20
31471.64
30
41.4353
0
VERTEX
8
shiti
10
53455.78
20
31444.08
30
43.46
0
SEQEND
0
POLYLINE
8
shiti
66
1
0
VERTEX
8
shiti
10
53461.02
20
31374.57
30
35.5
0
VERTEX
8
shiti
10
53489.32
20
31390.16
30
36.34
0
VERTEX
8
shiti
10
53472.76
20
31401.02
30
38.5963
0
VERTEX
8
shiti
10
53461.02
20
31374.57
30
35.5
0
SEQEND
0
POLYLINE
8
shiti
66
1
0
VERTEX
8
shiti
10
53461.02
20
31374.57
30
35.5
0
VERTEX
8
shiti
10
53470.83
20
31363.75
30
32.6194
0
VERTEX
8
shiti
10
53491.54
20
31372.23
30
33.0459
0
VERTEX
8
shiti
10
53461.02
20
31374.57
30
35.5
0
SEQEND
0
POLYLINE
8
shiti
66
1
0
VERTEX
8
shiti
10
53461.02
20
31374.57
30
35.5
0
VERTEX
8
shiti
10
53491.54
20
31372.23
30
33.0459
0
VERTEX
8
shiti
10
53489.32
20
31390.16
30
36.34
0
VERTEX
8
shiti
10
53461.02
20
31374.57
30
35.5
0
SEQEND
0
POLYLINE
8
shiti
66
1
0
VERTEX
8
shiti
10
53461.02
20
31374.57
30
35.5
0
VERTEX
8
shiti
10
53449.7
20
31383.25
30
36.9367
0
VERTEX
8
shiti
10
53446.84
20
31368.77
30
34.5865
0
VERTEX
8
shiti
10
53461.02
20
31374.57
30
35.5
0
SEQEND
0
POLYLINE
8
shiti
66
1
0
VERTEX
8
shiti
10
53461.02
20
31374.57
30
35.5
0
VERTEX
8
shiti
10
53446.84
20
31368.77
30
34.5865
0
VERTEX
8
shiti
10
53470.83
20
31363.75
30
32.6194
0
VERTEX
8
shiti
10
53461.02
20
31374.57
30
35.5
0
SEQEND
0
POLYLINE
8
shiti
66
1
0
VERTEX
8
shiti
10
53461.02
20
31374.57
30
35.5
0
VERTEX
8
shiti
10
53472.76
20
31401.02
30
38.5963
0
VERTEX
8
shiti
10
53449.7
20
31383.25
30
36.9367
0
VERTEX
8
shiti
10
53461.02
20
31374.57
30
35.5
0
SEQEND
0
POLYLINE
8
shiti
66
1
0
VERTEX
8
shiti
10
53437.3
20
31388.9
30
38.2
0
VERTEX
8
shiti
10
53414.07
20
31397.87
30
39.5041
0
VERTEX
8
shiti
10
53414.85
20
31383.5
30
37.4818
0
VERTEX
8
shiti
10
53437.3
20
31388.9
30
38.2
0
SEQEND
0
POLYLINE
8
shiti
66
1
0
VERTEX
8
shiti
10
53437.3
20
31388.9
30
38.2
0
VERTEX
8
shiti
10
53414.85
20
31383.5
30
37.4818
0
VERTEX
8
shiti
10
53424.7
20
31367.77
30
34.8919
0
VERTEX
8
shiti
10
53437.3
20
31388.9
30
38.2
0
SEQEND
0
POLYLINE
8
shiti
66
1
0
VERTEX
8
shiti
10
53437.3
20
31388.9
30
38.2
0
VERTEX
8
shiti
10
53424.7
20
31367.77
30
34.8919
0
VERTEX
8
shiti
10
53446.84
20
31368.77
30
34.5865
0
VERTEX
8
shiti
10
53437.3
20
31388.9
30
38.2
0
SEQEND
0
POLYLINE
8
shiti
66
1
0
VERTEX
8
shiti
10
53437.3
20
31388.9
30
38.2
0
VERTEX
8
shiti
10
53446.84
20
31368.77
30
34.5865
0
VERTEX
8
shiti
10
53449.7
20
31383.25
30
36.9367
0
VERTEX
8
shiti
10
53437.3
20
31388.9
30
38.2
0
SEQEND
0
POLYLINE
8
shiti
66
1
0
VERTEX
8
shiti
10
53437.3
20
31388.9
30
38.2
0
VERTEX
8
shiti
10
53444.56
20
31406.78
30
41.6945
0
VERTEX
8
shiti
10
53414.07
20
31397.87
30
39.5041
0
VERTEX
8
shiti
10
53437.3
20
31388.9
30
38.2
0
SEQEND
0
POLYLINE
8
shiti
66
1
0
VERTEX
8
shiti
10
53437.3
20
31388.9
30
38.2
0
VERTEX
8
shiti
10
53449.7
20
31383.25
30
36.9367
0
VERTEX
8
shiti
10
53444.56
20
31406.78
30
41.6945
0
VERTEX
8
shiti
10
53437.3
20
31388.9
30
38.2
0
SEQEND
0
POLYLINE
8
shiti
66
1
0
VERTEX
8
shiti
10
53399.61
20
31407.54
30
37
0
VERTEX
8
shiti
10
53414.28
20
31421.88
30
39.555
0
VERTEX
8
shiti
10
53387.8
20
31425.02
30
36.8774
0
VERTEX
8
shiti
10
53399.61
20
31407.54
30
37
0
SEQEND
0
POLYLINE
8
shiti
66
1
0
VERTEX
8
shiti
10
53399.61
20
31407.54
30
37
0
VERTEX
8
shiti
10
53387.8
20
31425.02
30
36.8774
0
VERTEX
8
shiti
10
53393.47
20
31393.86
30
32.5395
0
VERTEX
8
shiti
10
53399.61
20
31407.54
30
37
0
SEQEND
0
POLYLINE
8
shiti
66
1
0
VERTEX
8
shiti
10
53399.61
20
31407.54
30
37
0
VERTEX
8
shiti
10
53414.07
20
31397.87
30
39.5041
0
VERTEX
8
shiti
10
53414.28
20
31421.88
30
39.555
0
VERTEX
8
shiti
10
53399.61
20
31407.54
30
37
0
SEQEND
0
POLYLINE
8
shiti
66
1
0
VERTEX
8
shiti
10
53399.61
20
31407.54
30
37
0
VERTEX
8
shiti
10
53393.47
20
31393.86
30
32.5395
0
VERTEX
8
shiti
10
53414.07
20
31397.87
30
39.5041
0
VERTEX
8
shiti
10
53399.61
20
31407.54
30
37
0
SEQEND
0
POLYLINE
8
shiti
66
1
0
VERTEX
8
shiti
10
53514.12
20
31450.64
30
40.1
0
VERTEX
8
shiti
10
53508.1
20
31461.98
30
40.2172
0
VERTEX
8
shiti
10
53503.6
20
31439.93
30
41.0365
0
VERTEX
8
shiti
10
53514.12
20
31450.64
30
40.1
0
SEQEND
0
POLYLINE
8
shiti
66
1
0
VERTEX
8
shiti
10
53514.12
20
31450.64
30
40.1
0
VERTEX
8
shiti
10
53503.6
20
31439.93
30
41.0365
0
VERTEX
8
shiti
10
53515.85
20
31437.89
30
39.9929
0
VERTEX
8
shiti
10
53514.12
20
31450.64
30
40.1
0
SEQEND
0
POLYLINE
8
shiti
66
1
0
VERTEX
8
shiti
10
53514.12
20
31450.64
30
40.1
0
VERTEX
8
shiti
10
53532.14
20
31466.79
30
37.7726
0
VERTEX
8
shiti
10
53508.1
20
31461.98
30
40.2172
0
VERTEX
8
shiti
10
53514.12
20
31450.64
30
40.1
0
SEQEND
0
POLYLINE
8
shiti
66
1
0
VERTEX
8
shiti
10
53514.12
20
31450.64
30
40.1
0
VERTEX
8
shiti
10
53547.81
20
31446.42
30
38.3385
0
VERTEX
8
shiti
10
53532.14
20
31466.79
30
37.7726
0
VERTEX
8
shiti
10
53514.12
20
31450.64
30
40.1
0
SEQEND
0
POLYLINE
8
shiti
66
1
0
VERTEX
8
shiti
10
53514.12
20
31450.64
30
40.1
0
VERTEX
8
shiti
10
53515.85
20
31437.89
30
39.9929
0
VERTEX
8
shiti
10
53547.81
20
31446.42
30
38.3385
0
VERTEX
8
shiti
10
53514.12
20
31450.64
30
40.1
0
SEQEND
0
ENDSEC
0
EOF