0
SECTION
2
TABLES
0
TABLE
2
LAYER
0
LAYER
70
0
2
shiti
62
10
6
CONTINUOUS
0
LAYER
70
0
2
zhuji
62
50
6
CONTINUOUS
0
LAYER
70
0
2
sqita
62
90
6
CONTINUOUS
0
ENDTAB
0
ENDSEC
0
SECTION
2
ENTITIES
0
POINT
8
0
10
2885.732
20
3778.594
30
9.468
0
POINT
8
0
10
2888.487
20
3773.103
30
9.533
0
POINT
8
0
10
2892.923
20
3766.087
30
9.669
0
POINT
8
0
10
2898.991
20
3762.06
30
9.996
0
POINT
8
0
10
2906.144
20
3759.293
30
10.081
0
POINT
8
0
10
2913.009
20
3758.296
30
10.138
0
POINT
8
0
10
2918.692
20
3758.338
30
10.244
0
POINT
8
0
10
2921.138
20
3760.633
30
10.982
0
POINT
8
0
10
2923.66
20
3762.056
30
10.599
0
POINT
8
0
10
2925.61
20
3765.44
30
10.079
0
POINT
8
0
10
2926.411
20
3770.899
30
10.235
0
POINT
8
0
10
2928.302
20
3777.081
30
10.034
0
POINT
8
0
10
2927.48
20
3782.205
30
9.804
0
POINT
8
0
10
2927.451
20
3784.604
30
9.804
0
POINT
8
0
10
2928.771
20
3789.161
30
9.612
0
POINT
8
0
10
2929.106
20
3793.153
30
9.612
0
POINT
8
0
10
2927.951
20
3797.203
30
9.975
0
POINT
8
0
10
2927.305
20
3802.405
30
9.353
0
POINT
8
0
10
2928.345
20
3806.864
30
9.614
0
POINT
8
0
10
2926.977
20
3810.016
30
9.309
0
POINT
8
0
10
2925.532
20
3812.363
30
9.903
0
POINT
8
0
10
2925.745
20
3814.905
30
9.86
0
POINT
8
0
10
2924.395
20
3818.429
30
10.966
0
POINT
8
0
10
2924.484
20
3819.19
30
11.384
0
POINT
8
0
10
2923.527
20
3823.03
30
11.157
0
POINT
8
0
10
2919.409
20
3829.613
30
11.293
0
POINT
8
0
10
2911.361
20
3832.537
30
10.912
0
POINT
8
0
10
2907.862
20
3830.895
30
10.217
0
POINT
8
0
10
2903.406
20
3827.358
30
10.59
0
POINT
8
0
10
2898.301
20
3831.001
30
9.079
0
POINT
8
0
10
2892.006
20
3828.766
30
9.044
0
POINT
8
0
10
2888.541
20
3822.258
30
9.095
0
POINT
8
0
10
2890.342
20
3815.296
30
9.343
0
POINT
8
0
10
2890.661
20
3810.832
30
9.29
0
POINT
8
0
10
2887.983
20
3802.221
30
9.124
0
POINT
8
0
10
2878.61
20
3796.394
30
9.47
0
POINT
8
0
10
2876.201
20
3786.659
30
9.78
0
POINT
8
0
10
2880.248
20
3777.909
30
9.524
0
POINT
8
0
10
2884.628
20
3787.202
30
11.792
0
POINT
8
0
10
2893.717
20
3784.449
30
16.808
0
POINT
8
0
10
2874.729
20
3817.825
30
9.767
0
POINT
8
0
10
2873.631
20
3826.094
30
10.234
0
POINT
8
0
10
2870.698
20
3835.38
30
10.19
0
POINT
8
0
10
2861.121
20
3836.929
30
10.257
0
POINT
8
0
10
2855.926
20
3832.075
30
9.759
0
POINT
8
0
10
2857.301
20
3824.011
30
9.985
0
POINT
8
0
10
2860.992
20
3814.973
30
9.714
0
POINT
8
0
10
2868.448
20
3814.884
30
9.482
0
POINT
8
0
10
2872.296
20
3818.132
30
9.613
0
POINT
8
0
10
2864.528
20
3828.113
30
14.402
0
TEXT
8
zhuji
10
2882.732
20
3775.594
40
1
1
P01
0
TEXT
8
zhuji
10
2885.487
20
3770.103
40
1
1
P02
0
TEXT
8
zhuji
10
2889.923
20
3763.087
40
1
1
P03
0
TEXT
8
zhuji
10
2895.991
20
3759.06
40
1
1
P04
0
TEXT
8
zhuji
10
2903.144
20
3756.293
40
1
1
P05
0
TEXT
8
zhuji
10
2910.009
20
3755.296
40
1
1
P06
0
TEXT
8
zhuji
10
2915.692
20
3755.338
40
1
1
P07
0
TEXT
8
zhuji
10
2918.138
20
3757.633
40
1
1
P08
0
TEXT
8
zhuji
10
2920.66
20
3759.056
40
1
1
P09
0
TEXT
8
zhuji
10
2922.61
20
3762.44
40
1
1
P10
0
TEXT
8
zhuji
10
2923.411
20
3767.899
40
1
1
P11
0
TEXT
8
zhuji
10
2925.302
20
3774.081
40
1
1
P12
0
TEXT
8
zhuji
10
2924.48
20
3779.205
40
1
1
P13
0
TEXT
8
zhuji
10
2924.451
20
3781.604
40
1
1
P14
0
TEXT
8
zhuji
10
2925.771
20
3786.161
40
1
1
P15
0
TEXT
8
zhuji
10
2926.106
20
3790.153
40
1
1
P16
0
TEXT
8
zhuji
10
2924.951
20
3794.203
40
1
1
P17
0
TEXT
8
zhuji
10
2924.305
20
3799.405
40
1
1
P18
0
TEXT
8
zhuji
10
2925.345
20
3803.864
40
1
1
P19
0
TEXT
8
zhuji
10
2923.977
20
3807.016
40
1
1
P20
0
TEXT
8
zhuji
10
2922.532
20
3809.363
40
1
1
P21
0
TEXT
8
zhuji
10
2922.745
20
3811.905
40
1
1
P22
0
TEXT
8
zhuji
10
2921.395
20
3815.429
40
1
1
P23
0
TEXT
8
zhuji
10
2921.484
20
3816.19
40
1
1
P24
0
TEXT
8
zhuji
10
2920.527
20
3820.03
40
1
1
P25
0
TEXT
8
zhuji
10
2916.409
20
3826.613
40
1
1
P26
0
TEXT
8
zhuji
10
2908.361
20
3829.537
40
1
1
P27
0
TEXT
8
zhuji
10
2904.862
20
3827.895
40
1
1
P28
0
TEXT
8
zhuji
10
2900.406
20
3824.358
40
1
1
P29
0
TEXT
8
zhuji
10
2895.301
20
3828.001
40
1
1
P30
0
TEXT
8
zhuji
10
2889.006
20
3825.766
40
1
1
P31
0
TEXT
8
zhuji
10
2885.541
20
3819.258
40
1
1
P32
0
TEXT
8
zhuji
10
2887.342
20
3812.296
40
1
1
P33
0
TEXT
8
zhuji
10
2887.661
20
3807.832
40
1
1
P34
0
TEXT
8
zhuji
10
2884.983
20
3799.221
40
1
1
P35
0
TEXT
8
zhuji
10
2875.61
20
3793.394
40
1
1
P36
0
TEXT
8
zhuji
10
2873.201
20
3783.659
40
1
1
P37
0
TEXT
8
zhuji
10
2877.248
20
3774.909
40
1
1
P38
0
TEXT
8
zhuji
10
2881.628
20
3784.202
40
1
1
P39
0
TEXT
8
zhuji
10
2890.717
20
3781.449
40
1
1
P40
0
TEXT
8
zhuji
10
2871.729
20
3814.825
40
1
1
P41
0
TEXT
8
zhuji
10
2870.631
20
3823.094
40
1
1
P42
0
TEXT
8
zhuji
10
2867.698
20
3832.38
40
1
1
P43
0
TEXT
8
zhuji
10
2858.121
20
3833.929
40
1
1
P44
0
TEXT
8
zhuji
10
2852.926
20
3829.075
40
1
1
P45
0
TEXT
8
zhuji
10
2854.301
20
3821.011
40
1
1
P46
0
TEXT
8
zhuji
10
2857.992
20
3811.973
40
1
1
P47
0
TEXT
8
zhuji
10
2865.448
20
3811.884
40
1
1
P48
0
TEXT
8
zhuji
10
2869.296
20
3815.132
40
1
1
P49
0
TEXT
8
zhuji
10
2861.528
20
3825.113
40
1
1
P50
0
POLYLINE
8
shiti
66
1
0
VERTEX
8
shiti
10
2921.138
20
3760.633
30
10.982
0
VERTEX
8
shiti
10
2913.009
20
3758.296
30
10.138
0
VERTEX
8
shiti
10
2918.692
20
3758.338
30
10.244
0
VERTEX
8
shiti
10
2921.138
20
3760.633
30
10.982
0
SEQEND
0
POLYLINE
8
shiti
66
1
0
VERTEX
8
shiti
10
2925.61
20
3765.44
30
10.079
0
VERTEX
8
shiti
10
2921.138
20
3760.633
30
10.982
0
VERTEX
8
shiti
10
2923.66
20
3762.056
30
10.599
0
VERTEX
8
shiti
10
2925.61
20
3765.44
30
10.079
0
SEQEND
0
POLYLINE
8
shiti
66
1
0
VERTEX
8
shiti
10
2926.411
20
3770.899
30
10.235
0
VERTEX
8
shiti
10
2906.144
20
3759.293
30
10.081
0
VERTEX
8
shiti
10
2913.009
20
3758.296
30
10.138
0
VERTEX
8
shiti
10
2926.411
20
3770.899
30
10.235
0
SEQEND
0
POLYLINE
8
shiti
66
1
0
VERTEX
8
shiti
10
2926.411
20
3770.899
30
10.235
0
VERTEX
8
shiti
10
2913.009
20
3758.296
30
10.138
0
VERTEX
8
shiti
10
2921.138
20
3760.633
30
10.982
0
VERTEX
8
shiti
10
2926.411
20
3770.899
30
10.235
0
SEQEND
0
POLYLINE
8
shiti
66
1
0
VERTEX
8
shiti
10
2926.411
20
3770.899
30
10.235
0
VERTEX
8
shiti
10
2921.138
20
3760.633
30
10.982
0
VERTEX
8
shiti
10
2925.61
20
3765.44
30
10.079
0
VERTEX
8
shiti
10
2926.411
20
3770.899
30
10.235
0
SEQEND
0
POLYLINE
8
shiti
66
1
0
VERTEX
8
shiti
10
2927.48
20
3782.205
30
9.804
0
VERTEX
8
shiti
10
2926.411
20
3770.899
30
10.235
0
VERTEX
8
shiti
10
2928.302
20
3777.081
30
10.034
0
VERTEX
8
shiti
10
2927.48
20
3782.205
30
9.804
0
SEQEND
0
POLYLINE
8
shiti
66
1
0
VERTEX
8
shiti
10
2928.771
20
3789.161
30
9.612
0
VERTEX
8
shiti
10
2927.451
20
3784.604
30
9.804
0
VERTEX
8
shiti
10
2927.48
20
3782.205
30
9.804
0
VERTEX
8
shiti
10
2928.771
20
3789.161
30
9.612
0
SEQEND
0
POLYLINE
8
shiti
66
1
0
VERTEX
8
shiti
10
2928.771
20
3789.161
30
9.612
0
VERTEX
8
shiti
10
2927.48
20
3782.205
30
9.804
0
VERTEX
8
shiti
10
2928.302
20
3777.081
30
10.034
0
VERTEX
8
shiti
10
2928.771
20
3789.161
30
9.612
0
SEQEND
0
POLYLINE
8
shiti
66
1
0
VERTEX
8
shiti
10
2927.951
20
3797.203
30
9.975
0
VERTEX
8
shiti
10
2927.451
20
3784.604
30
9.804
0
VERTEX
8
shiti
10
2928.771
20
3789.161
30
9.612
0
VERTEX
8
shiti
10
2927.951
20
3797.203
30
9.975
0
SEQEND
0
POLYLINE
8
shiti
66
1
0
VERTEX
8
shiti
10
2927.951
20
3797.203
30
9.975
0
VERTEX
8
shiti
10
2928.771
20
3789.161
30
9.612
0
VERTEX
8
shiti
10
2929.106
20
3793.153
30
9.612
0
VERTEX
8
shiti
10
2927.951
20
3797.203
30
9.975
0
SEQEND
0
POLYLINE
8
shiti
66
1
0
VERTEX
8
shiti
10
2928.345
20
3806.864
30
9.614
0
VERTEX
8
shiti
10
2927.305
20
3802.405
30
9.353
0
VERTEX
8
shiti
10
2927.951
20
3797.203
30
9.975
0
VERTEX
8
shiti
10
2928.345
20
3806.864
30
9.614
0
SEQEND
0
POLYLINE
8
shiti
66
1
0
VERTEX
8
shiti
10
2928.345
20
3806.864
30
9.614
0
VERTEX
8
shiti
10
2927.951
20
3797.203
30
9.975
0
VERTEX
8
shiti
10
2929.106
20
3793.153
30
9.612
0
VERTEX
8
shiti
10
2928.345
20
3806.864
30
9.614
0
SEQEND
0
POLYLINE
8
shiti
66
1
0
VERTEX
8
shiti
10
2926.977
20
3810.016
30
9.309
0
VERTEX
8
shiti
10
2927.305
20
3802.405
30
9.353
0
VERTEX
8
shiti
10
2928.345
20
3806.864
30
9.614
0
VERTEX
8
shiti
10
2926.977
20
3810.016
30
9.309
0
SEQEND
0
POLYLINE
8
shiti
66
1
0
VERTEX
8
shiti
10
2925.532
20
3812.363
30
9.903
0
VERTEX
8
shiti
10
2927.305
20
3802.405
30
9.353
0
VERTEX
8
shiti
10
2926.977
20
3810.016
30
9.309
0
VERTEX
8
shiti
10
2925.532
20
3812.363
30
9.903
0
SEQEND
0
POLYLINE
8
shiti
66
1
0
VERTEX
8
shiti
10
2925.745
20
3814.905
30
9.86
0
VERTEX
8
shiti
10
2926.977
20
3810.016
30
9.309
0
VERTEX
8
shiti
10
2928.345
20
3806.864
30
9.614
0
VERTEX
8
shiti
10
2925.745
20
3814.905
30
9.86
0
SEQEND
0
POLYLINE
8
shiti
66
1
0
VERTEX
8
shiti
10
2925.745
20
3814.905
30
9.86
0
VERTEX
8
shiti
10
2925.532
20
3812.363
30
9.903
0
VERTEX
8
shiti
10
2926.977
20
3810.016
30
9.309
0
VERTEX
8
shiti
10
2925.745
20
3814.905
30
9.86
0
SEQEND
0
POLYLINE
8
shiti
66
1
0
VERTEX
8
shiti
10
2924.395
20
3818.429
30
10.966
0
VERTEX
8
shiti
10
2925.532
20
3812.363
30
9.903
0
VERTEX
8
shiti
10
2925.745
20
3814.905
30
9.86
0
VERTEX
8
shiti
10
2924.395
20
3818.429
30
10.966
0
SEQEND
0
POLYLINE
8
shiti
66
1
0
VERTEX
8
shiti
10
2924.484
20
3819.19
30
11.384
0
VERTEX
8
shiti
10
2924.395
20
3818.429
30
10.966
0
VERTEX
8
shiti
10
2925.745
20
3814.905
30
9.86
0
VERTEX
8
shiti
10
2924.484
20
3819.19
30
11.384
0
SEQEND
0
POLYLINE
8
shiti
66
1
0
VERTEX
8
shiti
10
2923.527
20
3823.03
30
11.157
0
VERTEX
8
shiti
10
2924.395
20
3818.429
30
10.966
0
VERTEX
8
shiti
10
2924.484
20
3819.19
30
11.384
0
VERTEX
8
shiti
10
2923.527
20
3823.03
30
11.157
0
SEQEND
0
POLYLINE
8
shiti
66
1
0
VERTEX
8
shiti
10
2907.862
20
3830.895
30
10.217
0
VERTEX
8
shiti
10
2923.527
20
3823.03
30
11.157
0
VERTEX
8
shiti
10
2919.409
20
3829.613
30
11.293
0
VERTEX
8
shiti
10
2907.862
20
3830.895
30
10.217
0
SEQEND
0
POLYLINE
8
shiti
66
1
0
VERTEX
8
shiti
10
2907.862
20
3830.895
30
10.217
0
VERTEX
8
shiti
10
2919.409
20
3829.613
30
11.293
0
VERTEX
8
shiti
10
2911.361
20
3832.537
30
10.912
0
VERTEX
8
shiti
10
2907.862
20
3830.895
30
10.217
0
SEQEND
0
POLYLINE
8
shiti
66
1
0
VERTEX
8
shiti
10
2903.406
20
3827.358
30
10.59
0
VERTEX
8
shiti
10
2925.532
20
3812.363
30
9.903
0
VERTEX
8
shiti
10
2924.395
20
3818.429
30
10.966
0
VERTEX
8
shiti
10
2903.406
20
3827.358
30
10.59
0
SEQEND
0
POLYLINE
8
shiti
66
1
0
VERTEX
8
shiti
10
2903.406
20
3827.358
30
10.59
0
VERTEX
8
shiti
10
2924.395
20
3818.429
30
10.966
0
VERTEX
8
shiti
10
2923.527
20
3823.03
30
11.157
0
VERTEX
8
shiti
10
2903.406
20
3827.358
30
10.59
0
SEQEND
0
POLYLINE
8
shiti
66
1
0
VERTEX
8
shiti
10
2903.406
20
3827.358
30
10.59
0
VERTEX
8
shiti
10
2923.527
20
3823.03
30
11.157
0
VERTEX
8
shiti
10
2907.862
20
3830.895
30
10.217
0
VERTEX
8
shiti
10
2903.406
20
3827.358
30
10.59
0
SEQEND
0
POLYLINE
8
shiti
66
1
0
VERTEX
8
shiti
10
2898.301
20
3831.001
30
9.079
0
VERTEX
8
shiti
10
2907.862
20
3830.895
30
10.217
0
VERTEX
8
shiti
10
2911.361
20
3832.537
30
10.912
0
VERTEX
8
shiti
10
2898.301
20
3831.001
30
9.079
0
SEQEND
0
POLYLINE
8
shiti
66
1
0
VERTEX
8
shiti
10
2898.301
20
3831.001
30
9.079
0
VERTEX
8
shiti
10
2903.406
20
3827.358
30
10.59
0
VERTEX
8
shiti
10
2907.862
20
3830.895
30
10.217
0
VERTEX
8
shiti
10
2898.301
20
3831.001
30
9.079
0
SEQEND
0
POLYLINE
8
shiti
66
1
0
VERTEX
8
shiti
10
2892.006
20
3828.766
30
9.044
0
VERTEX
8
shiti
10
2903.406
20
3827.358
30
10.59
0
VERTEX
8
shiti
10
2898.301
20
3831.001
30
9.079
0
VERTEX
8
shiti
10
2892.006
20
3828.766
30
9.044
0
SEQEND
0
POLYLINE
8
shiti
66
1
0
VERTEX
8
shiti
10
2888.541
20
3822.258
30
9.095
0
VERTEX
8
shiti
10
2903.406
20
3827.358
30
10.59
0
VERTEX
8
shiti
10
2892.006
20
3828.766
30
9.044
0
VERTEX
8
shiti
10
2888.541
20
3822.258
30
9.095
0
SEQEND
0
POLYLINE
8
shiti
66
1
0
VERTEX
8
shiti
10
2890.342
20
3815.296
30
9.343
0
VERTEX
8
shiti
10
2903.406
20
3827.358
30
10.59
0
VERTEX
8
shiti
10
2888.541
20
3822.258
30
9.095
0
VERTEX
8
shiti
10
2890.342
20
3815.296
30
9.343
0
SEQEND
0
POLYLINE
8
shiti
66
1
0
VERTEX
8
shiti
10
2890.661
20
3810.832
30
9.29
0
VERTEX
8
shiti
10
2927.305
20
3802.405
30
9.353
0
VERTEX
8
shiti
10
2925.532
20
3812.363
30
9.903
0
VERTEX
8
shiti
10
2890.661
20
3810.832
30
9.29
0
SEQEND
0
POLYLINE
8
shiti
66
1
0
VERTEX
8
shiti
10
2890.661
20
3810.832
30
9.29
0
VERTEX
8
shiti
10
2925.532
20
3812.363
30
9.903
0
VERTEX
8
shiti
10
2903.406
20
3827.358
30
10.59
0
VERTEX
8
shiti
10
2890.661
20
3810.832
30
9.29
0
SEQEND
0
POLYLINE
8
shiti
66
1
0
VERTEX
8
shiti
10
2890.661
20
3810.832
30
9.29
0
VERTEX
8
shiti
10
2903.406
20
3827.358
30
10.59
0
VERTEX
8
shiti
10
2890.342
20
3815.296
30
9.343
0
VERTEX
8
shiti
10
2890.661
20
3810.832
30
9.29
0
SEQEND
0
POLYLINE
8
shiti
66
1
0
VERTEX
8
shiti
10
2887.983
20
3802.221
30
9.124
0
VERTEX
8
shiti
10
2927.305
20
3802.405
30
9.353
0
VERTEX
8
shiti
10
2890.661
20
3810.832
30
9.29
0
VERTEX
8
shiti
10
2887.983
20
3802.221
30
9.124
0
SEQEND
0
POLYLINE
8
shiti
66
1
0
VERTEX
8
shiti
10
2880.248
20
3777.909
30
9.524
0
VERTEX
8
shiti
10
2888.487
20
3773.103
30
9.533
0
VERTEX
8
shiti
10
2885.732
20
3778.594
30
9.468
0
VERTEX
8
shiti
10
2880.248
20
3777.909
30
9.524
0
SEQEND
0
POLYLINE
8
shiti
66
1
0
VERTEX
8
shiti
10
2880.248
20
3777.909
30
9.524
0
VERTEX
8
shiti
10
2892.923
20
3766.087
30
9.669
0
VERTEX
8
shiti
10
2888.487
20
3773.103
30
9.533
0
VERTEX
8
shiti
10
2880.248
20
3777.909
30
9.524
0
SEQEND
0
POLYLINE
8
shiti
66
1
0
VERTEX
8
shiti
10
2884.628
20
3787.202
30
11.792
0
VERTEX
8
shiti
10
2887.983
20
3802.221
30
9.124
0
VERTEX
8
shiti
10
2878.61
20
3796.394
30
9.47
0
VERTEX
8
shiti
10
2884.628
20
3787.202
30
11.792
0
SEQEND
0
POLYLINE
8
shiti
66
1
0
VERTEX
8
shiti
10
2884.628
20
3787.202
30
11.792
0
VERTEX
8
shiti
10
2878.61
20
3796.394
30
9.47
0
VERTEX
8
shiti
10
2876.201
20
3786.659
30
9.78
0
VERTEX
8
shiti
10
2884.628
20
3787.202
30
11.792
0
SEQEND
0
POLYLINE
8
shiti
66
1
0
VERTEX
8
shiti
10
2884.628
20
3787.202
30
11.792
0
VERTEX
8
shiti
10
2880.248
20
3777.909
30
9.524
0
VERTEX
8
shiti
10
2885.732
20
3778.594
30
9.468
0
VERTEX
8
shiti
10
2884.628
20
3787.202
30
11.792
0
SEQEND
0
POLYLINE
8
shiti
66
1
0
VERTEX
8
shiti
10
2884.628
20
3787.202
30
11.792
0
VERTEX
8
shiti
10
2876.201
20
3786.659
30
9.78
0
VERTEX
8
shiti
10
2880.248
20
3777.909
30
9.524
0
VERTEX
8
shiti
10
2884.628
20
3787.202
30
11.792
0
SEQEND
0
POLYLINE
8
shiti
66
1
0
VERTEX
8
shiti
10
2893.717
20
3784.449
30
16.808
0
VERTEX
8
shiti
10
2888.487
20
3773.103
30
9.533
0
VERTEX
8
shiti
10
2892.923
20
3766.087
30
9.669
0
VERTEX
8
shiti
10
2893.717
20
3784.449
30
16.808
0
SEQEND
0
POLYLINE
8
shiti
66
1
0
VERTEX
8
shiti
10
2893.717
20
3784.449
30
16.808
0
VERTEX
8
shiti
10
2892.923
20
3766.087
30
9.669
0
VERTEX
8
shiti
10
2898.991
20
3762.06
30
9.996
0
VERTEX
8
shiti
10
2893.717
20
3784.449
30
16.808
0
SEQEND
0
POLYLINE
8
shiti
66
1
0
VERTEX
8
shiti
10
2893.717
20
3784.449
30
16.808
0
VERTEX
8
shiti
10
2898.991
20
3762.06
30
9.996
0
VERTEX
8
shiti
10
2906.144
20
3759.293
30
10.081
0
VERTEX
8
shiti
10
2893.717
20
3784.449
30
16.808
0
SEQEND
0
POLYLINE
8
shiti
66
1
0
VERTEX
8
shiti
10
2893.717
20
3784.449
30
16.808
0
VERTEX
8
shiti
10
2906.144
20
3759.293
30
10.081
0
VERTEX
8
shiti
10
2926.411
20
3770.899
30
10.235
0
VERTEX
8
shiti
10
2893.717
20
3784.449
30
16.808
0
SEQEND
0
POLYLINE
8
shiti
66
1
0
VERTEX
8
shiti
10
2893.717
20
3784.449
30
16.808
0
VERTEX
8
shiti
10
2926.411
20
3770.899
30
10.235
0
VERTEX
8
shiti
10
2927.48
20
3782.205
30
9.804
0
VERTEX
8
shiti
10
2893.717
20
3784.449
30
16.808
0
SEQEND
0
POLYLINE
8
shiti
66
1
0
VERTEX
8
shiti
10
2893.717
20
3784.449
30
16.808
0
VERTEX
8
shiti
10
2885.732
20
3778.594
30
9.468
0
VERTEX
8
shiti
10
2888.487
20
3773.103
30
9.533
0
VERTEX
8
shiti
10
2893.717
20
3784.449
30
16.808
0
SEQEND
0
POLYLINE
8
shiti
66
1
0
VERTEX
8
shiti
10
2893.717
20
3784.449
30
16.808
0
VERTEX
8
shiti
10
2927.48
20
3782.205
30
9.804
0
VERTEX
8
shiti
10
2927.451
20
3784.604
30
9.804
0
VERTEX
8
shiti
10
2893.717
20
3784.449
30
16.808
0
SEQEND
0
POLYLINE
8
shiti
66
1
0
VERTEX
8
shiti
10
2893.717
20
3784.449
30
16.808
0
VERTEX
8
shiti
10
2927.451
20
3784.604
30
9.804
0
VERTEX
8
shiti
10
2927.951
20
3797.203
30
9.975
0
VERTEX
8
shiti
10
2893.717
20
3784.449
30
16.808
0
SEQEND
0
POLYLINE
8
shiti
66
1
0
VERTEX
8
shiti
10
2893.717
20
3784.449
30
16.808
0
VERTEX
8
shiti
10
2927.951
20
3797.203
30
9.975
0
VERTEX
8
shiti
10
2927.305
20
3802.405
30
9.353
0
VERTEX
8
shiti
10
2893.717
20
3784.449
30
16.808
0
SEQEND
0
POLYLINE
8
shiti
66
1
0
VERTEX
8
shiti
10
2893.717
20
3784.449
30
16.808
0
VERTEX
8
shiti
10
2927.305
20
3802.405
30
9.353
0
VERTEX
8
shiti
10
2887.983
20
3802.221
30
9.124
0
VERTEX
8
shiti
10
2893.717
20
3784.449
30
16.808
0
SEQEND
0
POLYLINE
8
shiti
66
1
0
VERTEX
8
shiti
10
2893.717
20
3784.449
30
16.808
0
VERTEX
8
shiti
10
2884.628
20
3787.202
30
11.792
0
VERTEX
8
shiti
10
2885.732
20
3778.594
30
9.468
0
VERTEX
8
shiti
10
2893.717
20
3784.449
30
16.808
0
SEQEND
0
POLYLINE
8
shiti
66
1
0
VERTEX
8
shiti
10
2893.717
20
3784.449
30
16.808
0
VERTEX
8
shiti
10
2887.983
20
3802.221
30
9.124
0
VERTEX
8
shiti
10
2884.628
20
3787.202
30
11.792
0
VERTEX
8
shiti
10
2893.717
20
3784.449
30
16.808
0
SEQEND
0
POLYLINE
8
shiti
66
1
0
VERTEX
8
shiti
10
2874.729
20
3817.825
30
9.767
0
VERTEX
8
shiti
10
2890.342
20
3815.296
30
9.343
0
VERTEX
8
shiti
10
2888.541
20
3822.258
30
9.095
0
VERTEX
8
shiti
10
2874.729
20
3817.825
30
9.767
0
SEQEND
0
POLYLINE
8
shiti
66
1
0
VERTEX
8
shiti
10
2874.729
20
3817.825
30
9.767
0
VERTEX
8
shiti
10
2878.61
20
3796.394
30
9.47
0
VERTEX
8
shiti
10
2887.983
20
3802.221
30
9.124
0
VERTEX
8
shiti
10
2874.729
20
3817.825
30
9.767
0
SEQEND
0
POLYLINE
8
shiti
66
1
0
VERTEX
8
shiti
10
2874.729
20
3817.825
30
9.767
0
VERTEX
8
shiti
10
2887.983
20
3802.221
30
9.124
0
VERTEX
8
shiti
10
2890.661
20
3810.832
30
9.29
0
VERTEX
8
shiti
10
2874.729
20
3817.825
30
9.767
0
SEQEND
0
POLYLINE
8
shiti
66
1
0
VERTEX
8
shiti
10
2874.729
20
3817.825
30
9.767
0
VERTEX
8
shiti
10
2890.661
20
3810.832
30
9.29
0
VERTEX
8
shiti
10
2890.342
20
3815.296
30
9.343
0
VERTEX
8
shiti
10
2874.729
20
3817.825
30
9.767
0
SEQEND
0
POLYLINE
8
shiti
66
1
0
VERTEX
8
shiti
10
2873.631
20
3826.094
30
10.234
0
VERTEX
8
shiti
10
2874.729
20
3817.825
30
9.767
0
VERTEX
8
shiti
10
2888.541
20
3822.258
30
9.095
0
VERTEX
8
shiti
10
2873.631
20
3826.094
30
10.234
0
SEQEND
0
POLYLINE
8
shiti
66
1
0
VERTEX
8
shiti
10
2873.631
20
3826.094
30
10.234
0
VERTEX
8
shiti
10
2888.541
20
3822.258
30
9.095
0
VERTEX
8
shiti
10
2892.006
20
3828.766
30
9.044
0
VERTEX
8
shiti
10
2873.631
20
3826.094
30
10.234
0
SEQEND
0
POLYLINE
8
shiti
66
1
0
VERTEX
8
shiti
10
2870.698
20
3835.38
30
10.19
0
VERTEX
8
shiti
10
2898.301
20
3831.001
30
9.079
0
VERTEX
8
shiti
10
2911.361
20
3832.537
30
10.912
0
VERTEX
8
shiti
10
2870.698
20
3835.38
30
10.19
0
SEQEND
0
POLYLINE
8
shiti
66
1
0
VERTEX
8
shiti
10
2870.698
20
3835.38
30
10.19
0
VERTEX
8
shiti
10
2892.006
20
3828.766
30
9.044
0
VERTEX
8
shiti
10
2898.301
20
3831.001
30
9.079
0
VERTEX
8
shiti
10
2870.698
20
3835.38
30
10.19
0
SEQEND
0
POLYLINE
8
shiti
66
1
0
VERTEX
8
shiti
10
2870.698
20
3835.38
30
10.19
0
VERTEX
8
shiti
10
2873.631
20
3826.094
30
10.234
0
VERTEX
8
shiti
10
2892.006
20
3828.766
30
9.044
0
VERTEX
8
shiti
10
2870.698
20
3835.38
30
10.19
0
SEQEND
0
POLYLINE
8
shiti
66
1
0
VERTEX
8
shiti
10
2860.992
20
3814.973
30
9.714
0
VERTEX
8
shiti
10
2876.201
20
3786.659
30
9.78
0
VERTEX
8
shiti
10
2878.61
20
3796.394
30
9.47
0
VERTEX
8
shiti
10
2860.992
20
3814.973
30
9.714
0
SEQEND
0
POLYLINE
8
shiti
66
1
0
VERTEX
8
shiti
10
2868.448
20
3814.884
30
9.482
0
VERTEX
8
shiti
10
2860.992
20
3814.973
30
9.714
0
VERTEX
8
shiti
10
2878.61
20
3796.394
30
9.47
0
VERTEX
8
shiti
10
2868.448
20
3814.884
30
9.482
0
SEQEND
0
POLYLINE
8
shiti
66
1
0
VERTEX
8
shiti
10
2868.448
20
3814.884
30
9.482
0
VERTEX
8
shiti
10
2878.61
20
3796.394
30
9.47
0
VERTEX
8
shiti
10
2874.729
20
3817.825
30
9.767
0
VERTEX
8
shiti
10
2868.448
20
3814.884
30
9.482
0
SEQEND
0
POLYLINE
8
shiti
66
1
0
VERTEX
8
shiti
10
2872.296
20
3818.132
30
9.613
0
VERTEX
8
shiti
10
2868.448
20
3814.884
30
9.482
0
VERTEX
8
shiti
10
2874.729
20
3817.825
30
9.767
0
VERTEX
8
shiti
10
2872.296
20
3818.132
30
9.613
0
SEQEND
0
POLYLINE
8
shiti
66
1
0
VERTEX
8
shiti
10
2872.296
20
3818.132
30
9.613
0
VERTEX
8
shiti
10
2874.729
20
3817.825
30
9.767
0
VERTEX
8
shiti
10
2873.631
20
3826.094
30
10.234
0
VERTEX
8
shiti
10
2872.296
20
3818.132
30
9.613
0
SEQEND
0
POLYLINE
8
shiti
66
1
0
VERTEX
8
shiti
10
2864.528
20
3828.113
30
14.402
0
VERTEX
8
shiti
10
2873.631
20
3826.094
30
10.234
0
VERTEX
8
shiti
10
2870.698
20
3835.38
30
10.19
0
VERTEX
8
shiti
10
2864.528
20
3828.113
30
14.402
0
SEQEND
0
POLYLINE
8
shiti
66
1
0
VERTEX
8
shiti
10
2864.528
20
3828.113
30
14.402
0
VERTEX
8
shiti
10
2870.698
20
3835.38
30
10.19
0
VERTEX
8
shiti
10
2861.121
20
3836.929
30
10.257
0
VERTEX
8
shiti
10
2864.528
20
3828.113
30
14.402
0
SEQEND
0
POLYLINE
8
shiti
66
1
0
VERTEX
8
shiti
10
2864.528
20
3828.113
30
14.402
0
VERTEX
8
shiti
10
2861.121
20
3836.929
30
10.257
0
VERTEX
8
shiti
10
2855.926
20
3832.075
30
9.759
0
VERTEX
8
shiti
10
2864.528
20
3828.113
30
14.402
0
SEQEND
0
POLYLINE
8
shiti
66
1
0
VERTEX
8
shiti
10
2864.528
20
3828.113
30
14.402
0
VERTEX
8
shiti
10
2855.926
20
3832.075
30
9.759
0
VERTEX
8
shiti
10
2857.301
20
3824.011
30
9.985
0
VERTEX
8
shiti
10
2864.528
20
3828.113
30
14.402
0
SEQEND
0
POLYLINE
8
shiti
66
1
0
VERTEX
8
shiti
10
2864.528
20
3828.113
30
14.402
0
VERTEX
8
shiti
10
2857.301
20
3824.011
30
9.985
0
VERTEX
8
shiti
10
2860.992
20
3814.973
30
9.714
0
VERTEX
8
shiti
10
2864.528
20
3828.113
30
14.402
0
SEQEND
0
POLYLINE
8
shiti
66
1
0
VERTEX
8
shiti
10
2864.528
20
3828.113
30
14.402
0
VERTEX
8
shiti
10
2860.992
20
3814.973
30
9.714
0
VERTEX
8
shiti
10
2868.448
20
3814.884
30
9.482
0
VERTEX
8
shiti
10
2864.528
20
3828.113
30
14.402
0
SEQEND
0
POLYLINE
8
shiti
66
1
0
VERTEX
8
shiti
10
2864.528
20
3828.113
30
14.402
0
VERTEX
8
shiti
10
2872.296
20
3818.132
30
9.613
0
VERTEX
8
shiti
10
2873.631
20
3826.094
30
10.234
0
VERTEX
8
shiti
10
2864.528
20
3828.113
30
14.402
0
SEQEND
0
POLYLINE
8
shiti
66
1
0
VERTEX
8
shiti
10
2864.528
20
3828.113
30
14.402
0
VERTEX
8
shiti
10
2868.448
20
3814.884
30
9.482
0
VERTEX
8
shiti
10
2872.296
20
3818.132
30
9.613
0
VERTEX
8
shiti
10
2864.528
20
3828.113
30
14.402
0
SEQEND
0
ENDSEC
0
EOF